<svg width="40" height="42" viewBox="0 0 40 42" fill="none" xmlns="http://www.w3.org/2000/svg">
<path d="M27.7011 41.5643C26.8817 41.5643 26.0623 41.5643 25.243 41.5643C25.6141 41.3346 25.8212 41.0202 25.676 40.577C25.5346 40.1465 25.1849 40.0594 24.7708 40.0645C23.637 40.0771 22.5033 40.0771 21.3683 40.0645C20.9542 40.0607 20.6045 40.1465 20.463 40.577C20.3179 41.0202 20.5249 41.3346 20.8961 41.5643C19.7952 41.5694 18.693 41.5795 17.5921 41.5795C12.7755 41.5807 7.95901 41.5744 3.14374 41.582C1.91909 41.5845 1.09592 40.9356 0.487378 39.9685C0.155334 39.4408 -0.00249524 38.8474 2.98142e-05 38.1947C0.0202302 34.402 0.00887859 30.6081 0.0114036 26.8155C0.0114036 26.6918 0.0353966 26.5681 0.0480218 26.4443C0.189425 26.4494 0.33081 26.4595 0.472213 26.4595C9.47023 26.4595 18.4683 26.4595 27.4663 26.4595C27.6077 26.4595 27.7491 26.4506 27.8905 26.4469C28.1266 26.4506 28.3614 26.4595 28.5975 26.4595C31.1427 26.4645 33.688 26.4683 36.2332 26.4721C36.232 28.4076 36.2307 30.343 36.2269 32.2772C36.2269 32.4502 36.213 32.6219 36.2055 32.7948C35.8936 32.5474 35.5654 32.3858 35.1689 32.6029C34.7851 32.8125 34.7851 33.1736 34.7864 33.546C34.7914 35.1191 34.7914 36.6923 34.7877 38.2654C34.7851 39.3499 34.0693 40.0657 32.9848 40.067C31.3801 40.0695 29.7754 40.0733 28.1708 40.0632C27.7567 40.0607 27.4082 40.1478 27.268 40.577C27.1229 41.0202 27.3312 41.3333 27.7024 41.5631L27.7011 41.5643ZM12.0597 37.0432C14.3436 37.0432 16.6275 37.047 18.9114 37.042C19.7131 37.0407 20.3141 36.4562 20.4163 35.6052C20.4946 34.9563 19.9934 34.2228 19.27 34.123C18.4986 34.0157 17.7082 34.0258 16.9267 34.0245C13.0684 34.0157 9.20891 34.0296 5.35063 34.0144C4.45045 34.0106 3.74215 34.8401 3.78129 35.5383C3.82926 36.3981 4.45676 37.0432 5.35189 37.0432C7.58782 37.0445 9.82501 37.0432 12.0609 37.0432H12.0597ZM8.67484 32.507C9.79343 32.507 10.912 32.4956 12.0294 32.5108C12.85 32.5221 13.557 31.9439 13.6101 31.0033C13.6542 30.2155 12.9851 29.5022 12.138 29.4933C9.82249 29.4668 7.50702 29.4744 5.19281 29.4921C4.43403 29.4971 3.73712 30.2647 3.775 31.1132C3.80025 31.6952 4.61961 32.5613 5.27486 32.5247C6.40482 32.4615 7.54235 32.507 8.6761 32.507H8.67484Z" fill="#3D5DF8"/>
<path d="M26.7593 2.26848C28.2617 2.26721 29.7654 2.26469 31.2678 2.26343C31.1163 2.45281 30.9647 2.64219 30.8132 2.83156L30.8183 2.82904C30.7855 2.86186 30.7526 2.89469 30.7198 2.92752L30.7249 2.92373L30.6011 3.01589C30.1706 3.45651 29.7401 3.89714 29.3096 4.33776C29.148 4.47916 28.9763 4.61173 28.8248 4.76323C26.8161 6.76686 24.8087 8.77175 22.8076 10.7829C22.7344 10.8574 22.7255 10.9963 22.6863 11.1049C22.6422 11.1491 22.598 11.1945 22.5538 11.2387C22.473 11.2741 22.3934 11.3094 22.3126 11.3448L22.3202 11.3385C21.9238 11.5758 21.8316 11.947 21.8657 12.3737C21.8619 13.4784 21.8594 14.5831 21.8556 15.6879C21.9112 16.4088 21.6397 17.1663 22.0955 17.843C21.665 18.2722 21.2332 18.7015 20.8027 19.1295C20.6562 19.0159 20.4934 18.9187 20.3646 18.7874C18.9884 17.3847 17.6173 15.977 16.2437 14.5718C15.0569 13.3572 12.869 13.2348 11.6936 14.5478C11.4007 14.8748 11.0838 15.1828 10.7782 15.4985C10.0245 16.2737 9.26949 17.0489 8.51577 17.8241C8.12943 18.2142 7.74437 18.603 7.35804 18.9932C5.90361 20.4526 4.44791 21.9108 2.99601 23.3729C2.93162 23.4372 2.89501 23.5294 2.84451 23.6089C1.90772 24.5382 0.96966 25.4686 0.0328666 26.3979C0.0252915 26.1933 0.0114136 25.9901 0.0114136 25.7855C0.0114136 19.0992 0.0114136 12.4141 0.0114136 5.7278C0.0114136 3.77088 1.51254 2.26722 3.4644 2.26595C5.49328 2.26595 7.52345 2.26595 9.55233 2.26722C9.40461 2.44397 9.19627 2.598 9.12052 2.80126C8.91852 3.34415 9.33011 3.7772 10.0169 3.7772C15.4268 3.7772 20.8368 3.77593 26.2467 3.78225C26.6747 3.78225 27.0433 3.71533 27.1923 3.26082C27.3388 2.81389 27.1001 2.51341 26.7593 2.26722V2.26848ZM2.28017 10.5494C2.14508 12.5088 4.04392 14.4329 6.04376 14.3698C8.11683 14.3041 9.82248 12.8144 9.81112 10.5986C9.79976 8.33996 8.26958 6.86028 5.92885 6.81988C3.89619 6.78453 2.20189 8.66822 2.28017 10.5506V10.5494Z" fill="#E3DCFF"/>
<path d="M7.35804 18.9931C7.74437 18.603 8.12943 18.2141 8.51577 17.824C8.48168 18.247 8.49053 18.6497 8.97282 18.8416C9.43995 19.0285 9.70129 18.7141 9.97778 18.4338C10.3856 18.021 10.7946 17.6094 11.2024 17.1978C12.0243 16.3671 11.9006 15.8456 10.8098 15.5325C10.7972 15.5287 10.7883 15.5098 10.7782 15.4984C11.0838 15.1815 11.4007 14.8747 11.6936 14.5478C12.869 13.2347 15.0569 13.3585 16.2437 14.5717C17.6173 15.9769 18.9872 17.3846 20.3646 18.7873C20.4934 18.9186 20.6562 19.0158 20.8027 19.1295C20.9163 19.2759 21.0148 19.4363 21.1435 19.565C23.2835 21.7126 25.4286 23.8538 27.5673 26.0014C27.6948 26.1302 27.7845 26.2968 27.8918 26.4458C27.7504 26.4496 27.609 26.4584 27.4675 26.4584C18.4695 26.4584 9.47151 26.4584 0.473488 26.4584C0.332085 26.4584 0.190699 26.4483 0.0492963 26.4433C0.0429837 26.4281 0.036655 26.413 0.0328674 26.3978C0.969661 25.4686 1.90772 24.5381 2.84451 23.6089C2.81421 24.0205 2.84831 24.403 3.29272 24.5962C3.73208 24.7881 3.9972 24.5078 4.26865 24.2364C5.57536 22.9271 6.88839 21.6217 8.19132 20.3087C8.62942 19.8668 8.57384 19.334 8.04232 19.0726C7.84789 18.9767 7.58782 19.0158 7.35678 18.9931H7.35804Z" fill="#00D8EB"/>
<path d="M27.8905 26.447C27.7832 26.2981 27.6948 26.1314 27.566 26.0026C25.4273 23.8551 23.2822 21.7126 21.1423 19.5663C21.0135 19.4362 20.9138 19.2759 20.8014 19.1307C21.2319 18.7014 21.6637 18.2722 22.0942 17.8442C22.3518 18.1156 22.6699 18.1737 23.031 18.1497C23.4527 18.1232 23.8769 18.1358 24.2998 18.1308C25.4626 18.1346 26.6254 18.1409 27.7882 18.1409C27.8917 18.1409 27.9953 18.0954 28.1001 18.0752C28.7174 17.954 28.999 17.4541 29.3209 16.997C29.3474 16.968 29.3752 16.939 29.4017 16.9112L29.3954 16.9162C29.5217 16.8354 29.6631 16.771 29.7704 16.67C30.1466 16.3165 30.5115 15.9517 30.8801 15.5906C32.6856 17.4187 34.4922 19.2469 36.2976 21.075C36.2976 22.7415 36.3002 24.4068 36.2976 26.0733C36.2976 26.2072 36.2547 26.341 36.2332 26.4748C33.688 26.471 31.1427 26.4672 28.5975 26.4622C28.3614 26.4622 28.1266 26.4533 27.8905 26.4496V26.447Z" fill="#00C7CC"/>
<path d="M36.2989 21.0737C34.4935 19.2455 32.6868 17.4174 30.8814 15.5892C31.019 15.4403 31.1516 15.2862 31.2955 15.1423C32.7449 13.6879 34.1968 12.2347 35.6474 10.7816C35.6777 10.7462 35.708 10.7121 35.7383 10.6768L35.7345 10.6793C35.9176 10.5404 36.0994 10.4028 36.2825 10.2639C36.2901 12.0416 36.2989 13.8192 36.3027 15.5968C36.3052 17.4224 36.3027 19.248 36.3014 21.0724L36.2989 21.0737Z" fill="#E3DCFF"/>
<path d="M26.7592 2.26831C27.1014 2.51324 27.3388 2.81372 27.1923 3.26192C27.0433 3.71643 26.6747 3.78334 26.2467 3.78334C20.8368 3.77703 15.4268 3.77955 10.0169 3.77829C9.33135 3.77829 8.91849 3.34525 9.1205 2.80236C9.19625 2.59909 9.40459 2.44506 9.5523 2.26831C15.288 2.26831 21.0236 2.26831 26.7592 2.26831Z" fill="#F5F3FF"/>
<path d="M27.7011 41.5645C27.3299 41.3347 27.1229 41.0216 27.2668 40.5785C27.4069 40.1492 27.7554 40.0621 28.1695 40.0646C29.7742 40.0747 31.3788 40.071 32.9835 40.0684C34.068 40.0659 34.7839 39.3501 34.7864 38.2668C34.7889 36.6937 34.7902 35.1206 34.7851 33.5475C34.7839 33.175 34.7826 32.814 35.1677 32.6044C35.5641 32.3885 35.8924 32.5488 36.2042 32.7963C36.2358 33.0122 36.2951 33.2268 36.2964 33.4427C36.3039 35.0297 36.3014 36.6154 36.3002 38.2024C36.2989 40.1682 34.7864 41.6226 32.9305 41.5885C31.1882 41.5557 29.4447 41.5721 27.7011 41.5671V41.5645Z" fill="#2345C1"/>
<path d="M38.4048 1.03236C38.555 1.17755 38.7053 1.32274 38.8555 1.46793C38.8896 1.51339 38.9237 1.55884 38.9565 1.60429L38.9527 1.59419C38.9919 1.65731 39.0297 1.72044 39.0689 1.78357L39.0512 1.77599C39.0828 1.8126 39.1143 1.85048 39.1459 1.88709C39.1459 1.88709 39.1408 1.87826 39.1408 1.87952C39.2785 2.5474 39.5259 3.25567 39.1055 3.86926C38.7242 4.42729 38.2003 4.88812 37.7395 5.39186C37.2332 3.8478 36.2875 2.73299 34.6803 2.26585C35.1374 1.5803 35.6739 0.94525 36.511 0.786172C37.0211 0.69022 37.5728 0.816471 38.1068 0.844247L38.0967 0.839198C38.1624 0.873286 38.228 0.907374 38.2937 0.941462L38.2861 0.936413C38.3265 0.969238 38.3656 1.0008 38.406 1.03363L38.4048 1.03236Z" fill="#3D5DF7"/>
<path d="M38.1056 0.844242C37.5728 0.817729 37.0198 0.690215 36.5098 0.786167C35.6727 0.943983 35.1361 1.5803 34.6791 2.26585C34.621 2.2709 34.5617 2.27595 34.5036 2.27973C33.2979 2.01587 32.1566 2.18505 31.0797 2.79106C31.0064 2.83272 30.9016 2.81883 30.812 2.8302C30.9635 2.64082 31.115 2.45144 31.2665 2.26206C32.12 1.35304 32.9962 0.485685 34.2663 0.167529C35.65 -0.177141 36.9352 -0.00796152 38.1043 0.842981L38.1056 0.844242Z" fill="#2446C1"/>
<path d="M20.8974 41.5645C20.5262 41.3348 20.3191 41.0216 20.4643 40.5772C20.6057 40.1467 20.9554 40.0596 21.3695 40.0647C22.5033 40.0773 23.637 40.0773 24.772 40.0647C25.1861 40.0609 25.5359 40.1467 25.6773 40.5772C25.8225 41.0204 25.6154 41.3348 25.2442 41.5645C23.7948 41.5645 22.3467 41.5645 20.8974 41.5645Z" fill="#2345C1"/>
<path d="M37.7394 5.39198C38.2003 4.88824 38.7229 4.42741 39.1055 3.86938C39.5259 3.25579 39.2784 2.54751 39.1408 1.87964C39.8845 2.80254 40.0776 3.89589 39.9741 5.01954C39.8163 6.73405 38.7078 7.8779 37.444 8.89802C37.4819 8.74904 37.5147 8.5988 37.5601 8.45235C37.8556 7.50545 38.0942 6.55603 37.7205 5.57253C37.7268 5.51319 37.7331 5.45258 37.7394 5.39324V5.39198Z" fill="#2547C2"/>
<path d="M37.7192 5.57129C38.0929 6.5548 37.8543 7.50422 37.5589 8.45111C37.5134 8.59756 37.4806 8.7478 37.4427 8.89678V8.88542C37.4124 8.91698 37.3821 8.94854 37.3518 8.98011C36.9945 9.4081 36.6372 9.8361 36.2787 10.2641C36.0956 10.4017 35.9138 10.5406 35.7307 10.6795C35.7888 10.5052 35.8431 10.3285 35.9037 10.1555C36.2497 9.17959 36.4946 8.19608 36.112 7.16838C36.1108 7.13935 36.1146 7.11031 36.1234 7.08253C36.6549 6.57878 37.1864 6.07504 37.718 5.57129H37.7192Z" fill="#01C6CC"/>
<path d="M12.061 37.0447C9.82502 37.0447 7.58784 37.0447 5.35191 37.0447C4.45678 37.0447 3.82928 36.3995 3.7813 35.5397C3.74216 34.8403 4.45046 34.0121 5.35064 34.0159C9.20892 34.031 13.0685 34.0171 16.9267 34.026C17.7082 34.0272 18.4986 34.0184 19.27 34.1245C19.9934 34.2242 20.4946 34.9577 20.4163 35.6067C20.3141 36.4576 19.7131 37.0422 18.9114 37.0434C16.6275 37.0485 14.3436 37.0447 12.0597 37.0459L12.061 37.0447Z" fill="#E3DCFF"/>
<path d="M8.67485 32.5073C7.5411 32.5073 6.40484 32.4618 5.27362 32.5249C4.61837 32.5615 3.79774 31.6954 3.77375 31.1134C3.73714 30.265 4.43405 29.4987 5.19156 29.4923C7.50704 29.4747 9.82251 29.4671 12.1367 29.4936C12.9839 29.5037 13.653 30.2158 13.6088 31.0036C13.5558 31.9442 12.8488 32.5224 12.0281 32.511C10.9095 32.4959 9.79219 32.5073 8.67359 32.506L8.67485 32.5073Z" fill="#E3DCFF"/>
<path d="M2.28015 10.5494C2.20187 8.66694 3.89491 6.78325 5.92884 6.81861C8.26956 6.85901 9.79974 8.33868 9.8111 10.5973C9.82246 12.8131 8.11681 14.3041 6.04375 14.3685C4.04264 14.4316 2.1438 12.5075 2.28015 10.5481V10.5494Z" fill="#FF8918"/>
<path d="M22.5525 11.2385C22.5967 11.1943 22.6409 11.1488 22.6851 11.1047C22.776 11.0491 22.8681 10.9948 22.9578 10.9367C24.1092 10.2057 25.3402 10.0075 26.657 10.3774C27.4473 10.5441 28.1 10.9531 28.6657 11.5162C27.9498 12.2144 27.2251 12.905 26.5181 13.6133C25.6116 14.521 24.7203 15.4414 23.8214 16.3568C23.4514 16.026 23.1042 15.6611 22.5411 15.6788C22.3657 15.6838 22.1876 15.6245 22.0109 15.5942C22.0109 14.5198 22.0122 13.4466 22.0134 12.3722C22.1157 12.0263 22.2167 11.6816 22.3189 11.3357L22.3114 11.342C22.3922 11.3067 22.4717 11.2713 22.5525 11.236V11.2385Z" fill="#FF9B48"/>
<path d="M26.6583 10.3775C25.3415 10.0075 24.1105 10.2058 22.9591 10.9368C22.8694 10.9936 22.7772 11.0479 22.6863 11.1047C22.7255 10.9961 22.7331 10.8572 22.8076 10.7827C24.8087 8.77153 26.8161 6.76664 28.8248 4.76301C28.9763 4.61151 29.148 4.47894 29.3096 4.33754C29.528 4.26305 29.7552 4.20624 29.9636 4.11028C30.9168 3.6684 31.9028 3.6987 32.9027 3.88429C31.572 5.25666 30.2438 6.63155 28.9081 7.99886C28.2617 8.66169 27.5976 9.30684 26.9499 9.96714C26.8337 10.0846 26.7555 10.2398 26.6595 10.3775H26.6583Z" fill="#2345C1"/>
<path d="M7.35801 18.9932C7.58905 19.0159 7.84912 18.9768 8.04355 19.0727C8.57507 19.334 8.63065 19.8681 8.19255 20.3087C6.88836 21.6217 5.57659 22.9272 4.26987 24.2364C3.99843 24.5079 3.7333 24.7882 3.29394 24.5963C2.84953 24.4018 2.81544 24.0193 2.84574 23.609C2.89498 23.5294 2.93285 23.4373 2.99724 23.3729C4.44914 21.9109 5.90484 20.4526 7.35927 18.9932H7.35801Z" fill="#48FAFF"/>
<path d="M10.7769 15.4998C10.787 15.5111 10.7959 15.5301 10.8085 15.5338C11.8993 15.847 12.023 16.3684 11.2011 17.1991C10.7933 17.612 10.3843 18.0235 9.9765 18.4351C9.7 18.7154 9.43866 19.0298 8.97153 18.8429C8.48925 18.6498 8.48039 18.2483 8.51448 17.8253C9.26821 17.0501 10.0232 16.2749 10.7769 15.4998Z" fill="#48FAFF"/>
<path d="M22.0122 15.5957C22.1889 15.626 22.3669 15.6853 22.5424 15.6803C23.1042 15.6626 23.4514 16.0275 23.8226 16.3583C24.2493 16.8772 24.5334 17.4339 24.3011 18.1309C23.8781 18.1359 23.454 18.122 23.0323 18.1498C22.6712 18.1725 22.3518 18.1157 22.0955 17.8443C21.641 17.1675 21.9112 16.41 21.8556 15.6891C21.8834 15.6576 21.9099 15.626 21.9364 15.5957C21.9616 15.5957 21.9869 15.597 22.0122 15.5982V15.5957Z" fill="#2446C1"/>
<path d="M32.9015 3.88429C31.9015 3.6987 30.9168 3.6684 29.9623 4.11028C29.754 4.20623 29.5267 4.26305 29.3083 4.33753C29.7388 3.89691 30.1694 3.45629 30.5999 3.01567C30.6415 2.98537 30.6832 2.95381 30.7236 2.92351L30.7185 2.92729C30.7514 2.89447 30.7842 2.86164 30.817 2.82882L30.812 2.83134C30.9016 2.81998 31.0064 2.8326 31.0796 2.7922C32.1566 2.18619 33.2979 2.01701 34.5036 2.28088C34.0011 2.80735 33.4986 3.33256 32.9962 3.85904C32.9646 3.86787 32.933 3.87545 32.9002 3.88429H32.9015Z" fill="#01C5CC"/>
<path d="M21.9364 15.593C21.9086 15.6246 21.8821 15.6561 21.8543 15.6864C21.8581 14.5817 21.8607 13.477 21.8644 12.3723C21.8884 12.3723 21.9137 12.3723 21.9377 12.3761V15.593H21.9364Z" fill="#4A64CD"/>
<path d="M21.9389 12.3762C21.915 12.3724 21.8897 12.3712 21.8657 12.3724C21.8316 11.9457 21.9238 11.5745 22.3202 11.3372C22.218 11.6831 22.117 12.0278 22.0147 12.3737C21.9895 12.375 21.9642 12.3762 21.9389 12.3762Z" fill="#2345C1"/>
<path d="M22.5525 11.2385C22.473 11.2739 22.3922 11.3092 22.3114 11.3446C22.3909 11.3092 22.4717 11.2739 22.5525 11.2385Z" fill="#2345C1"/>
<path d="M30.7249 2.92261C30.6832 2.95291 30.6428 2.98447 30.6011 3.01477C30.6428 2.98447 30.6845 2.95291 30.7249 2.92261Z" fill="#2446C1"/>
<path d="M24.3011 18.1295C24.5334 17.4326 24.2481 16.8758 23.8226 16.3569C24.7203 15.4415 25.6129 14.5212 26.5194 13.6134C27.2264 12.9051 27.9498 12.2145 28.6669 11.5164C29.0457 12.1224 29.4257 12.7296 29.8045 13.3357C29.86 13.6993 29.9345 14.0616 29.9661 14.4265C30.0431 15.314 29.7376 16.1183 29.3967 16.9124L29.403 16.9073C29.3765 16.9364 29.3487 16.9654 29.3222 16.9932C29.0015 17.449 28.72 17.9502 28.1013 18.0714C27.9965 18.0916 27.8943 18.137 27.7895 18.137C26.6267 18.137 25.4639 18.132 24.3011 18.1269V18.1295Z" fill="#FF8918"/>
<path d="M29.3967 16.9138C29.7376 16.1197 30.0431 15.3142 29.9661 14.4279C29.9345 14.0618 29.8588 13.7007 29.8045 13.3371C30.1757 12.9874 30.5456 12.6364 30.9168 12.2867C31.8245 11.3953 32.7373 10.5065 33.6375 9.60761C33.8244 9.42202 33.9708 9.19477 34.1349 8.98771C34.4506 8.67082 34.7662 8.35393 35.0818 8.0383C35.2674 7.87796 35.453 7.71761 35.6399 7.55727C35.7977 7.4285 35.9568 7.29846 36.1146 7.16968C36.4984 8.19737 36.2535 9.17962 35.9063 10.1568C35.8444 10.3298 35.7901 10.5053 35.7333 10.6808L35.7371 10.6782C35.7068 10.7136 35.6765 10.7477 35.6462 10.783C34.1955 12.2362 32.7436 13.6894 31.2943 15.1438C31.1516 15.2877 31.0178 15.4417 30.8801 15.5907C30.5115 15.9518 30.1466 16.3167 29.7704 16.6702C29.6631 16.7712 29.5217 16.8356 29.3954 16.9164L29.3967 16.9138Z" fill="#2547C2"/>
<path d="M29.3209 16.9958C29.3474 16.9667 29.3752 16.9377 29.4017 16.9099C29.3752 16.939 29.3474 16.968 29.3209 16.9958Z" fill="#2547C2"/>
<path d="M32.9961 3.85938C33.4986 3.33291 34.0011 2.80769 34.5036 2.28122C34.5629 2.27617 34.621 2.27112 34.6791 2.26733C36.2863 2.73447 37.2306 3.84928 37.7382 5.39335C37.7319 5.45268 37.7255 5.51329 37.7192 5.57263C37.1877 6.07637 36.6562 6.58012 36.1247 7.08387C35.9302 6.62557 35.7888 6.13319 35.53 5.71403C34.9417 4.76587 34.0263 4.22551 32.9961 3.85938Z" fill="#01D7EB"/>
<path d="M32.9961 3.85913C34.0251 4.22526 34.9417 4.76562 35.53 5.71378C35.7889 6.13294 35.9303 6.62406 36.1247 7.08362C36.1159 7.1114 36.1121 7.14043 36.1133 7.16947C35.9555 7.29825 35.7964 7.42829 35.6386 7.55707C35.6399 7.44723 35.679 7.31845 35.6361 7.23007C35.5199 6.99651 35.4189 6.69603 35.2194 6.57735C34.9429 6.41196 34.5705 6.46372 34.3963 6.78693C34.2826 6.99903 34.2246 7.2932 34.2713 7.52424C34.3533 7.92572 34.7258 7.99769 35.0818 8.03683C34.7662 8.35372 34.4506 8.67061 34.1349 8.98625C34.0945 8.63148 34.0238 8.25777 33.6224 8.17697C33.3913 8.13025 33.0441 8.15677 32.8913 8.3007C31.9318 9.20593 30.9988 10.1402 30.0923 11.0997C29.9459 11.2537 29.8752 11.6287 29.9598 11.8118C30.057 12.0214 30.36 12.1451 30.5898 12.2777C30.6731 12.3244 30.8057 12.2852 30.9155 12.2852C30.5443 12.6349 30.1744 12.9859 29.8032 13.3356C29.4245 12.7296 29.0457 12.1224 28.6657 11.5163C28.1001 10.9533 27.4474 10.5442 26.657 10.3775C26.753 10.2399 26.8312 10.0859 26.9474 9.96723C27.5963 9.30693 28.2591 8.66052 28.9055 7.99895C30.2413 6.63164 31.5695 5.25548 32.9002 3.88438C32.9318 3.87554 32.9633 3.86797 32.9961 3.85913Z" fill="#3D5DF8"/>
<path d="M21.9389 12.3763C21.9642 12.3763 21.9894 12.3763 22.0147 12.3738C22.0147 13.4482 22.0134 14.5213 22.0122 15.5957C21.9869 15.5957 21.9617 15.5945 21.9364 15.5932C21.9364 14.5213 21.9364 13.4482 21.9377 12.3763H21.9389Z" fill="#4F56A8"/>
<path d="M30.9155 12.2854C30.8057 12.2854 30.6731 12.3245 30.5898 12.2778C30.3587 12.1465 30.0557 12.0215 29.9598 11.8119C29.8752 11.6276 29.9459 11.2539 30.0923 11.0998C30.9988 10.1403 31.9318 9.20606 32.8913 8.30082C33.0441 8.1569 33.3913 8.13038 33.6223 8.1771C34.0238 8.2579 34.0945 8.63034 34.1349 8.98638C33.9696 9.19469 33.8244 9.42068 33.6375 9.60754C32.7361 10.5065 31.8245 11.394 30.9168 12.2866L30.9155 12.2854Z" fill="#6989FF"/>
<path d="M35.0806 8.03682C34.7246 7.99768 34.3521 7.92572 34.27 7.52424C34.2233 7.2932 34.2814 6.99777 34.395 6.78692C34.568 6.46245 34.9417 6.41195 35.2182 6.57734C35.4177 6.69728 35.5199 6.9965 35.6348 7.23007C35.6777 7.31718 35.6386 7.44722 35.6373 7.55706C35.4518 7.71741 35.2662 7.87775 35.0793 8.03809L35.0806 8.03682Z" fill="#6989FF"/>
</svg>
