<svg width="40" height="41" viewBox="0 0 40 41" fill="none" xmlns="http://www.w3.org/2000/svg">
<path d="M0.0010376 7.12711V2.12852C0.56351 0.502667 1.75001 -0.0525008 3.40612 0.00385082C5.38156 0.0716815 7.36119 0.017417 9.33975 0.0195041C11.07 0.0215912 12.8002 0.0278524 14.5314 0.0320266C14.4531 0.14473 14.3884 0.272043 14.2935 0.369093C13.8249 0.848082 13.3459 1.31559 12.8784 1.79458C12.7845 1.89059 12.7271 2.02207 12.652 2.13791C12.509 2.08469 12.3661 1.98972 12.222 1.98659C11.5218 1.97094 10.8195 1.97198 10.1193 1.98346C9.85735 1.98764 9.60168 2.09408 9.5996 2.39358C9.59542 3.24616 9.62568 4.09978 9.64237 4.95236C9.59124 5.02645 9.55159 5.11098 9.48897 5.17359C8.70109 5.96564 7.91218 6.75665 7.11908 7.54245C7.05855 7.60193 6.96673 7.6301 6.89055 7.67289C6.75071 7.37339 6.53053 7.16259 6.19137 7.15738C5.61221 7.14903 5.03198 7.1699 4.45176 7.17825C3.61901 7.17825 2.78522 7.17825 1.95247 7.17825C1.30234 7.16051 0.652213 7.14381 0.00208217 7.12607L0.0010376 7.12711ZM5.224 1.9772C4.9245 1.9772 4.62604 1.97511 4.32654 1.9772C3.88929 1.98033 3.68685 2.1713 3.68268 2.60437C3.67642 3.2545 3.67746 3.90464 3.68268 4.55477C3.68685 5.03271 3.83296 5.17985 4.31508 5.18507C4.95268 5.19237 5.58923 5.19029 6.22684 5.18507C6.70061 5.1809 6.88742 5.00036 6.89159 4.53285C6.89785 3.90881 6.89681 3.28477 6.89264 2.65968C6.88951 2.19948 6.66721 1.98346 6.19866 1.97616C5.87307 1.97094 5.54855 1.97616 5.22296 1.97511L5.224 1.9772Z" fill="#585858"/>
<path d="M0.0010376 24.0001V21.1094C0.652212 21.1074 1.30234 21.1053 1.95351 21.1032C2.78626 21.1032 3.62005 21.1032 4.45281 21.1032C4.9318 21.1084 5.41183 21.1167 5.89082 21.1178C6.67139 21.1199 6.88951 20.8966 6.89264 20.1129C6.8989 18.44 6.9062 16.7672 6.9135 15.0955C7.04081 15.0203 7.19003 14.965 7.29334 14.8648C7.83077 14.342 8.35568 13.8056 8.88998 13.2797C8.98077 13.19 9.09766 13.1273 9.29698 12.9844C9.29698 13.4289 9.27609 13.7618 9.3074 14.0884C9.31992 14.221 9.4441 14.3441 9.5182 14.4714C9.5182 16.5022 9.52028 18.5329 9.52133 20.5647C9.40758 20.4948 9.29384 20.4259 9.16131 20.3445C8.41517 21.0927 7.67111 21.8347 6.93123 22.5819C6.76948 22.7447 6.62549 22.9242 6.47313 23.0964C5.823 23.0922 5.17183 23.0849 4.5217 23.0838C3.834 23.0828 3.72963 23.1778 3.66806 23.8456C2.44606 23.8978 1.22408 23.95 0.00312673 24.0011L0.0010376 24.0001Z" fill="#4F4F4F"/>
<path d="M1.95455 21.1032C1.30338 21.1053 0.65325 21.1074 0.0020752 21.1095V7.12695C0.652206 7.14469 1.30233 7.16139 1.95246 7.17913C1.95246 11.8208 1.95455 16.4615 1.9556 21.1032H1.95455Z" fill="#EAF2FF"/>
<path d="M37.9726 37.6059C37.479 38.4512 36.8007 39.1086 35.9085 39.5094C35.441 39.7191 34.938 39.8475 34.4507 40.0134H32.9667C32.5639 39.8819 32.1559 39.7619 31.7583 39.6158C31.0863 39.3695 30.5426 38.9396 30.0834 38.3969C30.2483 38.3636 30.4121 38.3103 30.5791 38.2999C31.9086 38.2154 33.2433 38.1788 34.5686 38.0474C35.5673 37.9482 36.5534 37.7259 37.5469 37.5694C37.6836 37.5475 37.8317 37.5924 37.9737 37.6059H37.9726Z" fill="#473E82"/>
<path d="M20.9441 38.0798C20.1363 39.1598 19.0177 39.7233 17.7331 40.0134H16.2491C15.8254 39.8684 15.3966 39.7327 14.9781 39.5741C14.4031 39.356 13.9095 39.0127 13.5119 38.5389C13.611 38.4836 13.7071 38.3855 13.8083 38.3793C14.9332 38.3166 16.0592 38.2874 17.1831 38.2112C18.3425 38.133 19.4977 38.0077 20.656 37.919C20.7479 37.9117 20.848 38.0224 20.9441 38.0787V38.0798Z" fill="#473E82"/>
<path d="M0.0010376 24.0002C1.22303 23.948 2.44504 23.8959 3.66599 23.8447C3.66599 24.1828 3.66597 24.522 3.66701 24.8601C2.44502 24.8862 1.22303 24.9123 0.0010376 24.9384C0.0010376 24.6263 0.0010376 24.3133 0.0010376 24.0013V24.0002Z" fill="#464646"/>
<path d="M0.0010376 24.9374C1.22303 24.9113 2.44502 24.8852 3.66701 24.8591C3.66701 25.119 3.66701 25.3799 3.66806 25.6397C2.64329 25.6397 1.61853 25.6449 0.594811 25.6355C0.327662 25.6334 0.108523 25.6762 0.0010376 25.9517C0.0010376 25.6136 0.0010376 25.2745 0.0010376 24.9364V24.9374Z" fill="#3C3C3C"/>
<path d="M0.00104457 25.9527C0.109574 25.6772 0.327669 25.6345 0.594818 25.6365C1.61958 25.6459 2.64434 25.6407 3.66806 25.6407C3.74842 25.8463 3.82878 26.0508 3.90913 26.2564C3.7766 26.2856 3.64511 26.3389 3.51153 26.3399C2.69756 26.3472 1.88256 26.3368 1.06859 26.3472C0.761789 26.3514 0.456024 26.3973 0.14922 26.4244C0.09913 26.3451 0.0500903 26.2668 0 26.1875C0 26.1093 0 26.031 0 25.9527H0.00104457Z" fill="#343434"/>
<path d="M14.451 28.2714C13.5797 28.2767 12.7073 28.285 11.8359 28.286C8.72508 28.2892 5.61323 28.3121 2.50345 28.2767C1.58826 28.2662 0.86821 27.7768 0.389221 26.9753C0.548884 26.9472 0.708557 26.894 0.869264 26.894C4.86501 26.8898 8.86075 26.8908 12.8565 26.8887C13.012 26.8887 13.1706 26.8908 13.3219 26.8606C14.1014 26.704 14.594 27.159 14.4667 27.9208C14.4479 28.0356 14.4573 28.1546 14.4531 28.2714H14.451Z" fill="#212121"/>
<path d="M12.1709 36.0345C12.1459 35.5618 12.1208 35.0901 12.0947 34.6174C12.2377 34.5464 12.412 34.5057 12.5195 34.3993C13.9324 32.9999 15.3391 31.5942 16.7385 30.1812C16.8669 30.0508 16.9326 29.8577 17.0276 29.6939C17.7153 29.3923 18.3915 29.0594 19.0949 28.8027C19.4152 28.6858 19.7732 28.7693 20.0351 29.0584C20.0821 29.1095 20.1676 29.1252 20.2354 29.1575C20.4494 29.3892 20.6633 29.6198 20.8772 29.8515C20.6957 29.9381 20.4776 29.9861 20.3388 30.1176C19.7001 30.727 19.075 31.3521 18.4656 31.9908C18.3341 32.1285 18.2851 32.3466 18.1984 32.5271C17.6443 32.3842 17.1111 32.2548 16.5069 32.3351C15.073 32.5261 13.9126 34.2093 14.2841 35.64C13.5797 35.7715 12.8753 35.903 12.1709 36.0356V36.0345Z" fill="#875CC1"/>
<path d="M14.4511 28.2716C14.4552 28.1547 14.4448 28.0358 14.4647 27.921C14.593 27.1592 14.0994 26.7042 13.3199 26.8607C13.1685 26.891 13.0099 26.8889 12.8544 26.8889C8.85869 26.89 4.86295 26.8889 0.867206 26.8941C0.707543 26.8941 0.54787 26.9474 0.387163 26.9755C0.307853 26.7919 0.228541 26.6082 0.149231 26.4235C0.456034 26.3964 0.7618 26.3505 1.0686 26.3463C1.88257 26.3358 2.69757 26.3463 3.51154 26.339C3.64407 26.3379 3.77661 26.2847 3.90914 26.2555C4.46535 26.2659 5.02156 26.2931 5.57777 26.2826C5.95762 26.2753 6.33749 26.2169 6.71735 26.1814C6.81648 26.2346 6.91561 26.3338 7.01579 26.3348C7.83497 26.3473 8.65416 26.3452 9.47335 26.3379C9.59857 26.3369 9.72381 26.2878 9.84799 26.2607C10.7298 26.2576 11.6126 26.2555 12.4944 26.2524C12.6384 26.3077 12.7793 26.3911 12.9285 26.4141C13.4712 26.4955 14.019 26.5508 14.5627 26.628C15.2463 26.7261 15.9329 26.8618 16.6112 26.6395C16.7479 26.5946 16.8398 26.412 16.9525 26.2931C17.3427 26.291 17.733 26.2899 18.1233 26.2878C18.0972 26.9505 18.0711 27.6121 18.045 28.2748C16.8471 28.2727 15.648 28.2706 14.45 28.2685L14.4511 28.2716Z" fill="#292929"/>
<path d="M20.9441 38.0798C20.848 38.0235 20.7468 37.9129 20.656 37.9202C19.4977 38.0099 18.3414 38.1341 17.1831 38.2124C16.0592 38.2886 14.9332 38.3178 13.8083 38.3804C13.7071 38.3856 13.61 38.4847 13.5119 38.54C13.1978 38.0945 12.8847 37.6499 12.5706 37.2043C12.9933 37.1521 13.419 37.1187 13.8365 37.0405C14.1631 36.9799 14.5513 37.0906 14.7923 36.7451C15.5343 37.628 16.4474 38.0099 17.6078 37.7543C18.3999 37.58 18.9707 37.1166 19.4424 36.4926C19.7075 36.4383 19.9746 36.3924 20.2365 36.3288C20.8376 36.1816 21.4376 36.0261 22.0377 35.8738C21.6735 36.6084 21.3093 37.3441 20.9451 38.0788L20.9441 38.0798Z" fill="#4F428A"/>
<path d="M18.0461 28.2777C18.0722 27.615 18.0983 26.9534 18.1243 26.2907C18.5115 26.2302 18.6566 25.9683 18.6618 25.6135C18.6701 24.9414 18.6659 24.2704 18.668 23.5984L19.3735 24.7035C19.8932 25.6156 20.4129 26.5266 20.9326 27.4386C21.0651 27.6964 21.1976 27.9542 21.3301 28.213C21.326 28.2349 21.3249 28.2578 21.326 28.2797C21.2728 28.2891 21.2195 28.2985 21.1663 28.309C20.1269 28.2985 19.0875 28.2881 18.0482 28.2787L18.0461 28.2777Z" fill="#212121"/>
<path d="M17.0265 29.6941C16.9316 29.8579 16.8669 30.051 16.7375 30.1814C15.3381 31.5944 13.9324 33.0011 12.5184 34.3995C12.4109 34.5059 12.2367 34.5466 12.0937 34.6176C12.3149 32.6181 13.3731 31.2427 15.2087 30.4528C15.8119 30.1929 16.4192 29.9466 17.0255 29.6941H17.0265Z" fill="#9262CB"/>
<path d="M21.1642 28.3078C21.2174 28.2984 21.2706 28.289 21.3238 28.2786C21.3458 28.2911 21.3687 28.2953 21.3938 28.2921C21.5023 28.4487 21.6098 28.6062 21.7183 28.7628C21.7976 28.9183 21.8759 29.0738 21.9552 29.2292C22.1044 29.3858 22.2442 29.6654 22.4039 29.6769C22.886 29.7124 23.3754 29.6477 23.8617 29.6101C23.9035 29.607 23.9379 29.5246 23.9765 29.4797L24.0141 29.4734H24.0517C24.1018 29.5037 24.1508 29.5319 24.2009 29.5611C24.3126 29.7374 24.4232 29.9138 24.5348 30.0902C23.94 30.1434 23.3452 30.1956 22.7504 30.2488C22.7431 30.301 22.7347 30.3542 22.7274 30.4064C22.9758 30.5556 23.2325 30.6944 23.4704 30.8603C23.5821 30.9386 23.6572 31.069 23.7491 31.1755C23.5664 31.261 23.3849 31.3456 23.2022 31.4301C23.1553 31.3414 23.1219 31.2412 23.0593 31.165C22.3517 30.3083 21.64 29.4546 20.9294 28.6C21.0076 28.5019 21.0859 28.4038 21.1642 28.3067V28.3078Z" fill="#B2CBED"/>
<path d="M14.7913 36.745C14.5502 37.0904 14.162 36.9788 13.8354 37.0403C13.418 37.1186 12.9922 37.1509 12.5696 37.2042C12.4746 36.9694 12.3796 36.7356 12.2836 36.5008C13.0037 36.3965 13.7237 36.2921 14.4438 36.1877C14.5596 36.3735 14.6744 36.5603 14.7902 36.746L14.7913 36.745Z" fill="#6B4FA5"/>
<path d="M14.4448 36.1868C13.7248 36.2911 13.0047 36.3955 12.2847 36.4998C12.2471 36.3444 12.2096 36.1899 12.171 36.0344C12.8754 35.9029 13.5798 35.7714 14.2841 35.6389C14.3374 35.8215 14.3916 36.0031 14.4448 36.1857V36.1868Z" fill="#7B56B5"/>
<path d="M23.0499 31.5868C22.9967 31.6609 22.9435 31.735 22.8903 31.8081C22.7911 31.7277 22.693 31.6474 22.5939 31.5681C22.3215 31.2748 22.0491 30.9826 21.7778 30.6894C21.5848 30.2793 21.4115 29.8577 21.1924 29.4622C21.0651 29.2326 20.8647 29.0448 20.6978 28.8381C20.7499 28.7849 20.8021 28.7317 20.8553 28.6785C20.8856 28.7484 20.9023 28.8277 20.9472 28.8851C21.6463 29.7878 22.3497 30.6863 23.052 31.5868H23.0499Z" fill="#C5DBF5"/>
<path d="M20.6956 28.8381C20.8626 29.0448 21.064 29.2326 21.1903 29.4622C21.4094 29.8577 21.5837 30.2793 21.7757 30.6894C21.4752 30.4097 21.1746 30.1311 20.8751 29.8514C20.6612 29.6198 20.4473 29.3891 20.2333 29.1575C20.3878 29.051 20.5412 28.9446 20.6956 28.8381Z" fill="#D3E9FD"/>
<path d="M23.0499 31.5868C22.3476 30.6873 21.6442 29.7878 20.945 28.8851C20.9002 28.8277 20.8835 28.7473 20.8532 28.6785C20.8793 28.6534 20.9043 28.6273 20.9304 28.6023C21.6411 29.457 22.3528 30.3106 23.0603 31.1673C23.1229 31.2435 23.1563 31.3437 23.2033 31.4324C23.1522 31.4846 23.101 31.5357 23.0499 31.5879V31.5868Z" fill="#BCD4F1"/>
<path d="M9.51822 14.4706C9.44413 14.3433 9.31994 14.2212 9.30742 14.0876C9.27611 13.761 9.297 13.4292 9.297 12.9836C9.09768 13.1265 8.98079 13.1902 8.89 13.2789C8.3557 13.8048 7.83184 14.3412 7.29337 14.864C7.19006 14.9642 7.04188 15.0185 6.91353 15.0947C6.90622 14.9402 6.8937 14.7847 6.8937 14.6303C6.89162 12.3115 6.89057 9.99276 6.88953 7.674C6.96675 7.63121 7.05858 7.60304 7.11806 7.54356C7.91115 6.75672 8.70007 5.96675 9.48795 5.1747C9.55057 5.11209 9.59126 5.02756 9.64135 4.95347C9.82188 5.03173 9.99931 5.17053 10.1819 5.17887C10.83 5.20705 11.479 5.19557 12.1281 5.18827C12.5842 5.18305 12.7824 4.98164 12.7887 4.51935C12.796 3.98714 12.8064 3.45493 12.7856 2.92377C12.7751 2.66079 12.6979 2.40095 12.652 2.14006C12.7261 2.02423 12.7845 1.89274 12.8784 1.79673C13.346 1.3167 13.826 0.849191 14.2935 0.371246C14.3885 0.274196 14.4532 0.147926 14.5314 0.0341797C17.6036 0.0341797 20.6759 0.0341797 23.7491 0.0341797C23.6708 0.146883 23.6061 0.273152 23.5112 0.371246C23.1167 0.777186 22.7066 1.16852 22.3174 1.57863C22.2203 1.6809 22.1765 1.83534 22.1086 1.96579C21.4209 1.95327 21.3114 2.25694 21.3166 2.7568C21.1945 2.81732 21.0463 2.85072 20.9545 2.94151C19.673 4.2115 18.3967 5.48672 17.1278 6.76924C17.038 6.86003 17.0099 7.01239 16.9525 7.13553C16.7855 7.14179 16.6185 7.15327 16.4515 7.15535C15.4977 7.16579 14.545 7.17414 13.5912 7.18353C12.5664 7.17414 11.5427 7.16057 10.5179 7.1564C9.71233 7.15222 9.5318 7.33589 9.53075 8.12794C9.52658 10.2432 9.52239 12.3595 9.51822 14.4748V14.4706ZM17.0443 5.18409C17.0443 5.18409 17.0443 5.18618 17.0443 5.18827C17.3699 5.18827 17.6955 5.19244 18.02 5.18827C18.4333 5.182 18.6597 4.95869 18.6649 4.53709C18.6722 3.89948 18.6733 3.26188 18.6649 2.62427C18.6587 2.18598 18.4583 1.9877 18.0158 1.98248C17.3521 1.97414 16.6885 1.98562 16.0248 1.97831C15.6533 1.97414 15.4664 2.16302 15.4612 2.51574C15.4508 3.24414 15.4518 3.97358 15.4633 4.70197C15.4685 5.00251 15.6407 5.17887 15.9496 5.18514C16.3138 5.19244 16.678 5.18722 17.0422 5.18722L17.0443 5.18409Z" fill="#535353"/>
<path d="M1.95455 21.1035C1.95455 16.4618 1.95246 11.8211 1.95142 7.17944C2.78417 7.17944 3.61796 7.17944 4.45071 7.17944C4.45071 11.8201 4.4528 16.4618 4.45384 21.1025C3.62109 21.1025 2.7873 21.1025 1.95455 21.1025V21.1035Z" fill="#E2EFFE"/>
<path d="M4.45388 21.1033C4.45388 16.4626 4.45179 11.8209 4.45074 7.18028C5.03096 7.17193 5.61119 7.15106 6.19036 7.15941C6.52951 7.16462 6.74969 7.37542 6.88953 7.67492C6.89057 9.99368 6.89162 12.3124 6.89371 14.6312C6.89371 14.7857 6.90727 14.9411 6.91353 15.0956C6.90622 16.7684 6.89893 18.4412 6.89266 20.113C6.88953 20.8967 6.67142 21.12 5.89085 21.1179C5.41186 21.1169 4.93182 21.1085 4.45283 21.1033H4.45388Z" fill="#D7EAFD"/>
<path d="M30.5436 29.1606C31.0414 28.6753 31.5861 28.7056 32.1726 28.9852C32.7685 29.2691 33.3779 29.5258 33.9811 29.794C33.9018 29.9077 33.836 30.0371 33.74 30.1342C32.0881 31.7924 30.4319 33.4475 28.7748 35.1004C28.684 35.1902 28.5744 35.2611 28.4732 35.3405C28.1351 34.5807 27.7855 33.8252 27.463 33.0582C27.3211 32.7201 27.4662 32.4029 27.6436 32.1075C27.7031 32.0094 27.7636 31.9124 27.8241 31.8143C28.156 31.5002 28.4889 31.1871 28.8207 30.873C29.0346 30.6466 29.2486 30.4212 29.4615 30.1947C29.5919 30.0653 29.7234 29.9349 29.8538 29.8055C30.0031 29.6656 30.1533 29.5258 30.3026 29.386C30.3829 29.3108 30.4632 29.2346 30.5436 29.1595V29.1606Z" fill="#9262CB"/>
<path d="M22.5939 31.5681C22.693 31.6485 22.7911 31.7288 22.8903 31.8092C23.2774 32.2151 23.4152 32.6941 23.2002 33.2159C22.8308 34.1102 22.4259 34.9899 22.0366 35.8748C21.4366 36.0272 20.8376 36.1827 20.2355 36.3298C19.9725 36.3935 19.7064 36.4394 19.4413 36.4937C19.8024 35.7434 19.8535 34.9617 19.6761 34.1572C19.8014 34.0737 19.9433 34.0069 20.0487 33.9036C20.7583 33.2044 21.4564 32.4927 22.1702 31.7967C22.2808 31.6892 22.4509 31.6433 22.5939 31.5681Z" fill="#6B4FA5"/>
<path d="M37.9727 37.606C37.8297 37.5925 37.6825 37.5486 37.5458 37.5695C36.5524 37.726 35.5662 37.9483 34.5675 38.0475C33.2422 38.1789 31.9086 38.2155 30.5781 38.3C30.4111 38.3104 30.2483 38.3637 30.0824 38.397C29.8184 38.0005 29.5543 37.6029 29.2903 37.2064C29.3842 37.1792 29.4771 37.1417 29.5731 37.126C30.2274 37.0196 30.8828 36.9173 31.5381 36.814C33.0408 38.6172 35.68 37.8565 36.3364 36.0313C36.8153 35.8289 37.3131 35.6609 37.766 35.4115C38.0937 35.2309 38.3619 34.9429 38.6572 34.7029C38.7156 35.7381 38.4976 36.7086 37.9716 37.606H37.9727Z" fill="#4F428A"/>
<path d="M28.4732 35.3404C28.5745 35.2611 28.6851 35.1912 28.7748 35.1004C30.432 33.4474 32.0881 31.7923 33.74 30.1341C33.8371 30.0371 33.9018 29.9087 33.9811 29.7939C34.3724 29.9703 34.7637 30.1456 35.154 30.322C34.6385 30.8521 34.1188 31.3791 33.6085 31.9144C33.5063 32.0219 33.4395 32.1628 33.357 32.2891C33.0053 32.4164 32.6266 32.4957 32.3072 32.6794C31.5319 33.125 31.1019 33.8356 30.9204 34.7028C30.817 34.7456 30.6751 34.7581 30.6167 34.8353C30.1262 35.4771 29.4416 35.7422 28.6819 35.8747C28.612 35.6963 28.5421 35.5189 28.4732 35.3404Z" fill="#875CC1"/>
<path d="M28.8207 30.8731C28.4889 31.1872 28.156 31.5003 27.8242 31.8144C27.5362 31.3698 27.1584 31.1215 26.598 31.1716C26.2526 31.2029 25.9009 31.1632 25.5524 31.1559C25.2132 30.8011 24.8741 30.4463 24.536 30.0915C24.4243 29.9151 24.3137 29.7388 24.202 29.5624L24.2239 29.5374C24.7593 29.6782 25.28 29.6438 25.784 29.408C26.0251 30.2574 26.7326 30.8815 27.7073 30.8042C28.0746 30.775 28.4503 30.847 28.8218 30.8731H28.8207Z" fill="#8AAADC"/>
<path d="M31.5392 36.8142C30.8838 36.9175 30.2284 37.0197 29.5741 37.1262C29.4781 37.1418 29.3853 37.1794 29.2913 37.2065C29.1421 36.8674 28.9929 36.5272 28.8437 36.188C29.0096 36.1692 29.1755 36.1546 29.3404 36.1296C29.8997 36.0461 30.4591 35.9584 31.0174 35.8718C31.1917 36.1859 31.3649 36.5 31.5392 36.8142Z" fill="#6B4FA5"/>
<path d="M24.5359 30.0916C24.8751 30.4464 25.2132 30.8012 25.5523 31.156C24.9512 31.1633 24.3512 31.1706 23.7501 31.1768C23.6583 31.0704 23.5831 30.94 23.4715 30.8617C23.2335 30.6958 22.9779 30.558 22.7285 30.4078C22.7358 30.3556 22.7441 30.3024 22.7514 30.2502C23.3463 30.197 23.9411 30.1448 24.5359 30.0916Z" fill="#A2BEE8"/>
<path d="M31.0174 35.8717C30.458 35.9583 29.8997 36.0459 29.3404 36.1294C29.1755 36.1545 29.0085 36.168 28.8437 36.1879C28.7904 36.0835 28.7362 35.9791 28.683 35.8748C29.4427 35.7423 30.1272 35.4772 30.6177 34.8354C30.6761 34.7582 30.8181 34.7457 30.9214 34.7029C30.9537 35.0921 30.9861 35.4824 31.0184 35.8717H31.0174Z" fill="#7B56B5"/>
<path d="M39.2416 0.887762C39.7968 1.4878 39.9804 2.22872 39.9909 3.01243C40.0086 4.38469 39.995 5.75696 39.995 7.12818C39.8542 7.13549 39.7143 7.14905 39.5734 7.15114C38.8294 7.16158 38.0843 7.16993 37.3403 7.17932C36.5075 7.17932 35.6737 7.17932 34.841 7.17932C34.5696 7.16993 34.2973 7.1501 34.0259 7.15427C33.2704 7.16575 33.093 7.3202 33.0951 8.07886C33.1086 12.1195 33.1013 16.1601 33.1024 20.2007C33.1024 20.3437 33.1066 20.4877 33.1285 20.6275C33.1765 20.9322 33.3664 21.1013 33.6722 21.1086C34.0614 21.118 34.4507 21.1055 34.8399 21.1023C35.6727 21.1023 36.5065 21.1023 37.3392 21.1023C38.1991 21.1117 39.0579 21.1211 39.9178 21.1305C39.9387 21.1493 39.9596 21.1681 39.9804 21.1869C39.9804 22.2283 39.9815 23.2698 39.9825 24.3123L36.3291 23.921C36.2727 23.2134 36.1329 23.084 35.4274 23.0851C34.8587 23.0851 34.2899 23.0851 33.7212 23.0893C33.4154 23.0913 33.1692 23.1894 33.1013 23.5307C32.9751 23.5067 32.8426 23.5015 32.7246 23.4566C30.9903 22.7856 29.258 22.1115 27.5288 21.4269C27.4203 21.3841 27.3504 21.2422 27.2627 21.1462C27.8617 21.1326 28.4607 21.1201 29.0597 21.1065C29.2663 21.1107 29.4729 21.1222 29.6795 21.119C30.1366 21.1128 30.3193 20.9583 30.4518 20.4814C30.4518 20.2216 30.4528 19.9607 30.4539 19.7009V18.9192C30.458 18.5811 30.4653 18.243 30.4664 17.9049C30.4716 15.6915 30.4758 13.4792 30.48 11.2659C30.7836 10.9778 30.6229 10.6074 30.6073 10.2912C30.5791 9.73184 30.7888 9.32798 31.1729 8.95231C32.2947 7.85136 33.4029 6.73477 34.5091 5.61713C34.6197 5.50547 34.6802 5.34476 34.7648 5.20597C35.0632 5.19971 35.3617 5.19449 35.6601 5.18718C36.0807 5.17675 36.3009 4.96595 36.3165 4.5454C36.328 4.26051 36.328 3.97458 36.3332 3.68865C36.447 3.61142 36.5764 3.54881 36.6734 3.45385C37.3726 2.76302 38.0655 2.06697 38.7605 1.37197C38.9223 1.21022 39.083 1.04847 39.2437 0.886719L39.2416 0.887762Z" fill="#464646"/>
<path d="M16.9514 7.13229C17.0088 7.00915 17.037 6.85679 17.1268 6.766C18.3957 5.48452 19.672 4.20826 20.9534 2.93827C21.0453 2.84748 21.1934 2.81304 21.3155 2.75356C21.3197 3.35255 21.3228 3.95051 21.3301 4.5495C21.3364 5.03267 21.4752 5.18294 21.9448 5.18711C22.596 5.19337 23.2461 5.19337 23.8973 5.18711C24.346 5.18294 24.5349 4.99614 24.5391 4.55055C24.5453 3.92546 24.5432 3.30038 24.5401 2.67633C24.538 2.18691 24.3283 1.98342 23.8253 1.9782C23.2524 1.97194 22.6805 1.96777 22.1076 1.96359C22.1754 1.83315 22.2193 1.67975 22.3163 1.57643C22.7056 1.16632 23.1157 0.774989 23.5101 0.369049C23.6051 0.271999 23.6698 0.145729 23.7481 0.0319824C26.7681 0.0319824 29.7891 0.0319824 32.8092 0.0319824C32.7393 0.162426 32.6955 0.316871 32.5963 0.419139C32.0025 1.02961 31.3983 1.63174 30.7899 2.22761C30.6939 2.32153 30.5593 2.37475 30.4424 2.44675C30.2932 2.10343 30.0459 1.95524 29.6598 1.9709C29.0649 1.99594 28.4691 1.97403 27.8732 1.9782C27.4005 1.98133 27.2168 2.15456 27.2095 2.62833C27.2001 3.27533 27.2012 3.92337 27.2105 4.57037C27.2147 4.86987 27.3045 5.12972 27.6541 5.19337C27.5831 5.32277 27.5351 5.47409 27.437 5.5774C27.0457 5.98856 26.6345 6.37989 26.24 6.78792C26.1461 6.88497 26.0877 7.01541 26.0136 7.1302C25.8727 7.13646 25.7318 7.1469 25.591 7.14898C24.872 7.15942 24.153 7.16777 23.434 7.17716C22.9571 7.16777 22.4791 7.15003 22.0022 7.15107C20.8908 7.1542 19.7805 7.16777 18.6691 7.17612C18.0972 7.16046 17.5254 7.14481 16.9525 7.1302L16.9514 7.13229Z" fill="#4E4E4E"/>
<path d="M26.0136 7.13223C26.0887 7.01744 26.1471 6.88595 26.24 6.78995C26.6345 6.38192 27.0456 5.99059 27.437 5.57943C27.535 5.47612 27.5831 5.3248 27.654 5.1954C28.3407 5.19332 29.0273 5.19332 29.715 5.18914C30.2556 5.18601 30.4257 5.01696 30.432 4.46909C30.4393 3.79496 30.4392 3.12187 30.4424 2.44774C30.5593 2.37573 30.6949 2.32251 30.7899 2.22859C31.3983 1.63168 32.0025 1.0306 32.5963 0.420125C32.6954 0.3189 32.7392 0.163412 32.8091 0.032968C34.2732 0.0287938 35.7384 -0.00773036 37.2014 0.032968C37.9664 0.053839 38.7156 0.237504 39.2405 0.888678C39.0798 1.05043 38.9191 1.21218 38.7574 1.37393C38.0624 2.06893 37.3694 2.76602 36.6703 3.45581C36.5732 3.55077 36.4449 3.61338 36.3301 3.69061C36.3249 3.32849 36.3259 2.96534 36.3123 2.60323C36.2967 2.18685 36.1005 1.98649 35.6852 1.98023C35.011 1.97084 34.3369 1.97397 33.6628 1.98023C33.3184 1.98336 33.1024 2.13781 33.1034 2.51244C33.1045 3.23875 33.1118 3.96402 33.1034 4.69033C33.0993 5.03887 33.2819 5.17453 33.597 5.18392C33.9852 5.1954 34.3734 5.19958 34.7616 5.20793C34.6782 5.34567 34.6166 5.50742 34.5059 5.61908C33.3998 6.73672 32.2926 7.85332 31.1697 8.95427C30.7857 9.33099 30.576 9.7338 30.6041 10.2931C30.6198 10.6104 30.7805 10.9808 30.4768 11.2678C30.4726 10.1773 30.4695 9.0868 30.4632 7.99629C30.4601 7.49434 30.2097 7.16875 29.7526 7.15936C28.9491 7.14267 28.1455 7.1698 27.341 7.17815C26.8974 7.16249 26.455 7.14684 26.0115 7.13119L26.0136 7.13223Z" fill="#494949"/>
<path d="M39.9178 21.1316C39.058 21.1222 38.1991 21.1128 37.3392 21.1034C37.3392 16.4617 37.3392 11.821 37.3392 7.17931C38.0833 7.16992 38.8284 7.16157 39.5724 7.15113C39.7133 7.14904 39.8531 7.13652 39.994 7.12817C39.9919 11.7928 39.9898 16.4575 39.9888 21.1211C39.9637 21.1128 39.9398 21.1159 39.9168 21.1316H39.9178Z" fill="#D7EAFD"/>
<path d="M39.6872 26.7416C39.3574 27.591 38.6802 28.0658 37.837 28.1973C37.0439 28.3215 36.2226 28.2777 35.4128 28.2892C34.7272 28.2996 34.0406 28.2829 33.355 28.2777C33.3226 27.9323 33.0074 27.9156 32.7883 27.8404C31.5079 27.4032 30.217 26.9952 28.9334 26.5631C28.827 26.5276 28.755 26.3857 28.6673 26.2939C28.9887 26.2876 29.3091 26.2772 29.6305 26.2762C30.2765 26.272 30.361 26.1979 30.4195 25.5645C30.5833 25.5832 30.7492 25.5947 30.911 25.6229C31.6508 25.7544 32.3907 25.8911 33.1295 26.0257C33.3122 26.2281 33.5355 26.2897 33.8089 26.2835C34.4903 26.2688 35.1718 26.2835 35.8532 26.2845C35.9711 26.3555 36.087 26.4828 36.207 26.488C37.214 26.5297 38.2221 26.5423 39.2291 26.5819C39.3835 26.5882 39.5338 26.6842 39.6851 26.7384L39.6872 26.7416Z" fill="#292929"/>
<path d="M38.6582 34.7029C38.3629 34.9429 38.0947 35.2309 37.7671 35.4114C37.3142 35.6608 36.8164 35.8289 36.3374 36.0313C36.3854 35.784 36.4501 35.5398 36.4783 35.2904C36.5659 34.514 36.3009 33.8388 35.8542 33.221C35.9388 33.0968 36.0097 32.958 36.111 32.8495C36.4898 32.4436 36.879 32.046 37.2651 31.6453C38.0488 32.3257 38.389 33.2356 38.5904 34.2155C38.6238 34.3762 38.6363 34.5401 38.6582 34.7029Z" fill="#6B4FA5"/>
<path d="M36.3291 23.9219L39.9825 24.3132C39.9867 24.7525 39.9982 25.1919 39.9919 25.6312C39.9909 25.7387 39.9355 25.8462 39.9053 25.9537C38.7031 25.8984 37.501 25.843 36.2988 25.7867C36.3092 25.1647 36.3186 24.5438 36.3291 23.9219Z" fill="#3C3C3C"/>
<path d="M37.2651 31.6452C36.8801 32.046 36.4908 32.4425 36.111 32.8495C36.0097 32.958 35.9388 33.0968 35.8542 33.221C35.1624 32.5343 34.3317 32.2213 33.3581 32.2891C33.4405 32.1639 33.5073 32.022 33.6096 31.9145C34.1199 31.3791 34.6385 30.8521 35.1551 30.322C35.9649 30.5933 36.712 30.9638 37.2651 31.6452Z" fill="#7B56B5"/>
<path d="M28.6684 26.295C28.756 26.3868 28.828 26.5277 28.9345 26.5642C30.217 26.9963 31.5079 27.4032 32.7893 27.8415C33.0085 27.9167 33.3236 27.9323 33.356 28.2788C32.1069 28.2882 30.8577 28.2965 29.6097 28.3059C28.9564 27.6547 28.3031 27.0036 27.6499 26.3524C27.6572 26.3294 27.6603 26.3065 27.6603 26.2825C27.9963 26.2866 28.3334 26.2908 28.6694 26.295H28.6684Z" fill="#212121"/>
<path d="M27.6488 26.3524C28.3021 27.0036 28.9553 27.6548 29.6086 28.3059C29.7401 28.4833 29.8705 28.6618 30.002 28.8392C29.4834 28.9415 28.9574 29.099 28.5337 28.6002C28.4972 28.5574 28.4179 28.5522 28.3584 28.5293C28.2551 28.4239 28.1528 28.3195 28.0495 28.2141C27.9723 28.1369 27.8951 28.0597 27.8179 27.9824C27.6885 27.852 27.558 27.7205 27.4286 27.5901C27.1657 27.3302 26.9016 27.0693 26.6387 26.8095L26.6407 26.8137C26.6094 26.7615 26.5781 26.7093 26.5468 26.6571C26.5291 26.63 26.5124 26.6029 26.4946 26.5757C26.5729 26.4693 26.6585 26.366 26.7284 26.2543C26.8286 26.0947 26.9173 25.9287 27.0112 25.7649C27.054 25.7983 27.0978 25.8306 27.1406 25.864C27.1813 25.8974 27.2209 25.9308 27.2616 25.9653C27.3629 26.0654 27.4641 26.1656 27.5643 26.2648C27.5924 26.294 27.6206 26.3221 27.6488 26.3514V26.3524Z" fill="#D3E9FD"/>
<path d="M36.2988 25.7869C37.501 25.8422 38.7031 25.8975 39.9053 25.9538C39.8323 26.2168 39.7592 26.4787 39.6872 26.7417C39.5349 26.6874 39.3846 26.5904 39.2312 26.5852C38.2242 26.5455 37.2161 26.533 36.2091 26.4913C36.088 26.486 35.9732 26.3587 35.8553 26.2878C36.0035 26.1208 36.1517 25.9538 36.2999 25.7879L36.2988 25.7869Z" fill="#343434"/>
<path d="M28.3584 28.5293C28.4179 28.5523 28.4972 28.5575 28.5337 28.6003C28.9574 29.098 29.4834 28.9415 30.002 28.8392C30.1826 28.9467 30.3631 29.0532 30.5436 29.1606C30.4633 29.2368 30.3829 29.312 30.3026 29.3881C29.929 29.3631 29.5564 29.3245 29.1828 29.3161C28.6099 29.3036 28.395 29.1085 28.3574 28.5303L28.3584 28.5293Z" fill="#C5DBF5"/>
<path d="M39.9178 21.1314C39.9397 21.1157 39.9637 21.1126 39.9898 21.121C39.994 21.1439 39.9909 21.1658 39.9804 21.1877C39.9596 21.169 39.9387 21.1502 39.9178 21.1314Z" fill="#585858"/>
<path d="M9.51819 14.4706C9.52236 12.3553 9.52655 10.239 9.53072 8.12371C9.53177 7.33062 9.7123 7.14799 10.5179 7.15217C11.5427 7.15739 12.5664 7.16991 13.5912 7.1793C13.5912 9.2831 13.5912 11.3858 13.5912 13.571C14.1818 13.2674 14.6222 13.5543 15.0782 13.7672C15.2348 13.9238 15.3902 14.0792 15.5468 14.2358L15.7816 14.4695C16.1197 14.8087 16.4578 15.1468 16.7959 15.4859C17.1601 15.8512 17.5243 16.2154 17.8895 16.5806C18.2016 16.8937 18.5146 17.2068 18.8266 17.5198C19.1658 17.8579 19.5039 18.196 19.8431 18.5342C19.937 18.6396 20.0299 18.747 20.1259 18.8503C20.4577 19.2093 20.7896 19.5673 21.1214 19.9252C21.064 20.0369 20.9878 20.1423 20.9513 20.2591C20.5266 21.6241 20.1123 22.9932 19.6792 24.3551C19.6364 24.4897 19.4789 24.5878 19.3755 24.7026C19.1407 24.3342 18.9059 23.9658 18.6701 23.5975C18.5918 23.4701 18.5136 23.3439 18.4353 23.2166C18.4144 23.1487 18.4051 23.0746 18.3706 23.0141C18.0868 22.5059 17.7977 22.0008 17.5107 21.4947C17.4304 21.3653 17.3511 21.2349 17.2707 21.1055C16.9806 20.5868 16.6894 20.0682 16.3993 19.5506C16.1948 19.2072 15.9913 18.8639 15.7868 18.5206C15.6042 18.2086 15.4215 17.8976 15.2389 17.5856C15.2055 17.4906 15.1857 17.3883 15.1377 17.3017C14.8862 16.8509 14.6284 16.4043 14.3728 15.9566C14.1651 15.6174 13.9575 15.2783 13.7508 14.9391C13.6893 14.6375 13.6277 14.3349 13.5619 14.0135C13.2875 14.0782 13.299 14.3401 13.2885 14.5509C13.2478 15.3242 13.2238 16.0996 13.2061 16.8739C13.1748 18.2837 13.1518 19.6925 13.1257 21.1023C12.15 21.1075 11.1743 21.1128 10.1986 21.1159C9.82291 21.1169 9.60481 20.9207 9.52132 20.5618C9.52132 18.531 9.51923 16.5003 9.51819 14.4685V14.4706Z" fill="#EAF2FF"/>
<path d="M9.52031 20.5639C9.60379 20.9229 9.82189 21.1191 10.1976 21.1181C11.1733 21.1149 12.149 21.1087 13.1247 21.1045C13.2552 21.1045 13.3856 21.1045 13.515 21.1045C13.6976 21.1045 13.8792 21.1045 14.0618 21.1055C14.2184 21.117 14.3749 21.1285 14.5304 21.14C14.5043 21.7724 14.4959 22.4048 14.4438 23.0351C14.4145 23.3899 14.2413 23.6873 13.8437 23.7447C13.5004 23.7937 13.1529 23.8115 12.8064 23.8428C12.7344 23.2229 12.5717 23.081 11.9299 23.081C11.5156 23.081 11.1023 23.081 10.688 23.081C10.0049 23.081 9.62501 23.4128 9.54849 24.0765C8.97349 24.1026 8.39745 24.1256 7.82245 24.1579C7.51669 24.1746 7.21302 24.208 6.90726 24.2341C6.90204 24.0817 6.8791 23.9273 6.89475 23.777C6.92919 23.4347 6.76952 23.225 6.47211 23.0956C6.62447 22.9234 6.76846 22.7439 6.93021 22.5811C7.67009 21.8339 8.41415 21.0909 9.16029 20.3438C9.29282 20.4251 9.40656 20.4951 9.52031 20.5639Z" fill="#494949"/>
<path d="M19.6761 34.1572C19.3902 33.4257 18.8966 32.8831 18.1974 32.5272C18.2841 32.3467 18.3331 32.1286 18.4646 31.9908C19.074 31.3522 19.6991 30.7271 20.3377 30.1177C20.4755 29.9862 20.6947 29.9382 20.8762 29.8516C21.1768 30.1312 21.4773 30.4099 21.7768 30.6895C22.0492 30.9828 22.3215 31.276 22.5929 31.5682C22.4499 31.6423 22.2798 31.6893 22.1692 31.7967C21.4554 32.4928 20.7583 33.2045 20.0477 33.9037C19.9423 34.007 19.8003 34.0738 19.6751 34.1572H19.6761Z" fill="#7B56B5"/>
<path d="M15.4602 25.9529C15.6105 26.22 15.8421 26.3004 16.1395 26.2837C16.4098 26.2681 16.6822 26.29 16.9546 26.2952C16.8419 26.4141 16.75 26.5968 16.6133 26.6416C15.935 26.8639 15.2484 26.7272 14.5648 26.6302C14.0212 26.5529 13.4743 26.4976 12.9306 26.4162C12.7814 26.3933 12.6405 26.3108 12.4965 26.2545C12.5957 26.099 12.6948 25.9435 12.7929 25.7891C13.682 25.8433 14.5711 25.8986 15.4612 25.9529H15.4602Z" fill="#343434"/>
<path d="M9.56101 25.5654C9.65702 25.7981 9.75302 26.0309 9.84903 26.2625C9.7238 26.2897 9.59961 26.3387 9.47439 26.3397C8.6552 26.347 7.83601 26.3491 7.01682 26.3366C6.91664 26.3356 6.81752 26.2364 6.71838 26.1832C6.77995 26.0027 6.8415 25.8232 6.90307 25.6427C7.78904 25.6176 8.67504 25.5915 9.56101 25.5665V25.5654Z" fill="#343434"/>
<path d="M21.7194 28.7639C21.6109 28.6073 21.5034 28.4498 21.3948 28.2932C21.3729 28.2661 21.351 28.239 21.3291 28.2118C21.1966 27.9541 21.064 27.6963 20.9315 27.4375C21.0307 27.3436 21.1841 27.2664 21.2206 27.1526C21.686 25.6875 22.1274 24.214 22.5949 22.7489C22.7014 22.4139 22.8829 22.1029 23.0311 21.7815C23.2492 21.9819 23.4673 22.1833 23.6844 22.3836C24.0976 22.8157 24.5098 23.2487 24.922 23.6808C24.7133 24.4091 24.5046 25.1386 24.2949 25.867C23.0364 26.5933 22.7609 27.282 23.2044 28.598C22.7087 28.6533 22.214 28.7075 21.7184 28.7628L21.7194 28.7639Z" fill="#DEEDFE"/>
<path d="M23.0301 21.7815C22.8829 22.1029 22.7014 22.4139 22.5939 22.7489C22.1264 24.214 21.6849 25.6875 21.2195 27.1527C21.183 27.2664 21.0296 27.3436 20.9305 27.4376C20.4108 26.5255 19.8911 25.6145 19.3714 24.7024C19.4758 24.5876 19.6323 24.4895 19.6751 24.3549C20.1092 22.9931 20.5224 21.6239 20.9471 20.259C20.9837 20.1411 21.0599 20.0357 21.1173 19.925C21.2268 20.0096 21.3447 20.0847 21.4439 20.1797C21.7684 20.4865 22.0867 20.8006 22.4071 21.1126C22.4342 21.1397 22.4613 21.1669 22.4895 21.194C22.669 21.3902 22.8495 21.5853 23.029 21.7815H23.0301Z" fill="#E4F0FE"/>
<path d="M21.3291 28.2119C21.351 28.239 21.3729 28.2662 21.3948 28.2933C21.3698 28.2964 21.3468 28.2923 21.3249 28.2797C21.3249 28.2568 21.3249 28.2349 21.3291 28.213V28.2119Z" fill="#343434"/>
<path d="M23.9776 29.481C23.9401 29.5269 23.9046 29.6083 23.8628 29.6114C23.3765 29.6479 22.8871 29.7137 22.405 29.6782C22.2453 29.6667 22.1055 29.387 21.9563 29.2305C22.1305 29.2055 22.3069 29.1877 22.4801 29.1533C22.7984 29.0896 23.1157 29.0155 23.4329 28.9446C23.5863 29.0959 23.7397 29.2462 23.8931 29.3975C23.9213 29.4257 23.9495 29.4528 23.9766 29.481H23.9776Z" fill="#C5DBF5"/>
<path d="M23.4329 28.9448C23.1157 29.0147 22.7984 29.0888 22.4801 29.1535C22.3069 29.1879 22.1305 29.2057 21.9563 29.2307C21.8769 29.0752 21.7987 28.9197 21.7194 28.7642C22.2151 28.7089 22.7097 28.6547 23.2054 28.5994C23.2816 28.7142 23.3567 28.83 23.4329 28.9448Z" fill="#D3E9FD"/>
<path d="M24.202 29.5635C24.1519 29.5343 24.1028 29.5061 24.0527 29.4769C24.0632 29.4633 24.0736 29.4508 24.084 29.4373C24.13 29.4706 24.1769 29.504 24.2228 29.5374L24.2009 29.5625L24.202 29.5635Z" fill="#8AAADC"/>
<path d="M23.9776 29.4809C23.9494 29.4528 23.9213 29.4256 23.8941 29.3975C23.9578 29.411 24.0215 29.4236 24.0851 29.4371C24.0747 29.4507 24.0642 29.4632 24.0538 29.4768L24.0152 29.4757L23.9776 29.482V29.4809Z" fill="#8AAADC"/>
<path d="M15.0772 13.767C14.6222 13.5541 14.1808 13.2671 13.5901 13.5708C13.5901 11.3856 13.5901 9.28283 13.5901 7.17904C14.544 7.16965 15.4967 7.1613 16.4505 7.15191C16.6175 7.14982 16.7844 7.13938 16.9514 7.13208C17.5233 7.14773 18.0951 7.16339 18.668 7.178C18.668 9.54163 18.668 11.9053 18.668 14.2835C18.4322 14.3107 18.2339 14.3785 18.0545 14.3451C17.396 14.2188 16.7448 14.0508 16.0874 13.9162C15.7545 13.8473 15.4132 13.816 15.0762 13.768L15.0772 13.767Z" fill="#E4F0FE"/>
<path d="M27.4276 27.5901C27.557 27.7205 27.6874 27.852 27.8168 27.9825C27.3285 28.1922 27.0707 28.5616 27.151 28.9363C27.3451 29.8337 27.6687 30.0842 28.6005 30.0967C28.8875 30.1009 29.1745 30.1603 29.4615 30.1948C29.2475 30.4212 29.0336 30.6466 28.8207 30.8731C28.4492 30.847 28.0735 30.776 27.7062 30.8042C26.7315 30.8804 26.024 30.2564 25.783 29.4079C26.3392 29.0886 26.6762 28.6128 26.8067 27.9866C27.0133 27.8551 27.221 27.7226 27.4276 27.5911V27.5901Z" fill="#A2BEE8"/>
<path d="M29.4625 30.1947C29.1755 30.1603 28.8896 30.1008 28.6016 30.0967C27.6697 30.0841 27.3462 29.8337 27.1521 28.9362C27.0717 28.5616 27.3295 28.1922 27.8179 27.9824C27.8951 28.0596 27.9723 28.1369 28.0495 28.2141C27.6833 28.5282 27.6864 28.8621 27.9337 29.2629C28.1372 29.5926 28.4137 29.6907 28.7706 29.7064C29.1327 29.722 29.4938 29.7721 29.8549 29.8065C29.7244 29.9359 29.593 30.0664 29.4625 30.1958V30.1947Z" fill="#B2CBED"/>
<path d="M29.8538 29.8066C29.4928 29.7721 29.1317 29.722 28.7696 29.7064C28.4127 29.6907 28.1372 29.5926 27.9326 29.2629C27.6853 28.8622 27.6822 28.5282 28.0485 28.2141C28.1518 28.3195 28.2551 28.4239 28.3574 28.5293C28.3939 29.1074 28.6089 29.3015 29.1828 29.3151C29.5564 29.3234 29.929 29.362 30.3026 29.3871C30.1533 29.5269 30.0031 29.6667 29.8538 29.8066Z" fill="#BCD4F1"/>
<path d="M26.8067 27.9857C26.6773 28.6118 26.3392 29.0877 25.783 29.407C25.2789 29.6428 24.7582 29.6773 24.2229 29.5364C24.1759 29.503 24.13 29.4696 24.0841 29.4362C24.0204 29.4227 23.9568 29.4101 23.8931 29.3966C23.7397 29.2453 23.5863 29.095 23.4329 28.9437C23.3567 28.8289 23.2806 28.713 23.2054 28.5983C22.7619 27.2813 23.0364 26.5926 24.2959 25.8673C25.1725 25.6565 25.9103 25.8777 26.4947 26.5748C26.5124 26.6019 26.5291 26.6291 26.5468 26.6562C26.5781 26.7084 26.6095 26.7606 26.6408 26.8127L26.6387 26.8086C26.695 27.2009 26.7514 27.5933 26.8077 27.9846L26.8067 27.9857Z" fill="#EDB65C"/>
<path d="M16.7949 15.4859C16.4568 15.1468 16.1187 14.8087 15.7806 14.4695C15.8912 14.4674 16.007 14.4413 16.1114 14.4674C16.7125 14.6166 17.3115 14.7763 17.9105 14.9339C19.3099 15.3033 20.7072 15.6811 22.1087 16.0421C23.0969 16.2968 24.0872 16.5514 25.0838 16.7695C25.8091 16.9271 26.5469 17.0241 27.3431 17.1587V7.17719C28.1466 7.16884 28.9512 7.14171 29.7548 7.1584C30.2129 7.1678 30.4623 7.49338 30.4654 7.99533C30.4727 9.08584 30.4748 10.1763 30.479 11.2669C30.4748 13.4802 30.4706 15.6925 30.4654 17.9059C30.4654 18.244 30.4571 18.5821 30.4529 18.9202C30.1649 18.8535 29.8748 18.7908 29.5878 18.7178C27.7616 18.2492 25.9322 17.7911 24.1102 17.3048C21.7873 16.685 19.4716 16.039 17.1508 15.415C17.0464 15.3868 16.9139 15.4598 16.7949 15.4849V15.4859Z" fill="#D3E9FD"/>
<path d="M37.3403 7.17944C37.3403 11.8211 37.3403 16.4618 37.3403 21.1035C36.5075 21.1035 35.6737 21.1035 34.841 21.1035C34.841 16.4618 34.841 11.8211 34.841 7.17944C35.6737 7.17944 36.5075 7.17944 37.3403 7.17944Z" fill="#E2EFFE"/>
<path d="M34.841 7.17911C34.841 11.8208 34.841 16.4615 34.841 21.1032C34.4517 21.1063 34.0624 21.1188 33.6732 21.1094C33.3674 21.1021 33.1786 20.9331 33.1295 20.6284C33.1076 20.4885 33.1034 20.3435 33.1034 20.2016C33.1024 16.1609 33.1097 12.1203 33.0961 8.07969C33.094 7.32103 33.2715 7.16659 34.027 7.15511C34.2983 7.15094 34.5707 7.17076 34.842 7.18016L34.841 7.17911Z" fill="#EAF2FF"/>
<path d="M23.0301 21.7817C22.8506 21.5855 22.6701 21.3903 22.4906 21.1941C22.5073 21.1764 22.5146 21.1566 22.5114 21.1326C24.0945 21.1378 25.6786 21.143 27.2617 21.1482C27.3493 21.2442 27.4193 21.3851 27.5278 21.4289C29.2559 22.1135 30.9892 22.7876 32.7236 23.4586C32.8415 23.5046 32.9741 23.5087 33.1003 23.5327C33.1003 24.0274 33.0993 24.522 33.0982 25.0167C32.9344 24.9979 32.7674 24.9874 32.6057 24.9582C31.8783 24.8246 31.152 24.6859 30.4247 24.5491C30.4184 24.2778 30.4101 24.0065 30.4049 23.7352C30.3955 23.2885 30.218 23.0944 29.7693 23.0871C29.1474 23.0777 28.5254 23.0871 27.9045 23.0871C27.5392 23.0871 27.2815 23.227 27.2064 23.611C27.0561 23.5776 26.8985 23.5619 26.7576 23.5066C26.0605 23.2332 25.3718 22.939 24.6726 22.6728C24.3533 22.5518 24.0141 22.4798 23.6844 22.3859C23.4663 22.1855 23.2482 21.9841 23.0311 21.7837L23.0301 21.7817Z" fill="#3C3C3C"/>
<path d="M16.7949 15.4858C16.9138 15.4597 17.0453 15.3877 17.1507 15.4159C19.4726 16.0399 21.7883 16.6859 24.1101 17.3057C25.9322 17.792 27.7615 18.2501 29.5877 18.7187C29.8747 18.7917 30.1648 18.8543 30.4528 18.9211C30.4528 19.182 30.4528 19.4419 30.4528 19.7028C29.6128 19.5034 28.7696 19.3208 27.9347 19.1017C25.9729 18.5882 24.0152 18.0612 22.0585 17.5343C20.8491 17.2087 19.6448 16.8643 18.4332 16.5481C18.2683 16.5053 18.0502 16.2956 17.8885 16.5805C17.5243 16.2152 17.1601 15.851 16.7949 15.4858Z" fill="#C5DBF5"/>
<path d="M27.2617 21.1482C25.6786 21.1429 24.0945 21.1377 22.5114 21.1325C22.477 21.1262 22.4426 21.1189 22.4092 21.1127C22.0888 20.8017 21.7705 20.4876 21.446 20.1797C21.3458 20.0848 21.2279 20.0096 21.1194 19.9251C20.7875 19.5672 20.4546 19.2092 20.1238 18.8503C20.0278 18.7459 19.9349 18.6395 19.841 18.5341C19.9141 18.4923 19.9933 18.4057 20.057 18.4161C20.2845 18.4548 20.5078 18.5215 20.7301 18.5852C23.2513 19.3011 25.7736 20.0138 28.2917 20.7422C28.5598 20.8194 28.803 20.9854 29.0587 21.1095C28.4597 21.1231 27.8607 21.1356 27.2617 21.1492V21.1482Z" fill="#A2BEE8"/>
<path d="M17.8885 16.5805C18.0502 16.2945 18.2673 16.5043 18.4332 16.5481C19.6448 16.8643 20.8491 17.2087 22.0585 17.5343C24.0162 18.0613 25.9739 18.5883 27.9347 19.1017C28.7696 19.3198 29.6138 19.5034 30.4528 19.7028C30.4528 19.9626 30.4518 20.2235 30.4507 20.4833C30.361 20.475 30.2671 20.4781 30.1815 20.4552C28.708 20.0607 27.2335 19.6725 25.7631 19.2645C23.5581 18.6519 21.3583 18.0237 19.1522 17.4132C19.0594 17.3871 18.9341 17.481 18.8246 17.5186C18.5125 17.2056 18.1995 16.8925 17.8875 16.5794L17.8885 16.5805Z" fill="#BCD4F1"/>
<path d="M18.8245 17.5198C18.9351 17.4823 19.0604 17.3883 19.1522 17.4144C21.3572 18.0239 23.5581 18.6531 25.7631 19.2657C27.2324 19.6737 28.708 20.0619 30.1815 20.4564C30.2681 20.4793 30.361 20.4762 30.4507 20.4845C30.3192 20.9614 30.1355 21.1159 29.6785 21.1222C29.4719 21.1253 29.2652 21.1138 29.0586 21.1096C28.804 20.9854 28.5609 20.8206 28.2916 20.7423C25.7735 20.0149 23.2513 19.3022 20.73 18.5853C20.5067 18.5216 20.2845 18.4548 20.057 18.4162C19.9933 18.4058 19.913 18.4924 19.841 18.5342C19.5018 18.196 19.1637 17.8579 18.8245 17.5198Z" fill="#B2CBED"/>
<path d="M15.0772 13.7672C15.4143 13.8152 15.7555 13.8476 16.0884 13.9154C16.7458 14.05 17.396 14.2191 18.0555 14.3443C18.235 14.3787 18.4333 14.3098 18.6691 14.2827C18.6691 11.9045 18.6691 9.54083 18.6691 7.17719C19.7805 7.1678 20.8908 7.15527 22.0022 7.15214C22.4791 7.1511 22.9571 7.16884 23.434 7.17823C23.434 10.0616 23.434 12.9449 23.434 15.919C22.6388 15.7666 21.9031 15.6445 21.1767 15.4838C20.0414 15.2313 18.9144 14.9433 17.78 14.6876C17.0391 14.5206 16.2919 14.385 15.5468 14.2358C15.3903 14.0792 15.2348 13.9237 15.0783 13.7672H15.0772Z" fill="#DEEDFE"/>
<path d="M15.5457 14.2356C16.2898 14.3848 17.038 14.5215 17.7789 14.6874C18.9133 14.9431 20.0403 15.2311 21.1757 15.4837C21.902 15.6454 22.6377 15.7675 23.4329 15.9188C23.4329 12.9458 23.4329 10.0614 23.4329 7.17806C24.1519 7.16867 24.8709 7.16032 25.5899 7.14989C25.7308 7.1478 25.8716 7.13736 26.0125 7.1311C26.456 7.14676 26.8985 7.16241 27.342 7.17806V17.1596C26.5458 17.025 25.808 16.9279 25.0827 16.7704C24.0851 16.5533 23.0958 16.2987 22.1076 16.043C20.7061 15.6809 19.3088 15.3042 17.9094 14.9348C17.3104 14.7761 16.7114 14.6165 16.1103 14.4683C16.007 14.4422 15.8901 14.4683 15.7795 14.4704C15.7012 14.3921 15.6229 14.3138 15.5447 14.2366L15.5457 14.2356Z" fill="#D7EAFD"/>
<path d="M27.2063 23.6101C27.2815 23.225 27.5392 23.0852 27.9045 23.0862C28.5264 23.0862 29.1484 23.0768 29.7693 23.0862C30.218 23.0935 30.3965 23.2876 30.4048 23.7342C30.41 24.0056 30.4173 24.2769 30.4246 24.5482C30.4226 24.8874 30.4215 25.2265 30.4194 25.5657C30.3599 26.1991 30.2754 26.2732 29.6305 26.2774C29.3091 26.2795 28.9887 26.2889 28.6673 26.2951C28.3313 26.2909 27.9942 26.2868 27.6582 26.2826C27.6269 26.2763 27.5956 26.2711 27.5643 26.2649C27.463 26.1647 27.3618 26.0645 27.2616 25.9654C27.2554 25.908 27.2481 25.8506 27.2418 25.7932C27.2303 25.0658 27.2189 24.3374 27.2074 23.6101H27.2063Z" fill="#8AAADC"/>
<path d="M30.4205 25.5656C30.4226 25.2264 30.4236 24.8872 30.4257 24.5481C31.1531 24.6848 31.8794 24.8236 32.6067 24.9572C32.7695 24.9874 32.9354 24.9968 33.0993 25.0156C33.1097 25.3527 33.1212 25.6897 33.1316 26.0268C32.3918 25.8922 31.6529 25.7555 30.9131 25.624C30.7513 25.5948 30.5854 25.5843 30.4215 25.5656H30.4205Z" fill="#343434"/>
<path d="M27.5643 26.2646C27.5956 26.2709 27.6269 26.2761 27.6582 26.2824C27.6582 26.3064 27.6551 26.3293 27.6478 26.3523C27.6196 26.3231 27.5914 26.2949 27.5633 26.2657L27.5643 26.2646Z" fill="#464646"/>
<path d="M27.2064 23.6099C27.2178 24.3372 27.2293 25.0656 27.2408 25.793C27.2074 25.817 27.173 25.841 27.1396 25.865C27.0968 25.8316 27.053 25.7993 27.0102 25.7659C26.3141 25.0709 25.6181 24.3769 24.9221 23.6819C24.5099 23.2499 24.0966 22.8168 23.6833 22.3848C24.0131 22.4787 24.3523 22.5507 24.6716 22.6728C25.3708 22.9389 26.0595 23.2332 26.7566 23.5066C26.8985 23.5619 27.0551 23.5775 27.2053 23.6109L27.2064 23.6099Z" fill="#343434"/>
<path d="M24.922 23.6819C25.6181 24.3769 26.3141 25.0708 27.0101 25.7659C26.9162 25.9286 26.8275 26.0956 26.7273 26.2553C26.6574 26.3669 26.5719 26.4692 26.4936 26.5767C25.9092 25.8796 25.1714 25.6584 24.2948 25.8692C24.5035 25.1408 24.7133 24.4113 24.922 23.6829V23.6819Z" fill="#D7EAFD"/>
<path d="M26.8067 27.9856C26.7503 27.5933 26.694 27.2009 26.6376 26.8096C26.9006 27.0694 27.1646 27.3303 27.4276 27.5901C27.221 27.7216 27.0133 27.8542 26.8067 27.9856Z" fill="#8AAADC"/>
<path d="M27.1406 25.864C27.174 25.84 27.2085 25.816 27.2418 25.792C27.2481 25.8494 27.2554 25.9068 27.2617 25.9642C27.221 25.9308 27.1813 25.8974 27.1406 25.863V25.864Z" fill="#585858"/>
<path d="M14.5304 21.1401C14.3738 21.1286 14.2173 21.1171 14.0618 21.1057C14.0879 19.6562 14.115 18.2067 14.1401 16.7572C14.1432 16.5881 14.113 16.4128 14.1505 16.2532C14.1766 16.1425 14.2945 16.0549 14.3718 15.9568C14.6274 16.4045 14.8852 16.8511 15.1367 17.3019C15.1847 17.3885 15.2045 17.4908 15.2379 17.5858C15.2108 17.6974 15.1617 17.8091 15.1586 17.9207C15.1273 18.982 15.1033 20.0433 15.0772 21.1046C14.8946 21.1161 14.713 21.1286 14.5304 21.1401Z" fill="#C5DBF5"/>
<path d="M14.3718 15.9566C14.2945 16.0547 14.1766 16.1424 14.1505 16.253C14.1119 16.4126 14.1432 16.5879 14.1401 16.757C14.114 18.2065 14.0879 19.656 14.0618 21.1055C13.8792 21.1055 13.6976 21.1055 13.515 21.1044C13.5411 20.4449 13.5755 19.7854 13.5912 19.1259C13.6235 17.8423 13.6434 16.5587 13.6736 15.2762C13.6768 15.1635 13.7227 15.0518 13.7488 14.9402C13.9564 15.2793 14.1641 15.6185 14.3707 15.9576L14.3718 15.9566Z" fill="#D7EAFD"/>
<path d="M13.7498 14.9392C13.7237 15.0509 13.6778 15.1626 13.6747 15.2753C13.6434 16.5588 13.6236 17.8424 13.5923 19.1249C13.5756 19.7844 13.5422 20.444 13.5161 21.1035C13.3856 21.1035 13.2552 21.1035 13.1258 21.1035C13.1519 19.6936 13.1738 18.2838 13.2061 16.875C13.2239 16.1007 13.2479 15.3253 13.2886 14.5521C13.3001 14.3413 13.2886 14.0783 13.562 14.0146C13.6277 14.3361 13.6893 14.6376 13.7509 14.9403L13.7498 14.9392Z" fill="#E4F0FE"/>
<path d="M15.0772 21.1045C15.1033 20.0433 15.1273 18.982 15.1586 17.9207C15.1617 17.808 15.2108 17.6974 15.2379 17.5857C15.4205 17.8977 15.6032 18.2087 15.7858 18.5207C15.7576 18.6188 15.7096 18.7159 15.7054 18.815C15.6731 19.5778 15.6501 20.3417 15.624 21.1056C15.4414 21.1056 15.2598 21.1056 15.0772 21.1056V21.1045Z" fill="#BCD4F1"/>
<path d="M17.4982 23.0756C17.2645 23.0756 17.0297 23.0756 16.7959 23.0746C16.7448 22.4328 16.6947 21.7921 16.6436 21.1503C16.8523 21.1357 17.061 21.1211 17.2697 21.1064L17.5097 21.4957C17.4805 21.6147 17.4231 21.7336 17.4262 21.8515C17.4387 22.2596 17.4721 22.6676 17.4982 23.0756Z" fill="#343434"/>
<path d="M15.624 21.1044C15.6501 20.3405 15.6741 19.5777 15.7054 18.8138C15.7096 18.7147 15.7576 18.6176 15.7858 18.5195C15.9903 18.8629 16.1938 19.2062 16.3983 19.5495C16.3482 19.6372 16.2596 19.7238 16.2564 19.8125C16.2418 20.2435 16.2502 20.6755 16.2502 21.1075C16.0947 21.1201 15.9392 21.1315 15.7826 21.1441C15.7294 21.1305 15.6772 21.118 15.624 21.1044Z" fill="#B2CBED"/>
<path d="M16.2491 21.1076C16.2491 20.6756 16.2407 20.2435 16.2553 19.8125C16.2585 19.7238 16.3482 19.6372 16.3973 19.5496C16.6874 20.0682 16.9785 20.5868 17.2686 21.1044C17.0599 21.1191 16.8512 21.1337 16.6425 21.1483C16.511 21.1347 16.3806 21.1201 16.2491 21.1065V21.1076Z" fill="#A2BEE8"/>
<path d="M17.4982 23.0758C17.4721 22.6678 17.4387 22.2597 17.4262 21.8517C17.4231 21.7338 17.4805 21.6148 17.5097 21.4958C17.7967 22.002 18.0857 22.507 18.3696 23.0153C18.403 23.0758 18.4134 23.1499 18.4343 23.2177C18.1222 23.1707 17.8113 23.1227 17.4993 23.0758H17.4982Z" fill="#292929"/>
<path d="M15.624 21.1045C15.6772 21.1181 15.7294 21.1306 15.7826 21.1441C15.8119 21.7974 15.8411 22.4496 15.8703 23.1029C15.5739 23.2166 15.4383 23.417 15.4581 23.7478C15.479 24.0911 15.455 24.4365 15.4508 24.782C15.288 24.8133 15.1221 24.8352 14.9624 24.879C14.7266 24.9427 14.4991 25.0679 14.2622 25.0835C13.7769 25.1159 13.2885 25.0929 12.8012 25.0929C12.8033 24.6766 12.8054 24.2602 12.8085 23.8438C13.1539 23.8125 13.5025 23.7948 13.8458 23.7457C14.2434 23.6883 14.4166 23.3909 14.4458 23.0361C14.498 22.4068 14.5064 21.7734 14.5325 21.141C14.7151 21.1295 14.8967 21.117 15.0793 21.1055C15.2619 21.1055 15.4435 21.1055 15.6261 21.1055L15.624 21.1045Z" fill="#464646"/>
<path d="M9.54952 24.0765C9.55161 24.3635 9.5537 24.6504 9.55579 24.9374C8.6719 24.9635 7.788 24.9896 6.90411 25.0157L6.90829 24.233C7.21301 24.2069 7.51773 24.1735 7.82349 24.1568C8.39848 24.1245 8.97452 24.1026 9.54952 24.0754V24.0765Z" fill="#464646"/>
<path d="M6.90413 25.0167C7.78801 24.9907 8.67192 24.9646 9.5558 24.9385C9.55684 25.1472 9.55894 25.3569 9.55998 25.5657C8.67401 25.5907 7.78801 25.6168 6.90204 25.6418C6.90204 25.4331 6.90204 25.2244 6.90308 25.0167H6.90413Z" fill="#3C3C3C"/>
<path d="M12.8002 25.093C13.2875 25.093 13.7759 25.1159 14.2612 25.0836C14.498 25.0679 14.7266 24.9427 14.9614 24.879C15.1211 24.8362 15.287 24.8143 15.4498 24.782C15.454 25.1723 15.4571 25.5626 15.4612 25.9528C14.5721 25.8986 13.6831 25.8433 12.7929 25.789C12.795 25.5573 12.7981 25.3246 12.8002 25.093Z" fill="#3C3C3C"/>
<path d="M15.8692 23.1027C15.84 22.4494 15.8108 21.7972 15.7816 21.1439C15.937 21.1314 16.0925 21.1199 16.2491 21.1074C16.3806 21.121 16.511 21.1356 16.6425 21.1492C16.6936 21.7909 16.7437 22.4317 16.7948 23.0735C16.4859 23.0829 16.1781 23.0933 15.8692 23.1027Z" fill="#3C3C3C"/>
<path d="M22.4092 21.1125C22.4436 21.1188 22.478 21.1261 22.5114 21.1324C22.5146 21.1564 22.5073 21.1772 22.4906 21.1939C22.4634 21.1668 22.4363 21.1397 22.4081 21.1125H22.4092Z" fill="#808286"/>
</svg>
