<svg width="40" height="41" viewBox="0 0 40 41" fill="none" xmlns="http://www.w3.org/2000/svg">
<path d="M39.9558 11.1945C39.973 11.2096 39.9817 11.2291 39.9806 11.2517C39.9871 11.3952 39.9935 11.5387 40 11.6822C39.9914 11.8569 39.9763 12.0306 39.9763 12.2054C39.9752 19.3221 39.9763 26.4388 39.9741 33.5554C39.9741 34.7281 39.4768 35.4325 38.4347 35.7497C38.3096 35.7874 38.1758 35.8209 38.0453 35.8209C35.1261 35.823 32.2069 35.8198 29.2877 35.8176C29.3784 35.686 29.4593 35.5458 29.5617 35.426C31.236 33.4735 32.0969 31.1713 32.3364 28.6492C32.4928 26.9986 32.3288 25.347 31.7916 23.7612C30.647 20.3803 28.4797 17.8959 25.2466 16.3511C22.7795 15.1731 20.1839 14.9422 17.5377 15.418C15.1104 15.8538 13.0262 17.0156 11.2657 18.7568C9.99596 20.0136 9.01103 21.4688 8.39289 23.1323C7.72082 24.9392 7.41876 26.8131 7.63667 28.7657C7.80928 30.3137 8.18038 31.797 8.92581 33.152C9.43931 34.0862 10.1125 34.933 10.7133 35.8187C7.75534 35.8187 4.79625 35.8274 1.83824 35.8144C0.996795 35.8101 0.121906 34.9482 0.0517858 34.1132C0.031289 33.8726 0.0258962 33.6299 0.0258962 33.3882C0.0248174 26.3276 0.0258941 19.267 0.0237365 12.2064C0.0237365 12.0328 0.00755144 11.858 0 11.6843C0.00647267 11.5171 0.0129511 11.3488 0.0194238 11.1816L0.0453134 11.1891C0.0830706 11.1212 0.128376 11.0565 0.156424 10.9853C0.408858 10.3412 0.857632 9.87088 1.53403 9.75545C2.16079 9.64866 2.81237 9.67994 3.45209 9.65081C14.3531 9.65189 25.2553 9.65405 36.1563 9.65189C36.2663 9.65189 36.3753 9.60119 36.4853 9.57422C36.9632 9.60119 37.4411 9.64002 37.9201 9.65297C38.4681 9.66807 38.9655 9.83744 39.3312 10.2334C39.5868 10.5106 39.7497 10.8731 39.9547 11.1978L39.9558 11.1945Z" fill="#FFB90B"/>
<path d="M10.7134 35.8169C10.1114 34.9312 9.43932 34.0843 8.92582 33.1501C8.18039 31.7952 7.80929 30.3118 7.63668 28.7638C7.41877 26.8123 7.72083 24.9374 8.39291 23.1304C9.01105 21.4669 9.99597 20.0117 11.2657 18.7549C13.0252 17.0138 15.1094 15.853 17.5377 15.4161C20.185 14.9403 22.7806 15.1712 25.2466 16.3492C28.4797 17.893 30.647 20.3785 31.7916 23.7594C32.3288 25.3452 32.4939 26.9968 32.3364 28.6473C32.0969 31.1695 31.236 33.4716 29.5618 35.4242C29.4582 35.545 29.3784 35.6852 29.2877 35.8158C28.661 36.3767 28.0623 36.9722 27.4031 37.4911C25.9338 38.6454 24.2412 39.3639 22.43 39.7447C21.4763 39.9453 20.472 40.0435 19.5 39.9928C16.6358 39.8428 14.0705 38.8601 11.8968 36.9496C11.4868 36.5893 11.1071 36.1955 10.7134 35.8169ZM16.5193 29.438C16.5679 29.5136 16.5992 29.6182 16.6671 29.6592C17.7977 30.3162 18.9326 30.9656 20.0674 31.6161C20.0459 31.9041 20.0157 32.1922 20.0027 32.4813C19.9369 33.9527 21.6068 35.5882 23.3566 35.0811C24.3631 34.7899 25.1172 34.1803 25.3912 33.1469C25.6685 32.1005 25.416 31.1425 24.6263 30.3766C23.7223 29.5006 21.9014 29.2816 20.7374 30.4931C20.6813 30.4381 20.6327 30.369 20.5669 30.3302C19.4159 29.6549 18.2637 28.9828 17.1116 28.3107C17.1137 27.7994 17.117 27.287 17.1191 26.7756C17.378 26.6408 17.6434 26.5167 17.8948 26.3678C18.8441 25.8047 19.788 25.234 20.7341 24.6655C21.4332 25.2416 22.1786 25.6839 23.1409 25.4789C24.6005 25.1672 25.3955 24.2567 25.4786 22.9147C25.6059 20.8833 23.7547 19.619 21.937 20.1196C20.4957 20.5166 19.706 22.0085 20.0696 23.5425C19.8808 23.6396 19.6866 23.7259 19.5043 23.8338C18.4827 24.4368 17.4643 25.0453 16.4438 25.6515C16.0263 25.2783 15.57 25.0248 14.9993 24.8975C12.968 24.4455 11.3649 26.4024 11.7608 28.1327C12.0402 29.3571 13.2625 30.3938 14.5053 30.3356C15.31 30.2978 15.9379 29.9418 16.5193 29.4413V29.438Z" fill="#1EAD6F"/>
<path d="M39.9558 11.1947C39.7508 10.87 39.5879 10.5075 39.3322 10.2303C38.9654 9.83434 38.4692 9.66389 37.9212 9.64987C37.4422 9.63692 36.9643 9.59809 36.4864 9.57112C36.4821 9.06086 36.481 8.54952 36.4713 8.03926C36.4692 7.92383 36.4476 7.80516 36.412 7.69405C36.0927 6.69834 35.3688 6.19886 34.2393 6.19886C24.7472 6.19886 15.255 6.19886 5.76283 6.19886C5.68192 6.19886 5.60102 6.1967 5.52119 6.20102C4.47261 6.25388 3.72826 6.81161 3.51789 7.84939C3.40031 8.42977 3.46827 9.04683 3.45208 9.64771C2.81129 9.67684 2.16079 9.64556 1.53402 9.75235C0.857627 9.86778 0.407775 10.3381 0.15642 10.9822C0.128372 11.0534 0.0830663 11.1181 0.0453091 11.186C0.0377576 10.5949 0.024811 10.0037 0.0237322 9.41254C0.0215746 7.03168 0.0560961 4.64974 0.0107874 2.26995C-0.0172608 0.80821 1.00434 -0.0148986 2.28809 0.000204239C5.42193 0.0368827 8.55687 0.0131502 11.6907 0.0109927C12.7512 0.0109927 13.6401 0.399352 14.4233 1.11027C15.0716 1.69928 15.748 2.2624 16.4514 2.78453C17.1073 3.27106 17.8592 3.45769 18.6985 3.45445C25.0341 3.43287 31.3709 3.4415 37.7065 3.44366C38.4606 3.44366 39.137 3.66697 39.562 4.32179C39.7637 4.63247 39.9428 5.02515 39.9493 5.38331C39.9827 7.31863 39.959 9.25612 39.9547 11.1925L39.9558 11.1947Z" fill="#E58B0A"/>
<path d="M17.1191 26.7755C16.8947 26.4001 16.6693 26.0247 16.4449 25.6493C17.4643 25.043 18.4838 24.4346 19.5054 23.8316C19.6877 23.7237 19.8819 23.6374 20.0707 23.5403C20.2918 23.9146 20.513 24.29 20.7341 24.6644C19.788 25.2329 18.8441 25.8036 17.8948 26.3667C17.6434 26.5155 17.378 26.6396 17.1191 26.7745V26.7755Z" fill="#18764B"/>
<path d="M16.5193 29.4389C16.7167 29.0625 16.9131 28.687 17.1105 28.3105C18.2626 28.9826 19.4158 29.6547 20.5658 30.33C20.6316 30.3689 20.6791 30.4379 20.7363 30.4929C20.513 30.8672 20.2907 31.2416 20.0674 31.6159C18.9336 30.9654 17.7977 30.316 16.6671 29.659C16.5981 29.6191 16.5679 29.5134 16.5193 29.4379V29.4389Z" fill="#17764B"/>
</svg>
