<svg width="40" height="40" viewBox="0 0 40 40" fill="none" xmlns="http://www.w3.org/2000/svg">
<path d="M20.6753 31.6041H1.39327C1.3829 31.4796 1.36792 31.3839 1.36792 31.2883C1.36792 26.6337 1.36792 21.9792 1.36792 17.3246C1.36792 17.2532 1.37714 17.1817 1.38175 17.1103C3.21292 17.1079 5.04524 17.1068 6.87641 17.1045C7.45261 17.1045 8.02997 17.1056 8.60617 17.1068C8.62807 17.116 8.65111 17.1229 8.67416 17.1275C8.88735 17.6231 9.04869 18.1509 9.32527 18.6084C9.85307 19.4831 10.4477 20.3186 11.0147 21.1702C11.0239 21.2013 11.0331 21.2313 11.0424 21.2624V27.4485C11.1392 27.4047 11.2014 27.3793 11.2625 27.3494C12.7675 26.6061 14.2714 25.8628 15.7764 25.1195C16.0138 25.2151 16.2558 25.3027 16.4898 25.4076C17.8289 26.008 19.2118 26.4493 20.6776 26.6061C20.6776 28.2725 20.6776 29.9388 20.6776 31.6052L20.6753 31.6041Z" fill="#3ABA80"/>
<path d="M39.9977 25.3949C39.9977 28.6159 39.9977 31.8368 39.9977 35.0578C37.4382 35.0578 34.8798 35.0578 32.2132 35.0578C32.3492 34.946 32.3964 34.9022 32.4483 34.8642C33.1374 34.3514 33.6975 33.7268 34.0386 32.9328C34.3255 32.2655 34.586 31.5845 34.4258 30.8319C34.4189 30.4102 34.45 29.9838 34.3981 29.5678C34.1953 27.9579 32.9738 26.5819 31.4123 26.2673C30.8153 26.1463 30.1861 26.1866 29.5707 26.1543C29.4624 26.1324 29.3495 26.0806 29.2457 26.0944C27.3166 26.356 25.9003 27.3252 25.1812 29.1656C24.9565 29.7418 24.8793 30.3767 24.7375 30.9737C24.3976 30.1601 24.1498 29.2958 24.1429 28.3831C24.1302 26.7017 24.1383 25.0204 24.1371 23.3379C24.8378 23.3067 25.4025 23.0117 25.8208 22.4517C26.2034 21.94 26.2045 21.3338 26.2207 20.7334C26.4143 20.428 26.5768 20.0984 26.8073 19.8242C27.1829 19.3782 27.7004 19.2053 28.2766 19.1973C28.3319 20.2748 28.9519 20.8971 29.921 21.2393C29.6352 21.2439 29.3495 21.2485 29.0637 21.2532C28.5773 21.2612 28.2731 21.5355 28.2812 21.9596C28.2892 22.3629 28.5889 22.6303 29.0533 22.6326C29.8542 22.6372 30.6563 22.6349 31.4572 22.6326C32.2927 22.6314 32.5727 22.1993 32.2397 21.4272C32.7502 21.5297 33.0971 22.031 33.1098 22.6833C33.1386 24.1837 34.3624 25.3891 35.8686 25.3926C37.2446 25.3961 38.6217 25.3949 39.9977 25.3949Z" fill="#F06E7A"/>
<path d="M26.2218 20.7311C26.2069 21.3315 26.2046 21.9377 25.822 22.4494C25.4036 23.0094 24.839 23.3056 24.1383 23.3356C23.7234 23.331 23.3074 23.3425 22.8925 23.3183C21.6652 23.2468 20.5947 24.2125 20.6845 25.5309C20.7087 25.887 20.6799 26.2465 20.6753 26.6038C19.2095 26.4471 17.8266 26.0057 16.4875 25.4053C16.2535 25.3004 16.0127 25.2128 15.7741 25.1172C15.7741 25.0976 15.7764 25.078 15.7787 25.0584C16.4667 24.7265 17.1536 24.3935 17.9372 24.0143C15.5805 22.8354 13.3334 21.7118 11.0481 20.5698C11.0343 20.8049 11.0228 20.9858 11.0124 21.1679C10.4454 20.3163 9.85193 19.4808 9.32297 18.6061C9.0464 18.1486 8.88507 17.6208 8.67188 17.1252C9.66755 17.116 10.6632 17.1057 11.6601 17.0964C13.2792 17.0964 14.8983 17.0964 16.5174 17.0976C18.1193 17.0976 19.72 17.0976 21.3218 17.0976C22.9444 17.0976 24.567 17.0976 26.1884 17.0976C26.1988 18.3088 26.2092 19.5188 26.2207 20.73L26.2218 20.7311Z" fill="#80E1B8"/>
<path d="M20.6753 26.606C20.6799 26.2476 20.7088 25.8892 20.6846 25.5331C20.5947 24.2147 21.6652 23.2479 22.8926 23.3205C23.3063 23.3447 23.7223 23.3332 24.1383 23.3378C24.1383 25.0191 24.1314 26.7016 24.1441 28.383C24.151 29.2969 24.3987 30.16 24.7387 30.9736C24.8805 30.3767 24.9577 29.7428 25.1824 29.1655C25.9015 27.3239 27.3178 26.3559 29.2469 26.0943C29.3506 26.0805 29.4636 26.1324 29.5719 26.1542C29.1363 26.3202 28.665 26.4251 28.2731 26.6625C26.6114 27.6651 25.9764 29.1874 26.238 30.8918C26.4904 32.5386 27.8271 33.9802 29.6191 34.3006C31.8064 34.6913 34.0548 33.2427 34.4281 30.833C34.5883 31.5867 34.3279 32.2666 34.0409 32.9338C33.6998 33.7279 33.1397 34.3525 32.4506 34.8653C32.3987 34.9033 32.3515 34.9471 32.2155 35.0589C34.8822 35.0589 37.4405 35.0589 40 35.0589C39.9804 36.2171 39.0781 37.1194 37.928 37.1251C36.5532 37.1321 35.1783 37.1344 33.8035 37.139C31.5033 37.139 29.202 37.139 26.9018 37.139C25.512 37.1344 24.1222 37.1067 22.7335 37.1332C21.6433 37.154 20.6604 36.1698 20.6846 35.0865C20.7099 33.9272 20.6822 32.7667 20.6776 31.6063C20.6776 29.9399 20.6776 28.2735 20.6776 26.6071L20.6753 26.606ZM24.0784 35.0508C24.4414 35.0577 24.8182 34.7166 24.8251 34.3744C24.8321 34.0379 24.461 33.6818 24.098 33.676C23.7499 33.6714 23.4642 33.9606 23.4503 34.3329C23.4353 34.7281 23.7131 35.0451 24.0772 35.052L24.0784 35.0508Z" fill="#A7325C"/>
<path d="M8.60502 17.1065C8.02882 17.1065 7.45147 17.1054 6.87526 17.1042C6.84184 17.0581 6.81419 17.0074 6.77385 16.9671C5.0706 15.2615 3.36619 13.5571 1.65832 11.855C1.58111 11.7778 1.47164 11.7317 1.3783 11.6718C1.37945 11.643 1.3806 11.6142 1.38176 11.5853C1.4025 11.5577 1.42323 11.53 1.44398 11.5012C1.70903 11.0633 1.97639 10.6277 2.23799 10.1875C2.90062 9.0731 3.5598 7.95757 4.22013 6.84204C4.27314 6.86048 4.34113 6.86279 4.37801 6.89851C5.23309 7.70289 6.30022 7.90341 7.41344 7.97025C7.3201 8.16039 7.23135 8.354 7.13225 8.54069C6.82225 9.12957 6.5088 9.71614 6.1965 10.3027L6.20226 10.2946C6.17576 10.3177 6.14811 10.3407 6.1216 10.3626C4.67764 10.751 3.23366 11.1405 1.7897 11.5289C1.79085 11.5519 1.79316 11.5761 1.79431 11.5992C3.28898 11.5992 4.7825 11.5992 6.27717 11.5992C6.35784 11.7133 6.42583 11.8412 6.52263 11.9391C6.92482 12.3448 7.33623 12.7412 7.74418 13.1399C7.72113 13.2748 7.65198 13.4211 7.68195 13.5421C7.98042 14.7314 8.29503 15.9161 8.60502 17.1031V17.1065Z" fill="#34B2E4"/>
<path d="M39.9977 25.3949C38.6217 25.3949 37.2446 25.3949 35.8686 25.3926C34.3636 25.3892 33.1386 24.1838 33.1098 22.6833C33.0971 22.0322 32.7502 21.5309 32.2397 21.4272L32.2466 21.4295C32.2063 21.4007 32.1648 21.373 32.1244 21.3442C31.9297 21.3131 31.7361 21.2613 31.5413 21.2555C31.002 21.2394 30.4615 21.2417 29.9211 21.2371C28.953 20.8948 28.333 20.2725 28.2766 19.195C29.7263 19.1904 31.176 19.1708 32.6258 19.1869C33.5581 19.1973 34.4777 20.1204 34.4834 21.0596C34.4927 22.6038 35.6577 23.4047 36.8343 23.3252C37.2342 23.2987 37.6376 23.3171 38.0398 23.3218C39.1426 23.3321 40.0426 24.2863 39.9977 25.3938V25.3949Z" fill="#FFC56A"/>
<path d="M7.74417 13.1435C7.33622 12.7437 6.92481 12.3472 6.52262 11.9427C6.42582 11.8448 6.35783 11.7169 6.27716 11.6028C7.88361 11.6051 9.49121 11.6085 11.0977 11.6108C12.3964 12.92 13.6975 14.2268 14.994 15.5371C15.5056 16.0545 16.0104 16.5789 16.5174 17.0998C14.8983 17.0998 13.2792 17.0998 11.66 17.0986C11.6312 17.049 11.6116 16.9914 11.5725 16.9522C10.2967 15.6811 9.01988 14.4123 7.74302 13.1435H7.74417Z" fill="#2171A2"/>
<path d="M20.1556 6.57829C19.2083 6.84219 18.261 7.10955 17.3126 7.36769C16.7421 7.52211 16.1682 7.66271 15.5966 7.81021C15.6185 7.68691 15.6105 7.54861 15.6658 7.44375C16.0092 6.80762 16.3665 6.17956 16.7191 5.54919C16.9208 5.22076 17.1317 4.89693 17.323 4.56158C17.966 3.43222 18.6021 2.29826 19.2417 1.1666C20.1729 0.903847 21.1028 0.638794 22.0351 0.378351C22.4949 0.250434 22.9559 0.116754 23.4215 0.015342C23.5943 -0.0226874 23.7845 0.0211041 23.9666 0.0280185C23.9216 0.0625907 23.8617 0.0867923 23.8352 0.131736C23.0619 1.47659 22.2921 2.82375 21.5212 4.16976C21.066 4.97299 20.6108 5.77622 20.1556 6.57944V6.57829Z" fill="#2071A2"/>
<path d="M6.19879 10.3052C6.51109 9.71749 6.82455 9.13091 7.13454 8.54318C7.23365 8.35534 7.32239 8.16289 7.41574 7.97275C7.91934 7.12919 8.43331 6.29139 8.92539 5.44091C9.2665 4.85203 9.57764 4.24471 9.90147 3.64546C11.3408 3.24788 12.7802 2.84915 14.2218 2.45733C14.329 2.42852 14.4489 2.44581 14.563 2.4412C14.5238 2.53109 14.4927 2.62558 14.4443 2.71086C13.7067 4.00386 12.9669 5.29571 12.227 6.58755C11.7419 7.41959 11.2567 8.25047 10.7715 9.08251C9.73668 9.37407 8.70412 9.67139 7.66695 9.95373C7.18179 10.0863 6.68972 10.19 6.19995 10.3064L6.19879 10.3052Z" fill="#2071A2"/>
<path d="M26.1896 17.0988C24.567 17.0988 22.9444 17.0988 21.3218 17.0988C21.2123 16.9674 21.1132 16.8269 20.9922 16.7059C19.4111 15.1201 17.8266 13.539 16.2455 11.9533C16.136 11.8427 16.0426 11.7171 15.9412 11.5984C17.5465 11.6018 19.153 11.6053 20.7583 11.6099C22.5687 13.4203 24.3791 15.2308 26.1896 17.0412C26.1953 17.0608 26.1953 17.0792 26.1896 17.0988Z" fill="#2171A2"/>
<path d="M15.9424 11.5994C16.0438 11.7181 16.1371 11.8448 16.2466 11.9543C17.8277 13.5389 19.4123 15.1211 20.9934 16.7068C21.1132 16.8278 21.2135 16.9684 21.323 17.0998C19.7223 17.0998 18.1204 17.0998 16.5197 17.0998C16.0115 16.5789 15.5079 16.0546 14.9963 15.5371C13.6998 14.2269 12.3987 12.9189 11.1 11.6109C12.7145 11.6074 14.329 11.6028 15.9435 11.5994H15.9424Z" fill="#67CAF1"/>
<path d="M31.0354 6.77171C32.4368 6.76825 33.8392 6.75212 35.2406 6.76479C35.9746 6.77171 36.484 7.32141 36.5635 8.12694C36.5635 9.05462 36.5635 9.98116 36.5635 10.9088L36.5681 10.9031C36.1245 10.9031 35.6808 10.9008 35.2382 10.8996C32.9138 10.8973 31.0827 9.09957 31.0354 6.77056V6.77171Z" fill="#92E5EB"/>
<path d="M31.0355 6.77173C31.0827 9.09959 32.9139 10.8985 35.2383 10.9008C35.6819 10.9008 36.1256 10.9031 36.5681 10.9043C36.5059 11.7593 35.962 12.2791 35.1196 12.2802C33.769 12.2825 32.4183 12.2837 31.0677 12.2802C30.2403 12.2779 29.6629 11.6994 29.6595 10.8731C29.656 9.95352 29.6537 9.0339 29.6595 8.11428C29.6652 7.34102 30.2564 6.77058 31.0331 6.77288L31.0355 6.77173Z" fill="#69CBF2"/>
<path d="M12.227 6.58766C12.9669 5.29582 13.7067 4.00397 14.4442 2.71097C14.4926 2.62569 14.5238 2.5312 14.5629 2.44131C15.4457 2.18432 16.3261 1.91812 17.2123 1.67496C17.8842 1.49057 18.5641 1.335 19.2417 1.16675C18.6033 2.29841 17.966 3.43238 17.323 4.56173C17.1317 4.89708 16.9208 5.21976 16.7191 5.54934C16.6338 5.55511 16.5439 5.54704 16.4633 5.56894C15.3742 5.86049 14.2898 6.16473 13.1985 6.44592C12.8839 6.52659 12.5508 6.54272 12.227 6.58766Z" fill="#68CAF2"/>
<path d="M1.37943 11.6719C1.47392 11.7318 1.58224 11.7779 1.65945 11.8551C3.36732 13.5572 5.07057 15.2616 6.77498 16.9672C6.81416 17.0075 6.84297 17.0582 6.87639 17.1043C5.04522 17.1066 3.2129 17.1078 1.38173 17.1101C1.38173 15.2973 1.38173 13.4846 1.38058 11.6719H1.37943Z" fill="#2071A2"/>
<path d="M4.22126 6.84331C3.56093 7.95883 2.90061 9.07436 2.23913 10.1887C1.97753 10.629 1.71017 11.0646 1.44512 11.5025C1.42553 11.5036 1.40478 11.5048 1.38519 11.5048C1.12129 10.5633 0.853936 9.62291 0.594644 8.68139C0.404497 7.9911 0.245464 7.29159 0.0311165 6.60937C-0.0553139 6.3351 0.0437918 6.24175 0.260444 6.18413C1.80582 5.77157 3.35235 5.36247 4.90118 4.95912C5.00836 4.93147 5.12937 4.95336 5.24346 4.95221C4.9035 5.58373 4.56237 6.21409 4.22241 6.84561L4.22126 6.84331Z" fill="#2071A2"/>
<path d="M26.1907 17.0409C24.3803 15.2305 22.5699 13.42 20.7594 11.6096C22.5606 11.6096 24.3607 11.6096 26.1907 11.6096V17.0409Z" fill="#68CBF2"/>
<path d="M4.22125 6.84343C4.56121 6.21191 4.90234 5.58155 5.2423 4.95003C5.86229 4.75988 6.47766 4.55591 7.10227 4.38305C8.0311 4.12606 8.96686 3.88982 9.90031 3.64551C9.57648 4.24476 9.26534 4.85093 8.92423 5.44096C8.43215 6.29143 7.91933 7.12923 7.41458 7.97279C6.3002 7.9048 5.23423 7.70543 4.37915 6.90105C4.34227 6.86648 4.27426 6.86302 4.22125 6.84459V6.84343Z" fill="#68CBF2"/>
<path d="M33.1132 39.8714C31.0424 39.8714 28.9715 39.8714 26.8994 39.8714C26.8948 39.4162 26.8902 38.961 26.8856 38.5058C26.8948 38.2753 26.9041 38.0437 26.9133 37.8132C28.2627 37.8132 29.6134 37.8132 30.9628 37.8167C32.1648 37.819 33.0602 38.6764 33.1121 39.8726L33.1132 39.8714Z" fill="#34B2E4"/>
<path d="M12.227 6.58739C12.5509 6.54245 12.8827 6.52632 13.1985 6.44565C14.2898 6.16561 15.3754 5.86022 16.4633 5.56866C16.5451 5.54677 16.6338 5.55483 16.7191 5.54907C16.3665 6.17944 16.0092 6.8075 15.6658 7.44363C15.6093 7.54734 15.6174 7.68679 15.5967 7.81009C13.9879 8.23418 12.3791 8.65826 10.7704 9.08235C11.2555 8.25031 11.7407 7.41943 12.2259 6.58739H12.227Z" fill="#35B2E4"/>
<path d="M20.1556 6.57814C20.6108 5.77491 21.066 4.97168 21.5212 4.16845C21.6606 4.14886 21.8047 4.14425 21.9395 4.10853C22.9271 3.84809 23.9147 3.58073 24.9012 3.31567C25.0372 3.83426 25.1639 4.3563 25.3149 4.87027C25.3783 5.08807 25.3702 5.2229 25.1201 5.28974C23.5079 5.71729 21.8969 6.15059 20.2846 6.57928C20.2443 6.58966 20.1994 6.57929 20.1556 6.57814Z" fill="#35B2E4"/>
<path d="M26.8856 38.5045C26.8902 38.9597 26.8949 39.4149 26.8995 39.8701C25.2953 39.8747 23.6912 39.8828 22.087 39.8805C21.6433 39.8805 21.3864 39.6166 21.3817 39.2017C21.3783 38.7707 21.6433 38.5079 22.1147 38.5068C23.705 38.5022 25.2953 38.5045 26.8856 38.5045Z" fill="#A7325C"/>
<path d="M33.8139 38.5033C35.3062 38.5033 36.7975 38.5033 38.2898 38.5033C38.3763 38.5033 38.4627 38.4998 38.548 38.5033C38.9732 38.5263 39.3224 38.8432 39.3178 39.1993C39.312 39.5543 38.9594 39.8781 38.5341 39.8793C36.9565 39.8816 35.3789 39.8723 33.8012 39.8677C33.8058 39.4125 33.8104 38.9562 33.815 38.501L33.8139 38.5033Z" fill="#A7325C"/>
<path d="M33.8139 38.5035C33.8093 38.9587 33.8047 39.415 33.8 39.8702C33.5707 39.8702 33.3414 39.8702 33.1121 39.8702C33.059 38.674 32.1636 37.8166 30.9628 37.8143C29.6134 37.812 28.2627 37.812 26.9133 37.8109C26.9087 37.5862 26.904 37.3614 26.8983 37.1367C29.1985 37.1367 31.4998 37.1367 33.8 37.1367C33.8047 37.5919 33.8081 38.0471 33.8127 38.5023L33.8139 38.5035Z" fill="#2070A1"/>
<path d="M24.9012 3.31558C23.9136 3.58063 22.9271 3.84799 21.9395 4.10843C21.8047 4.14416 21.6606 4.14877 21.5212 4.16836C22.291 2.82235 23.0619 1.47518 23.8352 0.130327C23.8606 0.0853833 23.9216 0.0611835 23.9666 0.0266113C24.1971 0.822923 24.4298 1.61923 24.658 2.4167C24.7433 2.71517 24.8205 3.01595 24.9023 3.31558H24.9012Z" fill="#68CAF2"/>
<path d="M37.2469 7.9796C37.9222 7.80789 38.5975 7.63618 39.3097 7.4541C39.3097 8.58231 39.3097 9.6575 39.3097 10.7315C38.9675 10.6405 38.6206 10.561 38.2818 10.455C37.6341 10.2521 37.2584 9.72895 37.2515 9.04903C37.2481 8.69178 37.2481 8.33569 37.2458 7.97844L37.2469 7.9796Z" fill="#92E5EB"/>
<path d="M37.2469 7.97949C37.2481 8.33674 37.2492 8.69283 37.2527 9.05007C37.2596 9.72999 37.6353 10.2532 38.2829 10.456C38.6217 10.562 38.9674 10.6415 39.3109 10.7326C39.3109 11.0011 39.3109 11.2708 39.3109 11.6015C38.3717 11.3653 37.4693 11.1371 36.5658 10.9101C36.5658 9.98352 36.5658 9.05584 36.5658 8.1293C36.794 8.07975 37.021 8.0302 37.2492 7.98064L37.2469 7.97949Z" fill="#69CBF2"/>
<path d="M1.3852 11.505C1.40479 11.505 1.42553 11.505 1.44512 11.5027C1.42438 11.5303 1.40365 11.558 1.3829 11.5868C1.37369 11.5592 1.37483 11.5315 1.3852 11.505Z" fill="#2071A2"/>
<path d="M6.12274 10.3651C6.14925 10.3421 6.17691 10.319 6.20342 10.2971C6.17691 10.3202 6.14925 10.3432 6.12274 10.3651Z" fill="#2071A2"/>
<path d="M15.7799 25.0608C15.7776 25.0804 15.7753 25.1 15.7753 25.1196C14.2702 25.8629 12.7664 26.6062 11.2613 27.3495C11.2002 27.3794 11.138 27.4048 11.0412 27.4486C11.0412 25.3581 11.0412 23.3103 11.0412 21.2625C12.3941 22.8113 13.9326 24.1285 15.7799 25.0608Z" fill="#F06F7A"/>
<path d="M15.7799 25.0606C13.9326 24.1283 12.3941 22.81 11.0412 21.2623C11.032 21.2312 11.0228 21.2012 11.0135 21.1701C11.0239 20.9892 11.0354 20.8071 11.0493 20.572C13.3345 21.7152 15.5817 22.8388 17.9383 24.0166C17.1547 24.3957 16.4679 24.7276 15.7799 25.0606Z" fill="#FEC56A"/>
<path d="M7.74417 13.1436C9.02103 14.4124 10.2979 15.6823 11.5736 16.9523C11.6128 16.9914 11.6324 17.0491 11.6612 17.0986C10.6655 17.1078 9.66983 17.1182 8.67415 17.1274C8.64995 17.1228 8.62806 17.1159 8.60501 17.1067C8.29501 15.9208 7.98041 14.735 7.68193 13.5457C7.65197 13.4247 7.72112 13.2784 7.74417 13.1436Z" fill="#66C9F0"/>
<path d="M34.4258 30.8318C34.0536 33.2415 31.8041 34.6901 29.6168 34.2994C27.826 33.9802 26.4892 32.5374 26.2356 30.8906C25.9741 29.1862 26.609 27.6639 28.2708 26.6613C28.6626 26.425 29.1351 26.319 29.5696 26.1531C30.1838 26.1865 30.8142 26.1462 31.4111 26.266C32.9726 26.5818 34.1942 27.9577 34.397 29.5665C34.4488 29.9825 34.4177 30.4089 34.4246 30.8307L34.4258 30.8318ZM30.3613 28.1537C29.2365 28.1513 28.28 29.1032 28.28 30.2257C28.28 31.3274 29.2273 32.2873 30.3209 32.2942C31.4537 32.3012 32.4149 31.3619 32.4195 30.2441C32.4241 29.1148 31.4803 28.1571 30.3601 28.1537H30.3613Z" fill="#68CBF2"/>
<path d="M29.9222 21.238C30.4627 21.2426 31.0032 21.2403 31.5425 21.2565C31.7373 21.2622 31.9309 21.3141 32.1256 21.3452C32.1659 21.374 32.2074 21.4017 32.2478 21.4305L32.2408 21.4282C32.5727 22.2003 32.2927 22.6324 31.4584 22.6336C30.6575 22.6348 29.8554 22.6371 29.0545 22.6336C28.5912 22.6313 28.2916 22.3639 28.2823 21.9606C28.2731 21.5365 28.5774 21.2622 29.0648 21.2542C29.3506 21.2496 29.6364 21.245 29.9222 21.2403V21.238Z" fill="#69CAF1"/>
<path d="M24.0784 35.0508C23.7142 35.0439 23.4365 34.727 23.4515 34.3317C23.4653 33.9595 23.7499 33.6702 24.0991 33.6749C24.4621 33.6806 24.8332 34.0367 24.8263 34.3732C24.8194 34.7155 24.4425 35.0566 24.0795 35.0497L24.0784 35.0508Z" fill="#36B0E2"/>
<path d="M30.3613 28.1536C31.4814 28.1559 32.4252 29.1135 32.4206 30.244C32.416 31.3619 31.4549 32.3011 30.3221 32.2942C29.2285 32.2872 28.2812 31.3273 28.2812 30.2256C28.2812 29.1031 29.2365 28.1513 30.3624 28.1536H30.3613ZM31.7303 29.5238C31.7257 29.1435 31.433 28.8496 31.0527 28.8439C30.6551 28.8369 30.3463 29.1458 30.3521 29.5434C30.3578 29.9398 30.6747 30.2406 31.0723 30.2233C31.4515 30.2072 31.7361 29.9041 31.7315 29.5238H31.7303Z" fill="#35B2E4"/>
<path d="M31.7303 29.5237C31.7349 29.904 31.4503 30.2071 31.0712 30.2233C30.6736 30.2405 30.3555 29.9398 30.3509 29.5433C30.3451 29.1458 30.654 28.8381 31.0516 28.8438C31.4319 28.8496 31.7246 29.1435 31.7292 29.5237H31.7303Z" fill="#8EE3EB"/>
</svg>
