<svg width="66" height="66" viewBox="0 0 66 66" fill="none" xmlns="http://www.w3.org/2000/svg">
<g opacity="0.5">
<path d="M7.09507 52.2775L7.04007 52.3325C6.29757 50.71 5.83007 48.8675 5.63757 46.8325C5.83007 48.84 6.35257 50.655 7.09507 52.2775Z" fill="#E12424"/>
<path d="M24.75 28.5453C28.3647 28.5453 31.295 25.615 31.295 22.0003C31.295 18.3856 28.3647 15.4553 24.75 15.4553C21.1353 15.4553 18.205 18.3856 18.205 22.0003C18.205 25.615 21.1353 28.5453 24.75 28.5453Z" fill="#E12424"/>
<path d="M44.5225 5.5H21.4775C11.4675 5.5 5.5 11.4675 5.5 21.4775V44.5225C5.5 47.52 6.0225 50.1325 7.04 52.3325C9.405 57.5575 14.465 60.5 21.4775 60.5H44.5225C54.5325 60.5 60.5 54.5325 60.5 44.5225V38.225V21.4775C60.5 11.4675 54.5325 5.5 44.5225 5.5ZM56.0175 34.375C53.8725 32.5325 50.4075 32.5325 48.2625 34.375L36.8225 44.1925C34.6775 46.035 31.2125 46.035 29.0675 44.1925L28.1325 43.4225C26.18 41.7175 23.0725 41.5525 20.8725 43.0375L10.5875 49.94C9.9825 48.4 9.625 46.6125 9.625 44.5225V21.4775C9.625 13.7225 13.7225 9.625 21.4775 9.625H44.5225C52.2775 9.625 56.375 13.7225 56.375 21.4775V34.6775L56.0175 34.375Z" fill="#E12424"/>
<path d="M46.8105 50.0757C46.2346 49.5096 45.6487 48.9535 45.0727 48.3875C40.9118 44.2266 36.7509 40.0657 32.59 35.9048C32.3815 35.6962 32.1531 35.5175 31.9346 35.3189C28.8958 32.2702 25.8472 29.2215 22.8084 26.1828C22.7488 26.1033 22.6992 26.0239 22.6297 25.9544C18.9454 22.2701 15.2612 18.5859 11.577 14.9017C11.428 14.7527 11.2195 14.6633 11.0407 14.5442C10.8719 14.3158 10.7329 14.0576 10.5243 13.859C7.29691 10.5918 4.04963 7.35446 0.812269 4.1171C-0.220507 3.0744 -0.27016 1.69405 0.673242 0.710928C1.62657 -0.272196 3.08636 -0.232473 4.12907 0.810234C8.05163 4.72287 11.9643 8.64543 15.8868 12.5581C16.1053 12.7765 16.3834 12.9255 16.6416 13.1042C16.7309 13.2631 16.8004 13.4617 16.9295 13.5908C20.6634 17.3247 24.3973 21.0487 28.1312 24.7726C28.5284 25.15 28.9356 25.5373 29.3328 25.9246C32.4708 29.0726 35.6089 32.2106 38.737 35.3586C38.9158 35.5572 39.0945 35.7657 39.2832 35.9544C42.8483 39.5294 46.4233 43.0945 49.9883 46.6595C50.177 46.8482 50.3458 47.0568 50.5246 47.2554C49.2832 48.1988 48.0519 49.1323 46.8105 50.0757Z" fill="#D8E2DC"/>
<path d="M50.5246 47.2553C50.7233 47.434 50.9318 47.6029 51.1205 47.7915C54.6359 51.307 58.1513 54.8224 61.6667 58.3278C61.8753 58.5364 62.1037 58.7251 62.3221 58.9137C63.2655 59.877 64.199 60.8403 65.1424 61.8035C66.205 62.886 66.2646 64.2762 65.2814 65.2594C64.2983 66.2425 62.8981 66.1928 61.8256 65.1303C59.7203 63.0448 57.6151 60.9594 55.5098 58.874C53.2853 56.6297 51.0609 54.3755 48.8265 52.1312C48.1711 51.4758 47.4859 50.8402 46.8206 50.1947C46.8206 50.155 46.8206 50.1153 46.8206 50.0656C48.0619 49.1222 49.2933 48.1888 50.5346 47.2454L50.5246 47.2553Z" fill="#ADB5B0"/>
</g>
</svg>
