<svg width="66" height="66" viewBox="0 0 66 66" fill="none" xmlns="http://www.w3.org/2000/svg">
<g opacity="0.5">
<path d="M2.38125 51.8333C2.38125 47.0567 2.36139 42.29 2.36139 37.5134C2.36139 37.3247 2.44083 37.1361 2.48056 36.9474C2.86785 35.8947 3.67222 35.3386 4.86389 35.3287C7.21742 35.3287 9.57096 35.3287 11.9245 35.3287C18.5978 35.3287 25.2612 35.3188 31.9345 35.3088C32.153 35.5074 32.3814 35.6862 32.59 35.8947C36.7509 40.0556 40.9118 44.2165 45.0727 48.3774C45.6486 48.9435 46.2345 49.5095 46.8105 50.0656C46.8105 50.1053 46.8105 50.1451 46.8105 50.1947C46.6715 50.2444 46.5324 50.2841 46.4033 50.3437C44.3179 51.3467 42.1332 51.8333 39.8194 51.8333C27.3367 51.8333 14.854 51.8333 2.37132 51.8333H2.38125Z" fill="#FF6E6E"/>
<path d="M20.3257 12.2303C23.7319 11.3763 27.148 10.5223 30.5542 9.66826C38.2404 7.74174 45.9366 5.81521 53.6229 3.89862C53.8115 3.84896 54.0101 3.84896 54.1988 3.8291C54.1988 8.63548 54.1988 13.4518 54.1988 18.2582C52.1432 18.7944 50.0876 19.3505 48.022 19.8669C42.6794 21.2175 37.3368 22.5482 31.9941 23.8888C31.9346 23.8888 31.8849 23.8689 31.8352 23.859C30.8621 22.866 29.8988 21.863 28.9157 20.8699C26.0557 17.9901 23.1957 15.1102 20.3257 12.2303Z" fill="#FF6E6E"/>
<path d="M2.38127 51.8334C14.864 51.8334 27.3467 51.8334 39.8293 51.8334C42.1432 51.8334 44.3378 51.3468 46.4133 50.3438C46.5424 50.2842 46.6914 50.2445 46.8204 50.1948C47.4858 50.8403 48.171 51.4759 48.8264 52.1313C51.0608 54.3756 53.2852 56.6199 55.5097 58.8741C55.3111 58.8741 55.1224 58.894 54.9238 58.894C38.2603 58.894 21.5969 58.894 4.94335 58.9039C3.77154 58.9039 2.99696 58.4074 2.51037 57.3845C2.43092 57.2157 2.37134 57.0171 2.37134 56.8284C2.37134 55.1601 2.37134 53.4918 2.37134 51.8234L2.38127 51.8334Z" fill="#E01E1E"/>
<path d="M46.8105 50.0757C46.2346 49.5096 45.6487 48.9535 45.0727 48.3875C40.9118 44.2266 36.7509 40.0657 32.59 35.9048C32.3815 35.6962 32.1531 35.5175 31.9346 35.3189C28.8958 32.2702 25.8472 29.2215 22.8084 26.1828C22.7488 26.1033 22.6992 26.0239 22.6297 25.9544C18.9454 22.2701 15.2612 18.5859 11.577 14.9017C11.428 14.7527 11.2195 14.6633 11.0407 14.5442C10.8719 14.3158 10.7329 14.0576 10.5243 13.859C7.29691 10.5918 4.04963 7.35446 0.812269 4.1171C-0.220507 3.0744 -0.27016 1.69405 0.673242 0.710928C1.62657 -0.272196 3.08636 -0.232473 4.12907 0.810234C8.05163 4.72287 11.9643 8.64543 15.8868 12.5581C16.1053 12.7765 16.3834 12.9255 16.6416 13.1042C16.7309 13.2631 16.8004 13.4617 16.9295 13.5908C20.6634 17.3247 24.3973 21.0487 28.1312 24.7726C28.5284 25.15 28.9356 25.5373 29.3328 25.9246C32.4708 29.0726 35.6089 32.2106 38.737 35.3586C38.9158 35.5572 39.0945 35.7657 39.2832 35.9544C42.8483 39.5294 46.4233 43.0945 49.9883 46.6595C50.177 46.8482 50.3458 47.0568 50.5246 47.2554C49.2833 48.1988 48.0519 49.1323 46.8105 50.0757Z" fill="#D8E2DC"/>
<path d="M50.5246 47.2554C50.3458 47.0568 50.177 46.8483 49.9883 46.6596C46.4232 43.0846 42.8482 39.5196 39.2832 35.9545C39.0945 35.7658 38.9257 35.5573 38.737 35.3587C40.2564 35.3487 41.7757 35.3289 43.2852 35.3189C43.3448 35.3388 43.3944 35.3487 43.454 35.3686C43.5434 35.4778 43.6328 35.597 43.7321 35.7062C46.4828 38.457 49.2336 41.2077 51.9943 43.9585C52.1234 44.0876 52.2823 44.1968 52.5007 44.3657C52.7986 43.7301 53.0866 43.1641 53.325 42.5782C54.2684 40.2544 54.2386 37.8115 54.2088 35.3587V35.2991C57.1979 35.309 60.2068 35.3189 63.2059 35.3388C63.4938 35.3388 63.7818 35.3785 64.0698 35.4282C64.9934 35.5672 65.47 36.2723 65.9665 36.9475C65.9665 41.9923 65.9864 47.037 65.9864 52.0817C65.9864 53.4025 65.9467 54.7232 65.9864 56.044C66.046 57.8315 64.904 59.0728 63.1264 58.904C62.8583 58.8742 62.5902 58.904 62.322 58.9238C62.1036 58.7252 61.8752 58.5465 61.6666 58.3379C58.1512 54.8225 54.6358 51.3071 51.1204 47.8016C50.9317 47.6129 50.7232 47.4441 50.5246 47.2654V47.2554Z" fill="#E01E1E"/>
<path d="M11.0407 14.5342C11.2195 14.6533 11.428 14.7427 11.577 14.8917C15.2612 18.566 18.9454 22.2601 22.6297 25.9444C22.6992 26.0139 22.7488 26.0933 22.8084 26.1728C20.5145 26.7388 18.2205 27.3049 15.9266 27.8709C12.3814 28.7547 8.83615 29.6485 5.29094 30.5323C4.0099 30.8501 2.93741 30.2542 2.4806 29.003C1.80532 26.3515 1.12012 23.7001 0.444839 21.0486C0.345534 20.6514 0.246228 20.2542 0.146923 19.847C-0.190715 18.427 0.524284 17.1459 1.90463 16.7983C4.94338 16.0238 7.99205 15.2889 11.0407 14.5342Z" fill="#FF6E6E"/>
<path d="M2.48056 29.0031C2.93736 30.2642 4.00986 30.8501 5.2909 30.5324C8.8361 29.6485 12.3813 28.7548 15.9265 27.871C18.2205 27.295 20.5144 26.7389 22.8084 26.1729C25.8471 29.2215 28.8958 32.2702 31.9345 35.309C25.2612 35.309 18.5978 35.3189 11.9245 35.3288C9.57096 35.3288 7.21742 35.3288 4.86389 35.3288C3.67222 35.3288 2.86785 35.8849 2.48056 36.9475C2.44083 36.8184 2.36139 36.6992 2.36139 36.5701C2.36139 34.1769 2.36139 31.7737 2.36139 29.3804C2.36139 29.2513 2.44083 29.1322 2.48056 29.0031Z" fill="#073B4C"/>
<path d="M43.454 35.3587C43.3944 35.3389 43.3448 35.3289 43.2852 35.3091C42.9178 34.9218 42.5503 34.5246 42.173 34.1472C39.452 31.4064 36.731 28.6656 34.0101 25.9347C40.3656 25.9347 46.7311 25.9148 53.0866 25.9148C53.4541 25.9148 53.8215 25.9347 54.1889 25.9347C54.1889 29.0628 54.1889 32.181 54.1889 35.3091L54.1989 35.3687C50.6139 35.3687 47.0389 35.3687 43.454 35.3687V35.3587Z" fill="#073B4C"/>
<path d="M54.1988 18.2483C54.1988 13.4419 54.1988 8.6256 54.1988 3.81922C55.8771 3.37235 57.5355 2.81624 59.2435 2.52825C60.455 2.31971 61.5375 3.03471 61.8552 4.33561C62.5504 7.19561 63.2554 10.0556 63.9704 12.9156C64.467 14.8918 63.9109 15.855 61.895 16.3814C59.5514 16.9871 57.1978 17.5929 54.8542 18.1788C54.6457 18.2284 54.4173 18.2284 54.1988 18.2483Z" fill="#E01E1E"/>
<path d="M54.1889 35.2991C54.1889 32.171 54.1889 29.0528 54.1889 25.9246C57.2972 25.9246 60.4054 25.8154 63.5137 25.9346C65.2317 26.0041 65.8772 26.6794 65.9467 28.4271C66.0559 31.2573 65.9666 34.0975 65.9467 36.9376C65.4502 36.2623 64.9834 35.5573 64.05 35.4182C63.762 35.3785 63.474 35.3388 63.186 35.3289C60.177 35.309 57.178 35.309 54.1691 35.2891L54.1889 35.2991Z" fill="#062F3D"/>
<path d="M50.5246 47.2553C50.7232 47.434 50.9317 47.6029 51.1204 47.7915C54.6358 51.307 58.1512 54.8224 61.6667 58.3278C61.8752 58.5364 62.1036 58.7251 62.3221 58.9137C63.2655 59.877 64.1989 60.8403 65.1423 61.8035C66.2049 62.886 66.2645 64.2762 65.2814 65.2594C64.2982 66.2425 62.898 66.1928 61.8255 65.1303C59.7203 63.0448 57.615 60.9594 55.5097 58.874C53.2853 56.6297 51.0608 54.3755 48.8265 52.1312C48.171 51.4758 47.4858 50.8402 46.8205 50.1947C46.8205 50.155 46.8205 50.1153 46.8205 50.0656C48.0618 49.1222 49.2932 48.1888 50.5345 47.2454L50.5246 47.2553Z" fill="#ADB5B0"/>
<path d="M28.1312 24.7727C24.3973 21.0488 20.6634 17.3248 16.9295 13.591C16.8004 13.4619 16.7408 13.2732 16.6415 13.1044C17.863 12.8164 19.0944 12.5185 20.3158 12.2305C23.1758 15.1103 26.0458 17.9803 28.9058 20.87C29.8889 21.8631 30.8521 22.8661 31.8253 23.8591C30.594 24.167 29.3626 24.4649 28.1312 24.7727Z" fill="#E01E1E"/>
<path d="M34.02 25.9245C36.741 28.6653 39.4619 31.3962 42.1829 34.1371C42.5603 34.5144 42.9277 34.9116 43.2951 35.2989C41.7758 35.3089 40.2564 35.3287 38.7469 35.3386C35.6089 32.1907 32.4708 29.0526 29.3427 25.9046C30.8124 25.8848 32.2822 25.8748 33.7419 25.855C33.8412 25.8748 33.9306 25.8947 34.0299 25.9146L34.02 25.9245Z" fill="#07303E"/>
<path d="M43.454 35.3586C47.0389 35.3586 50.6139 35.3586 54.1989 35.3586C54.2386 37.8016 54.2684 40.2544 53.3151 42.5781C53.0767 43.164 52.7887 43.7202 52.4908 44.3656C52.2723 44.1968 52.1135 44.0876 51.9844 43.9585C49.2336 41.2077 46.4729 38.457 43.7221 35.7062C43.6228 35.6069 43.5335 35.4877 43.4441 35.3686L43.454 35.3586Z" fill="#FF6E6E"/>
</g>
</svg>
