<svg width="40" height="41" viewBox="0 0 40 41" fill="none" xmlns="http://www.w3.org/2000/svg">
<path d="M23.6559 22.3295C24.2826 21.8081 25.0223 21.5706 25.8185 21.5667C29.0816 21.5513 32.3447 21.559 35.6079 21.5616C37.5894 21.5616 39.5645 23.2323 39.8983 25.1946C39.9561 25.5374 39.9908 25.8893 39.9921 26.2373C39.9998 29.3733 40.0062 32.508 39.9895 35.644C39.9857 36.4684 39.7828 37.2531 39.2267 37.9042C39.1946 37.9376 39.1638 37.9709 39.1317 38.0043L39.1355 38.003C39.0418 38.0172 38.9378 38.0108 38.8556 38.0506C38.1159 38.3973 37.339 38.4936 36.5261 38.4885C33.611 38.4718 30.6958 38.4602 27.782 38.4885C25.1892 38.5129 23.0472 36.3708 23.0716 33.7781C23.0999 30.7679 23.0575 27.7565 23.0947 24.7451C23.1024 24.1068 23.3259 23.4725 23.453 22.8368C23.4813 22.6981 23.5211 22.562 23.557 22.4246L23.5558 22.4284C23.5891 22.3963 23.6225 22.3642 23.6559 22.3334V22.3295Z" fill="#DFE8F4"/>
<path d="M2.12521 0.796172C2.72621 0.24397 3.48388 0.0487725 4.25054 0.0423515C7.54962 0.011531 10.8513 -0.0411199 14.1478 0.0551942C16.164 0.114267 17.9079 1.53073 18.3676 3.76522C18.4306 4.07342 18.4614 4.39447 18.4614 4.7091C18.4678 7.78473 18.4716 10.8591 18.4614 13.9347C18.4588 14.8182 18.2058 15.6375 17.696 16.3695C17.6652 16.4055 17.6344 16.4427 17.6035 16.4787L17.6125 16.4735C17.4892 16.4992 17.3672 16.5262 17.244 16.5506C16.5621 16.6829 15.8814 16.9192 15.197 16.9294C12.1907 16.9718 9.18182 16.9551 6.17554 16.9397C5.75176 16.9371 5.31256 16.8794 4.90676 16.7574C2.8328 16.1345 1.54732 14.3803 1.54732 12.2203C1.54732 9.16523 1.54604 6.11015 1.55118 3.05378C1.55118 2.81749 1.57557 2.57606 1.62951 2.34619C1.74509 1.85434 1.88763 1.36763 2.0199 0.879643L2.01605 0.8912C2.05329 0.86038 2.08925 0.829559 2.12649 0.798739L2.12521 0.796172Z" fill="#0795FF"/>
<path d="M23.6572 0.796172C24.2582 0.24397 25.0159 0.0487725 25.7825 0.0423515C29.0816 0.011531 32.3833 -0.0411199 35.6798 0.0551942C37.6959 0.114267 39.4399 1.53073 39.8996 3.76522C39.9625 4.07342 39.9934 4.39447 39.9934 4.7091C39.9998 7.78473 40.0036 10.8591 39.9934 13.9347C39.9908 14.8182 39.7378 15.6375 39.228 16.3695C39.1972 16.4055 39.1663 16.4427 39.1355 16.4787L39.1445 16.4735C39.0212 16.4992 38.8992 16.5262 38.7759 16.5506C38.094 16.6829 37.4134 16.9192 36.7289 16.9294C33.7227 16.9718 30.7138 16.9551 27.7075 16.9397C27.2837 16.9371 26.8445 16.8794 26.4387 16.7574C24.3635 16.1345 23.0793 14.3816 23.0793 12.2203C23.0793 9.16523 23.078 6.11015 23.0832 3.05378C23.0832 2.81749 23.1076 2.57606 23.1615 2.34619C23.2771 1.85434 23.4196 1.36763 23.5519 0.879643L23.548 0.8912C23.5853 0.86038 23.6212 0.829559 23.6585 0.798739L23.6572 0.796172Z" fill="#0795FF"/>
<path d="M2.12521 22.3282C2.72621 21.776 3.48388 21.5808 4.25054 21.5743C7.54962 21.5435 10.8513 21.4909 14.1478 21.5872C16.164 21.6462 17.9079 23.0627 18.3676 25.2972C18.4306 25.6054 18.4614 25.9264 18.4614 26.2411C18.4678 29.3167 18.4716 32.3911 18.4614 35.4667C18.4588 36.3502 18.2058 37.1695 17.696 37.9015C17.6652 37.9375 17.6344 37.9747 17.6035 38.0107L17.6125 38.0055C17.4892 38.0312 17.3672 38.0582 17.244 38.0826C16.5621 38.2148 15.8814 38.4511 15.197 38.4614C12.1907 38.5038 9.18182 38.4871 6.17554 38.4717C5.75176 38.4691 5.31256 38.4113 4.90676 38.2893C2.8328 37.6665 1.54732 35.9123 1.54732 33.7523C1.54732 30.6972 1.54604 27.6421 1.55118 24.5858C1.55118 24.3495 1.57557 24.108 1.62951 23.8782C1.74509 23.3863 1.88763 22.8996 2.0199 22.4116L2.01605 22.4232C2.05329 22.3924 2.08925 22.3615 2.12649 22.3307L2.12521 22.3282Z" fill="#0795FF"/>
<path d="M2.01862 0.877143C1.88635 1.36514 1.7438 1.85184 1.62822 2.34369C1.57429 2.57356 1.54989 2.81499 1.54989 3.05128C1.54475 6.10636 1.54604 9.16145 1.54604 12.2178C1.54604 14.3791 2.83151 16.132 4.90547 16.7549C5.31128 16.8769 5.74919 16.9346 6.17425 16.9372C9.18182 16.9526 12.1894 16.9693 15.1957 16.9269C15.8802 16.9179 16.5608 16.6817 17.2427 16.5481C17.366 16.5237 17.488 16.4967 17.6112 16.471C16.7585 17.7437 15.536 18.4371 14.0348 18.4615C10.7678 18.5155 7.49697 18.5399 4.23127 18.4564C2.52587 18.4127 1.30718 17.4136 0.494285 15.9278C0.102607 15.2125 0.00115641 14.4433 0.00372479 13.6407C0.0139983 10.4842 -0.021959 7.32891 0.0242718 4.17237C0.0409662 3.04742 0.611146 2.10354 1.42147 1.32661C1.59997 1.15453 1.81828 1.02354 2.01862 0.873291V0.877143Z" fill="#156CDD"/>
<path d="M23.5506 0.877143C23.4183 1.36514 23.2758 1.85184 23.1602 2.34369C23.1063 2.57356 23.0819 2.81499 23.0819 3.05128C23.0767 6.10636 23.078 9.16145 23.078 12.2178C23.078 14.3791 24.3635 16.132 26.4375 16.7549C26.8433 16.8769 27.2812 16.9346 27.7062 16.9372C30.7138 16.9526 33.7214 16.9693 36.7277 16.9269C37.4121 16.9179 38.0928 16.6817 38.7747 16.5481C38.8979 16.5237 39.0199 16.4967 39.1432 16.471C38.2905 17.7437 37.068 18.4371 35.5668 18.4615C32.2998 18.5155 29.0289 18.5399 25.7633 18.4564C24.0579 18.4127 22.8392 17.4136 22.0263 15.9278C21.6346 15.2125 21.5331 14.4433 21.5357 13.6407C21.546 10.4842 21.51 7.32891 21.5563 4.17237C21.5729 3.04742 22.1431 2.10354 22.9535 1.32661C23.132 1.15453 23.3503 1.02354 23.5506 0.873291V0.877143Z" fill="#156CDD"/>
<path d="M2.01862 22.4103C1.88635 22.8983 1.7438 23.385 1.62822 23.8769C1.57429 24.1068 1.54989 24.3482 1.54989 24.5845C1.54475 27.6396 1.54604 30.6947 1.54604 33.751C1.54604 35.9123 2.83151 37.6652 4.90547 38.2881C5.31128 38.4101 5.74919 38.4678 6.17425 38.4704C9.18182 38.4858 12.1894 38.5025 15.1957 38.4601C15.8802 38.4512 16.5608 38.2149 17.2427 38.0813C17.366 38.0569 17.488 38.0299 17.6112 38.0043C16.7585 39.2769 15.536 39.9703 14.0348 39.9947C10.7678 40.0487 7.49697 40.0731 4.23127 39.9896C2.52587 39.9459 1.30718 38.9468 0.494285 37.461C0.102607 36.7457 0.00115641 35.9765 0.00372479 35.1739C0.0139983 32.0174 -0.021959 28.8621 0.0242718 25.7056C0.0409662 24.5806 0.611146 23.6367 1.42147 22.8598C1.59997 22.6877 1.81828 22.5567 2.01862 22.4065V22.4103Z" fill="#156CDD"/>
<path d="M23.5583 22.4207C23.5236 22.5581 23.4826 22.6942 23.4543 22.8329C23.3272 23.4686 23.1037 24.1042 23.096 24.7412C23.0575 27.7513 23.0999 30.7627 23.0729 33.7742C23.0485 36.3669 25.1905 38.509 27.7833 38.4846C30.6984 38.4563 33.6135 38.4679 36.5273 38.4846C37.3389 38.4897 38.1172 38.3934 38.8569 38.0467C38.939 38.0081 39.0431 38.0146 39.1368 37.9991C38.4947 39.0612 37.5097 39.6339 36.3373 39.9087C35.97 39.9948 35.5796 40.0102 35.1995 40.0115C32.2227 40.0192 29.2473 40.0166 26.2705 40.0153C24.0887 40.0153 22.3268 38.7042 21.7168 36.6071C21.6153 36.2591 21.5511 35.8879 21.5498 35.5271C21.537 32.3423 21.5023 29.1575 21.5601 25.974C21.5871 24.4792 22.26 23.249 23.5596 22.4207H23.5583Z" fill="#CCD8E5"/>
<path d="M23.6559 22.3293C23.6225 22.3615 23.5891 22.3936 23.5558 22.4244C23.5891 22.3923 23.6225 22.3602 23.6559 22.3293Z" fill="#CCD8E5"/>
</svg>
