<svg width="276" height="167" viewBox="0 0 276 167" fill="none" xmlns="http://www.w3.org/2000/svg">
<g filter="url(#filter0_d_38_895)">
<rect x="21" y="39" width="234" height="107" rx="15" fill="white"/>
<rect x="21" y="21" width="234" height="59" rx="15" fill="#272D2E"/>
<path d="M52 41C46.49 41 42 45.49 42 51C42 56.51 46.49 61 52 61C57.51 61 62 56.51 62 51C62 45.49 57.51 41 52 41ZM53.79 54C54.08 54.29 54.08 54.77 53.79 55.06C53.64 55.21 53.45 55.28 53.26 55.28C53.07 55.28 52.88 55.21 52.73 55.06L49.2 51.53C48.91 51.24 48.91 50.76 49.2 50.47L52.73 46.94C53.02 46.65 53.5 46.65 53.79 46.94C54.08 47.23 54.08 47.71 53.79 48L50.79 51L53.79 54Z" fill="white"/>
<path d="M80.8252 46.0469H82.5615L85.1182 53.3545L87.6748 46.0469H89.4111L85.8154 56H84.4209L80.8252 46.0469ZM79.8887 46.0469H81.6182L81.9326 53.1699V56H79.8887V46.0469ZM88.6182 46.0469H90.3545V56H88.3037V53.1699L88.6182 46.0469ZM96.3975 46.0469V56H94.3535V46.0469H96.3975ZM99.46 46.0469V47.6533H91.3389V46.0469H99.46ZM103.746 46.0469H107.458C108.219 46.0469 108.873 46.1608 109.42 46.3887C109.971 46.6165 110.395 46.9538 110.691 47.4004C110.988 47.847 111.136 48.3962 111.136 49.0479C111.136 49.5811 111.045 50.0391 110.862 50.4219C110.685 50.8001 110.432 51.1169 110.104 51.3721C109.78 51.6227 109.399 51.8232 108.962 51.9736L108.312 52.3154H105.086L105.072 50.7158H107.472C107.832 50.7158 108.13 50.652 108.367 50.5244C108.604 50.3968 108.782 50.2191 108.9 49.9912C109.023 49.7633 109.085 49.499 109.085 49.1982C109.085 48.8792 109.026 48.6035 108.907 48.3711C108.789 48.1387 108.609 47.9609 108.367 47.8379C108.126 47.7148 107.823 47.6533 107.458 47.6533H105.797V56H103.746V46.0469ZM109.311 56L107.041 51.5635L109.208 51.5498L111.505 55.9043V56H109.311ZM115.996 56.1367C115.422 56.1367 114.907 56.0456 114.451 55.8633C113.995 55.6764 113.608 55.4189 113.289 55.0908C112.975 54.7627 112.733 54.3822 112.564 53.9492C112.396 53.5117 112.312 53.0469 112.312 52.5547V52.2812C112.312 51.7207 112.391 51.208 112.551 50.7432C112.71 50.2783 112.938 49.875 113.234 49.5332C113.535 49.1914 113.9 48.9294 114.328 48.7471C114.757 48.5602 115.24 48.4668 115.777 48.4668C116.301 48.4668 116.766 48.5534 117.172 48.7266C117.577 48.8997 117.917 49.1458 118.19 49.4648C118.468 49.7839 118.678 50.1667 118.819 50.6133C118.961 51.0553 119.031 51.5475 119.031 52.0898V52.9102H113.152V51.5977H117.097V51.4473C117.097 51.1738 117.047 50.93 116.946 50.7158C116.851 50.4971 116.705 50.3239 116.509 50.1963C116.313 50.0687 116.062 50.0049 115.757 50.0049C115.497 50.0049 115.274 50.0618 115.087 50.1758C114.9 50.2897 114.747 50.4492 114.629 50.6543C114.515 50.8594 114.428 51.1009 114.369 51.3789C114.314 51.6523 114.287 51.9531 114.287 52.2812V52.5547C114.287 52.8509 114.328 53.1243 114.41 53.375C114.497 53.6257 114.618 53.8421 114.772 54.0244C114.932 54.2067 115.123 54.348 115.347 54.4482C115.575 54.5485 115.832 54.5986 116.119 54.5986C116.475 54.5986 116.805 54.5303 117.11 54.3936C117.42 54.2523 117.687 54.0404 117.91 53.7578L118.867 54.7969C118.712 55.0202 118.5 55.2344 118.231 55.4395C117.967 55.6445 117.648 55.8132 117.274 55.9453C116.901 56.0729 116.475 56.1367 115.996 56.1367ZM123.208 54.5986C123.45 54.5986 123.664 54.5531 123.851 54.4619C124.037 54.3662 124.183 54.234 124.288 54.0654C124.397 53.8923 124.454 53.6895 124.459 53.457H126.312C126.307 53.9766 126.168 54.4391 125.895 54.8447C125.621 55.2458 125.254 55.5625 124.794 55.7949C124.334 56.0228 123.819 56.1367 123.249 56.1367C122.675 56.1367 122.174 56.041 121.745 55.8496C121.321 55.6582 120.968 55.3939 120.686 55.0566C120.403 54.7148 120.191 54.3184 120.05 53.8672C119.909 53.4115 119.838 52.9238 119.838 52.4043V52.2061C119.838 51.682 119.909 51.1943 120.05 50.7432C120.191 50.2874 120.403 49.891 120.686 49.5537C120.968 49.2119 121.321 48.9453 121.745 48.7539C122.169 48.5625 122.666 48.4668 123.235 48.4668C123.841 48.4668 124.372 48.583 124.828 48.8154C125.288 49.0479 125.648 49.3805 125.908 49.8135C126.173 50.2419 126.307 50.75 126.312 51.3379H124.459C124.454 51.0918 124.402 50.8685 124.302 50.668C124.206 50.4674 124.065 50.3079 123.878 50.1895C123.696 50.0664 123.47 50.0049 123.201 50.0049C122.914 50.0049 122.679 50.0664 122.497 50.1895C122.315 50.3079 122.174 50.472 122.073 50.6816C121.973 50.8867 121.902 51.1214 121.861 51.3857C121.825 51.6455 121.807 51.9189 121.807 52.2061V52.4043C121.807 52.6914 121.825 52.9671 121.861 53.2314C121.898 53.4958 121.966 53.7305 122.066 53.9355C122.171 54.1406 122.315 54.3024 122.497 54.4209C122.679 54.5394 122.916 54.5986 123.208 54.5986ZM127.139 52.377V52.2334C127.139 51.6911 127.216 51.1921 127.371 50.7363C127.526 50.276 127.752 49.8773 128.048 49.54C128.344 49.2028 128.709 48.9408 129.142 48.7539C129.575 48.5625 130.071 48.4668 130.632 48.4668C131.192 48.4668 131.691 48.5625 132.129 48.7539C132.566 48.9408 132.933 49.2028 133.229 49.54C133.53 49.8773 133.758 50.276 133.913 50.7363C134.068 51.1921 134.146 51.6911 134.146 52.2334V52.377C134.146 52.9147 134.068 53.4137 133.913 53.874C133.758 54.3298 133.53 54.7285 133.229 55.0703C132.933 55.4076 132.569 55.6696 132.136 55.8564C131.703 56.0433 131.206 56.1367 130.646 56.1367C130.085 56.1367 129.586 56.0433 129.148 55.8564C128.715 55.6696 128.349 55.4076 128.048 55.0703C127.752 54.7285 127.526 54.3298 127.371 53.874C127.216 53.4137 127.139 52.9147 127.139 52.377ZM129.107 52.2334V52.377C129.107 52.6868 129.135 52.9762 129.189 53.2451C129.244 53.514 129.331 53.751 129.449 53.9561C129.572 54.1566 129.732 54.3138 129.928 54.4277C130.124 54.5417 130.363 54.5986 130.646 54.5986C130.919 54.5986 131.154 54.5417 131.35 54.4277C131.546 54.3138 131.703 54.1566 131.821 53.9561C131.94 53.751 132.026 53.514 132.081 53.2451C132.14 52.9762 132.17 52.6868 132.17 52.377V52.2334C132.17 51.9326 132.14 51.6501 132.081 51.3857C132.026 51.1169 131.938 50.8799 131.814 50.6748C131.696 50.4652 131.539 50.3011 131.343 50.1826C131.147 50.0641 130.91 50.0049 130.632 50.0049C130.354 50.0049 130.117 50.0641 129.921 50.1826C129.729 50.3011 129.572 50.4652 129.449 50.6748C129.331 50.8799 129.244 51.1169 129.189 51.3857C129.135 51.6501 129.107 51.9326 129.107 52.2334ZM137.324 50.2168V56H135.355V48.6035H137.208L137.324 50.2168ZM139.553 48.5557L139.519 50.3809C139.423 50.3672 139.307 50.3558 139.17 50.3467C139.038 50.333 138.917 50.3262 138.808 50.3262C138.53 50.3262 138.288 50.3626 138.083 50.4355C137.882 50.5039 137.714 50.6064 137.577 50.7432C137.445 50.8799 137.345 51.0462 137.276 51.2422C137.213 51.4382 137.176 51.6615 137.167 51.9121L136.771 51.7891C136.771 51.3105 136.818 50.8708 136.914 50.4697C137.01 50.0641 137.149 49.7109 137.331 49.4102C137.518 49.1094 137.746 48.877 138.015 48.7129C138.284 48.5488 138.591 48.4668 138.938 48.4668C139.047 48.4668 139.159 48.4759 139.272 48.4941C139.386 48.5078 139.48 48.5283 139.553 48.5557ZM144.714 54.3867V45.5H146.696V56H144.912L144.714 54.3867ZM140.038 52.3906V52.2471C140.038 51.682 140.102 51.1693 140.229 50.709C140.357 50.2441 140.544 49.8454 140.79 49.5127C141.036 49.18 141.339 48.9225 141.699 48.7402C142.059 48.5579 142.469 48.4668 142.93 48.4668C143.363 48.4668 143.741 48.5579 144.064 48.7402C144.393 48.9225 144.671 49.1823 144.898 49.5195C145.131 49.8522 145.318 50.2464 145.459 50.7021C145.6 51.1533 145.703 51.6478 145.767 52.1855V52.5C145.703 53.015 145.6 53.4935 145.459 53.9355C145.318 54.3776 145.131 54.765 144.898 55.0977C144.671 55.4258 144.393 55.681 144.064 55.8633C143.736 56.0456 143.354 56.1367 142.916 56.1367C142.456 56.1367 142.046 56.0433 141.686 55.8564C141.33 55.6696 141.029 55.4076 140.783 55.0703C140.542 54.7331 140.357 54.3366 140.229 53.8809C140.102 53.4251 140.038 52.9284 140.038 52.3906ZM142.007 52.2471V52.3906C142.007 52.696 142.03 52.9808 142.075 53.2451C142.125 53.5094 142.205 53.7441 142.314 53.9492C142.428 54.1497 142.574 54.307 142.752 54.4209C142.934 54.5303 143.155 54.585 143.415 54.585C143.752 54.585 144.03 54.5098 144.249 54.3594C144.468 54.2044 144.634 53.9925 144.748 53.7236C144.867 53.4548 144.935 53.1449 144.953 52.7939V51.8984C144.939 51.6113 144.898 51.3538 144.83 51.126C144.766 50.8936 144.671 50.6953 144.543 50.5312C144.42 50.3672 144.265 50.2396 144.078 50.1484C143.896 50.0573 143.679 50.0117 143.429 50.0117C143.174 50.0117 142.955 50.071 142.772 50.1895C142.59 50.3034 142.442 50.4606 142.328 50.6611C142.219 50.8617 142.137 51.0986 142.082 51.3721C142.032 51.641 142.007 51.9326 142.007 52.2471ZM151.639 56.1367C151.064 56.1367 150.549 56.0456 150.094 55.8633C149.638 55.6764 149.251 55.4189 148.932 55.0908C148.617 54.7627 148.376 54.3822 148.207 53.9492C148.038 53.5117 147.954 53.0469 147.954 52.5547V52.2812C147.954 51.7207 148.034 51.208 148.193 50.7432C148.353 50.2783 148.581 49.875 148.877 49.5332C149.178 49.1914 149.542 48.9294 149.971 48.7471C150.399 48.5602 150.882 48.4668 151.42 48.4668C151.944 48.4668 152.409 48.5534 152.814 48.7266C153.22 48.8997 153.56 49.1458 153.833 49.4648C154.111 49.7839 154.321 50.1667 154.462 50.6133C154.603 51.0553 154.674 51.5475 154.674 52.0898V52.9102H148.795V51.5977H152.739V51.4473C152.739 51.1738 152.689 50.93 152.589 50.7158C152.493 50.4971 152.347 50.3239 152.151 50.1963C151.955 50.0687 151.705 50.0049 151.399 50.0049C151.14 50.0049 150.916 50.0618 150.729 50.1758C150.543 50.2897 150.39 50.4492 150.271 50.6543C150.158 50.8594 150.071 51.1009 150.012 51.3789C149.957 51.6523 149.93 51.9531 149.93 52.2812V52.5547C149.93 52.8509 149.971 53.1243 150.053 53.375C150.139 53.6257 150.26 53.8421 150.415 54.0244C150.575 54.2067 150.766 54.348 150.989 54.4482C151.217 54.5485 151.475 54.5986 151.762 54.5986C152.117 54.5986 152.448 54.5303 152.753 54.3936C153.063 54.2523 153.329 54.0404 153.553 53.7578L154.51 54.7969C154.355 55.0202 154.143 55.2344 153.874 55.4395C153.61 55.6445 153.291 55.8132 152.917 55.9453C152.543 56.0729 152.117 56.1367 151.639 56.1367ZM157.764 50.2168V56H155.795V48.6035H157.647L157.764 50.2168ZM159.992 48.5557L159.958 50.3809C159.862 50.3672 159.746 50.3558 159.609 50.3467C159.477 50.333 159.356 50.3262 159.247 50.3262C158.969 50.3262 158.728 50.3626 158.522 50.4355C158.322 50.5039 158.153 50.6064 158.017 50.7432C157.884 50.8799 157.784 51.0462 157.716 51.2422C157.652 51.4382 157.616 51.6615 157.606 51.9121L157.21 51.7891C157.21 51.3105 157.258 50.8708 157.354 50.4697C157.449 50.0641 157.588 49.7109 157.771 49.4102C157.957 49.1094 158.185 48.877 158.454 48.7129C158.723 48.5488 159.031 48.4668 159.377 48.4668C159.486 48.4668 159.598 48.4759 159.712 48.4941C159.826 48.5078 159.919 48.5283 159.992 48.5557Z" fill="white"/>
<path d="M61.0169 108.992C61.4148 109.558 60.9405 110.25 60.2482 110.25H43C42.4477 110.25 42 109.802 42 109.25V107.42C42 104.98 43.98 103 46.42 103H48.74C50.37 103 50.88 103.53 51.53 104.4L52.93 106.26C53.24 106.67 53.28 106.72 53.86 106.72H56.65C58.4546 106.72 60.0516 107.617 61.0169 108.992Z" fill="#717171"/>
<path d="M60.9834 111.75C61.5343 111.75 61.9815 112.195 61.9834 112.746L62 117.65C62 120.6 59.6 123 56.65 123H47.35C44.4 123 42 120.6 42 117.65V112.75C42 112.198 42.4477 111.75 43 111.75L60.9834 111.75Z" fill="#717171"/>
<path d="M78.46 115.484C78.46 115.252 78.4235 115.047 78.3506 114.869C78.2822 114.687 78.1592 114.523 77.9814 114.377C77.8083 114.231 77.5667 114.092 77.2568 113.96C76.9515 113.828 76.5641 113.693 76.0947 113.557C75.6025 113.411 75.1582 113.249 74.7617 113.071C74.3652 112.889 74.0257 112.682 73.7432 112.449C73.4606 112.217 73.2441 111.95 73.0938 111.649C72.9434 111.349 72.8682 111.005 72.8682 110.617C72.8682 110.23 72.9479 109.872 73.1074 109.544C73.2669 109.216 73.4948 108.931 73.791 108.689C74.0918 108.443 74.4495 108.252 74.8643 108.115C75.279 107.979 75.7415 107.91 76.252 107.91C76.9993 107.91 77.6328 108.054 78.1523 108.341C78.6764 108.623 79.0752 108.995 79.3486 109.455C79.6221 109.911 79.7588 110.398 79.7588 110.918H78.4463C78.4463 110.544 78.3665 110.214 78.207 109.927C78.0475 109.635 77.806 109.407 77.4824 109.243C77.1589 109.075 76.7487 108.99 76.252 108.99C75.7826 108.99 75.3952 109.061 75.0898 109.202C74.7845 109.343 74.5566 109.535 74.4062 109.776C74.2604 110.018 74.1875 110.294 74.1875 110.604C74.1875 110.813 74.2308 111.005 74.3174 111.178C74.4085 111.346 74.5475 111.504 74.7344 111.649C74.9258 111.795 75.1673 111.93 75.459 112.053C75.7552 112.176 76.1084 112.294 76.5186 112.408C77.0837 112.568 77.5713 112.745 77.9814 112.941C78.3916 113.137 78.7288 113.358 78.9932 113.604C79.262 113.846 79.4603 114.122 79.5879 114.432C79.7201 114.737 79.7861 115.083 79.7861 115.471C79.7861 115.876 79.7041 116.243 79.54 116.571C79.376 116.899 79.1413 117.18 78.8359 117.412C78.5306 117.645 78.1637 117.825 77.7354 117.952C77.3115 118.075 76.8376 118.137 76.3135 118.137C75.8532 118.137 75.3997 118.073 74.9531 117.945C74.5111 117.818 74.1077 117.626 73.7432 117.371C73.3831 117.116 73.0938 116.801 72.875 116.428C72.6608 116.049 72.5537 115.612 72.5537 115.115H73.8662C73.8662 115.457 73.9323 115.751 74.0645 115.997C74.1966 116.239 74.3766 116.439 74.6045 116.599C74.8369 116.758 75.099 116.877 75.3906 116.954C75.6868 117.027 75.9945 117.063 76.3135 117.063C76.7738 117.063 77.1634 117 77.4824 116.872C77.8014 116.744 78.043 116.562 78.207 116.325C78.3757 116.088 78.46 115.808 78.46 115.484ZM84.373 110.604V111.574H80.374V110.604H84.373ZM81.7275 108.806H82.9922V116.168C82.9922 116.419 83.0309 116.608 83.1084 116.735C83.1859 116.863 83.2861 116.947 83.4092 116.988C83.5322 117.029 83.6644 117.05 83.8057 117.05C83.9105 117.05 84.0199 117.041 84.1338 117.022C84.2523 117 84.3411 116.981 84.4004 116.968L84.4072 118C84.307 118.032 84.1748 118.062 84.0107 118.089C83.8512 118.121 83.6576 118.137 83.4297 118.137C83.1198 118.137 82.835 118.075 82.5752 117.952C82.3154 117.829 82.1081 117.624 81.9531 117.337C81.8027 117.045 81.7275 116.653 81.7275 116.161V108.806ZM85.3848 114.384V114.227C85.3848 113.693 85.4622 113.199 85.6172 112.743C85.7721 112.283 85.9954 111.884 86.2871 111.547C86.5788 111.205 86.932 110.941 87.3467 110.754C87.7614 110.562 88.2262 110.467 88.7412 110.467C89.2607 110.467 89.7279 110.562 90.1426 110.754C90.5618 110.941 90.9173 111.205 91.209 111.547C91.5052 111.884 91.7308 112.283 91.8857 112.743C92.0407 113.199 92.1182 113.693 92.1182 114.227V114.384C92.1182 114.917 92.0407 115.411 91.8857 115.867C91.7308 116.323 91.5052 116.722 91.209 117.063C90.9173 117.401 90.5641 117.665 90.1494 117.856C89.7393 118.043 89.2744 118.137 88.7549 118.137C88.2354 118.137 87.7682 118.043 87.3535 117.856C86.9388 117.665 86.5833 117.401 86.2871 117.063C85.9954 116.722 85.7721 116.323 85.6172 115.867C85.4622 115.411 85.3848 114.917 85.3848 114.384ZM86.6494 114.227V114.384C86.6494 114.753 86.6927 115.102 86.7793 115.43C86.8659 115.753 86.9958 116.04 87.1689 116.291C87.3467 116.542 87.5677 116.74 87.832 116.886C88.0964 117.027 88.404 117.098 88.7549 117.098C89.1012 117.098 89.4043 117.027 89.6641 116.886C89.9284 116.74 90.1471 116.542 90.3203 116.291C90.4935 116.04 90.6234 115.753 90.71 115.43C90.8011 115.102 90.8467 114.753 90.8467 114.384V114.227C90.8467 113.862 90.8011 113.518 90.71 113.194C90.6234 112.866 90.4912 112.577 90.3135 112.326C90.1403 112.071 89.9215 111.87 89.6572 111.725C89.3975 111.579 89.0921 111.506 88.7412 111.506C88.3949 111.506 88.0895 111.579 87.8252 111.725C87.5654 111.87 87.3467 112.071 87.1689 112.326C86.9958 112.577 86.8659 112.866 86.7793 113.194C86.6927 113.518 86.6494 113.862 86.6494 114.227ZM94.9688 111.766V118H93.7041V110.604H94.9346L94.9688 111.766ZM97.2793 110.562L97.2725 111.738C97.1676 111.715 97.0674 111.702 96.9717 111.697C96.8805 111.688 96.7757 111.684 96.6572 111.684C96.3656 111.684 96.1081 111.729 95.8848 111.82C95.6615 111.911 95.4723 112.039 95.3174 112.203C95.1624 112.367 95.0394 112.563 94.9482 112.791C94.8617 113.014 94.8047 113.26 94.7773 113.529L94.4219 113.734C94.4219 113.288 94.4652 112.868 94.5518 112.477C94.6429 112.085 94.7819 111.738 94.9688 111.438C95.1556 111.132 95.3926 110.895 95.6797 110.727C95.9714 110.553 96.3177 110.467 96.7188 110.467C96.8099 110.467 96.9147 110.478 97.0332 110.501C97.1517 110.519 97.2337 110.54 97.2793 110.562ZM102.536 116.735V112.928C102.536 112.636 102.477 112.383 102.358 112.169C102.244 111.95 102.071 111.782 101.839 111.663C101.606 111.545 101.319 111.485 100.978 111.485C100.659 111.485 100.378 111.54 100.137 111.649C99.8997 111.759 99.7129 111.902 99.5762 112.08C99.444 112.258 99.3779 112.449 99.3779 112.654H98.1133C98.1133 112.39 98.1816 112.128 98.3184 111.868C98.4551 111.608 98.651 111.374 98.9062 111.164C99.166 110.95 99.4759 110.781 99.8359 110.658C100.201 110.531 100.606 110.467 101.053 110.467C101.59 110.467 102.064 110.558 102.475 110.74C102.889 110.923 103.213 111.198 103.445 111.567C103.682 111.932 103.801 112.39 103.801 112.941V116.387C103.801 116.633 103.821 116.895 103.862 117.173C103.908 117.451 103.974 117.69 104.061 117.891V118H102.741C102.677 117.854 102.627 117.66 102.591 117.419C102.554 117.173 102.536 116.945 102.536 116.735ZM102.755 113.516L102.769 114.404H101.49C101.13 114.404 100.809 114.434 100.526 114.493C100.244 114.548 100.007 114.632 99.8154 114.746C99.624 114.86 99.4782 115.004 99.3779 115.177C99.2777 115.345 99.2275 115.544 99.2275 115.771C99.2275 116.004 99.2799 116.216 99.3848 116.407C99.4896 116.599 99.6468 116.751 99.8564 116.865C100.071 116.975 100.333 117.029 100.643 117.029C101.03 117.029 101.372 116.947 101.668 116.783C101.964 116.619 102.199 116.419 102.372 116.182C102.55 115.945 102.646 115.715 102.659 115.491L103.199 116.1C103.167 116.291 103.081 116.503 102.939 116.735C102.798 116.968 102.609 117.191 102.372 117.405C102.14 117.615 101.862 117.79 101.538 117.932C101.219 118.068 100.859 118.137 100.458 118.137C99.9567 118.137 99.5169 118.039 99.1387 117.843C98.765 117.647 98.4733 117.385 98.2637 117.057C98.0586 116.724 97.9561 116.353 97.9561 115.942C97.9561 115.546 98.0335 115.197 98.1885 114.896C98.3434 114.591 98.5667 114.338 98.8584 114.138C99.1501 113.933 99.501 113.778 99.9111 113.673C100.321 113.568 100.779 113.516 101.285 113.516H102.755ZM110.582 110.604H111.73V117.843C111.73 118.494 111.598 119.05 111.334 119.511C111.07 119.971 110.701 120.32 110.227 120.557C109.757 120.798 109.215 120.919 108.6 120.919C108.344 120.919 108.044 120.878 107.697 120.796C107.355 120.718 107.018 120.584 106.686 120.393C106.357 120.206 106.082 119.953 105.858 119.634L106.521 118.882C106.831 119.256 107.155 119.515 107.492 119.661C107.834 119.807 108.171 119.88 108.504 119.88C108.905 119.88 109.251 119.805 109.543 119.654C109.835 119.504 110.06 119.281 110.22 118.984C110.384 118.693 110.466 118.333 110.466 117.904V112.23L110.582 110.604ZM105.489 114.384V114.24C105.489 113.675 105.555 113.162 105.688 112.702C105.824 112.237 106.018 111.839 106.269 111.506C106.524 111.173 106.831 110.918 107.191 110.74C107.551 110.558 107.957 110.467 108.408 110.467C108.873 110.467 109.279 110.549 109.625 110.713C109.976 110.872 110.272 111.107 110.514 111.417C110.76 111.722 110.953 112.091 111.095 112.524C111.236 112.957 111.334 113.447 111.389 113.994V114.623C111.339 115.165 111.241 115.653 111.095 116.086C110.953 116.519 110.76 116.888 110.514 117.193C110.272 117.499 109.976 117.733 109.625 117.897C109.274 118.057 108.864 118.137 108.395 118.137C107.952 118.137 107.551 118.043 107.191 117.856C106.836 117.67 106.531 117.408 106.275 117.07C106.02 116.733 105.824 116.337 105.688 115.881C105.555 115.421 105.489 114.922 105.489 114.384ZM106.754 114.24V114.384C106.754 114.753 106.79 115.099 106.863 115.423C106.941 115.746 107.057 116.031 107.212 116.277C107.371 116.523 107.574 116.717 107.82 116.858C108.066 116.995 108.36 117.063 108.702 117.063C109.121 117.063 109.468 116.975 109.741 116.797C110.015 116.619 110.231 116.384 110.391 116.093C110.555 115.801 110.682 115.484 110.773 115.143V113.495C110.723 113.244 110.646 113.003 110.541 112.771C110.441 112.534 110.309 112.324 110.145 112.142C109.985 111.955 109.787 111.807 109.55 111.697C109.313 111.588 109.035 111.533 108.716 111.533C108.369 111.533 108.071 111.606 107.82 111.752C107.574 111.893 107.371 112.089 107.212 112.34C107.057 112.586 106.941 112.873 106.863 113.201C106.79 113.525 106.754 113.871 106.754 114.24ZM116.721 118.137C116.206 118.137 115.739 118.05 115.319 117.877C114.905 117.699 114.547 117.451 114.246 117.132C113.95 116.813 113.722 116.435 113.562 115.997C113.403 115.56 113.323 115.081 113.323 114.562V114.274C113.323 113.673 113.412 113.137 113.59 112.668C113.768 112.194 114.009 111.793 114.314 111.465C114.62 111.137 114.966 110.888 115.354 110.72C115.741 110.551 116.142 110.467 116.557 110.467C117.085 110.467 117.541 110.558 117.924 110.74C118.311 110.923 118.628 111.178 118.874 111.506C119.12 111.829 119.302 112.212 119.421 112.654C119.539 113.092 119.599 113.57 119.599 114.09V114.657H114.075V113.625H118.334V113.529C118.316 113.201 118.247 112.882 118.129 112.572C118.015 112.262 117.833 112.007 117.582 111.807C117.331 111.606 116.99 111.506 116.557 111.506C116.27 111.506 116.005 111.567 115.764 111.69C115.522 111.809 115.315 111.987 115.142 112.224C114.968 112.461 114.834 112.75 114.738 113.092C114.643 113.434 114.595 113.828 114.595 114.274V114.562C114.595 114.912 114.643 115.243 114.738 115.553C114.839 115.858 114.982 116.127 115.169 116.359C115.36 116.592 115.59 116.774 115.859 116.906C116.133 117.038 116.443 117.104 116.789 117.104C117.236 117.104 117.614 117.013 117.924 116.831C118.234 116.649 118.505 116.405 118.737 116.1L119.503 116.708C119.343 116.95 119.141 117.18 118.895 117.398C118.648 117.617 118.345 117.795 117.985 117.932C117.63 118.068 117.208 118.137 116.721 118.137Z" fill="#717171"/>
<path d="M230.86 104.86H227.14C222.65 104.86 219 108.51 219 113C219 117.49 222.65 121.14 227.14 121.14H230.86C235.35 121.14 239 117.49 239 113C239 108.51 235.35 104.86 230.86 104.86ZM230.86 117.42C228.42 117.42 226.44 115.44 226.44 113C226.44 110.56 228.42 108.58 230.86 108.58C233.3 108.58 235.28 110.56 235.28 113C235.28 115.44 233.3 117.42 230.86 117.42Z" fill="url(#paint0_linear_38_895)"/>
<path d="M230.86 104.86H227.14C222.65 104.86 219 108.51 219 113C219 117.49 222.65 121.14 227.14 121.14H230.86C235.35 121.14 239 117.49 239 113C239 108.51 235.35 104.86 230.86 104.86ZM230.86 117.42C228.42 117.42 226.44 115.44 226.44 113C226.44 110.56 228.42 108.58 230.86 108.58C233.3 108.58 235.28 110.56 235.28 113C235.28 115.44 233.3 117.42 230.86 117.42Z" fill="url(#paint1_linear_38_895)"/>
<path d="M229 41C223.5 41 219 45.5 219 51C219 56.5 223.5 61 229 61C234.5 61 239 56.5 239 51C239 45.5 234.5 41 229 41Z" stroke="white" stroke-width="1.5" stroke-linecap="round" stroke-linejoin="round"/>
<path d="M225.004 51L224.995 51" stroke="white" stroke-width="2" stroke-linecap="round" stroke-linejoin="round"/>
<path d="M229.005 51L228.996 51" stroke="white" stroke-width="2" stroke-linecap="round" stroke-linejoin="round"/>
<path d="M233.005 51L232.997 51" stroke="white" stroke-width="2" stroke-linecap="round" stroke-linejoin="round"/>
</g>
<defs>
<filter id="filter0_d_38_895" x="0" y="0" width="276" height="167" filterUnits="userSpaceOnUse" color-interpolation-filters="sRGB">
<feFlood flood-opacity="0" result="BackgroundImageFix"/>
<feColorMatrix in="SourceAlpha" type="matrix" values="0 0 0 0 0 0 0 0 0 0 0 0 0 0 0 0 0 0 127 0" result="hardAlpha"/>
<feOffset/>
<feGaussianBlur stdDeviation="10.5"/>
<feComposite in2="hardAlpha" operator="out"/>
<feColorMatrix type="matrix" values="0 0 0 0 0 0 0 0 0 0 0 0 0 0 0 0 0 0 0.15 0"/>
<feBlend mode="normal" in2="BackgroundImageFix" result="effect1_dropShadow_38_895"/>
<feBlend mode="normal" in="SourceGraphic" in2="effect1_dropShadow_38_895" result="shape"/>
</filter>
<linearGradient id="paint0_linear_38_895" x1="229" y1="104.86" x2="229" y2="121.14" gradientUnits="userSpaceOnUse">
<stop stop-color="#E01B1B"/>
<stop offset="1" stop-color="#E12C2C"/>
</linearGradient>
<linearGradient id="paint1_linear_38_895" x1="229" y1="104.86" x2="229" y2="121.14" gradientUnits="userSpaceOnUse">
<stop stop-color="#E01B1B"/>
<stop offset="1" stop-color="#E12C2C"/>
</linearGradient>
</defs>
</svg>
