<svg width="40" height="40" viewBox="0 0 40 40" fill="none" xmlns="http://www.w3.org/2000/svg">
<path d="M0 9.60937C0.401826 9.08752 0.51351 9.02594 1.31194 9.20754C2.66667 9.51544 4.02662 9.80559 5.39074 10.0686C6.48246 10.2794 7.58044 10.461 8.68155 10.6124C9.53425 10.7303 10.3964 10.7825 11.2543 10.8618C12.369 10.9651 13.4815 11.1029 14.5993 11.1614C15.8946 11.2292 17.193 11.2438 18.4892 11.2532C20.1947 11.2657 21.9011 11.2897 23.6044 11.2365C24.9811 11.1937 26.3556 11.0497 27.7302 10.9411C28.6539 10.8681 29.5807 10.8096 30.4991 10.6917C31.6806 10.5393 32.8621 10.364 34.0331 10.1427C35.4818 9.86925 36.92 9.5384 38.3624 9.23155C38.3624 15.5815 38.3624 21.9324 38.3614 28.2823C38.3614 28.3992 38.3687 28.5171 38.3583 28.634C38.3175 29.0953 37.8761 29.4126 37.4231 29.3062C36.7812 29.1548 36.1456 28.9711 35.4975 28.8511C33.5551 28.4921 31.6138 28.1174 29.6611 27.8252C28.1936 27.6049 26.7115 27.4661 25.2316 27.3544C23.6305 27.2334 22.0243 27.1447 20.4201 27.1196C18.7449 27.0935 17.0688 27.1457 15.3936 27.1885C14.3061 27.2167 13.2185 27.2699 12.1331 27.344C10.9213 27.4275 9.7075 27.512 8.50306 27.6592C6.83731 27.8617 5.17364 28.0892 3.52042 28.37C2.3379 28.5714 1.17313 28.8783 0.00104472 29.1371C0.00104472 22.6265 0.00104472 16.1158 0.00104472 9.60624L0 9.60937ZM16.8788 19.9692C16.8788 20.8929 16.8746 21.8155 16.8798 22.7392C16.883 23.3351 17.2149 23.5418 17.7148 23.2558C19.2814 22.3572 20.8344 21.4345 22.4146 20.5599C22.9542 20.2614 22.9563 19.7427 22.4324 19.4515C20.8543 18.5727 19.2939 17.6595 17.7336 16.7494C17.2639 16.4749 16.8423 16.7514 16.8663 17.2399C16.9101 18.1479 16.8788 19.0601 16.8788 19.9702V19.9692ZM3.74795 17.744C3.74795 17.5363 3.76151 17.3276 3.74481 17.1209C3.71142 16.718 3.49224 16.4947 3.14573 16.4843C2.78148 16.4738 2.53203 16.7024 2.50803 17.1199C2.48506 17.5217 2.48924 17.9256 2.50698 18.3274C2.52264 18.6771 2.77208 18.9025 3.10502 18.9077C3.46614 18.913 3.71768 18.6927 3.74481 18.3285C3.75943 18.1344 3.7469 17.9392 3.7469 17.744H3.74795ZM37.4993 17.7158C37.4993 17.5342 37.5076 17.3516 37.4972 17.17C37.4721 16.7243 37.2436 16.4801 36.8668 16.4843C36.5046 16.4884 36.275 16.7212 36.2562 17.1481C36.2385 17.5374 36.2395 17.9277 36.2562 18.317C36.2719 18.6865 36.5245 18.9098 36.8835 18.9077C37.2373 18.9057 37.4753 18.675 37.4962 18.3003C37.5066 18.1062 37.4982 17.911 37.4982 17.7158H37.4993ZM2.50385 22.257C2.50385 22.4647 2.48924 22.6734 2.50698 22.8801C2.54038 23.283 2.75956 23.5063 3.10711 23.5157C3.47137 23.5261 3.72081 23.2955 3.74377 22.879C3.76569 22.4772 3.76256 22.0733 3.74481 21.6715C3.72916 21.3218 3.47867 21.0974 3.14468 21.0922C2.78356 21.087 2.53307 21.3072 2.50594 21.6725C2.49133 21.8666 2.50385 22.0618 2.50385 22.257ZM36.2552 22.2716C36.2552 22.4793 36.2395 22.6891 36.2583 22.8947C36.2959 23.2955 36.5213 23.5136 36.872 23.5157C37.2227 23.5178 37.4659 23.3028 37.4909 22.9041C37.5181 22.4897 37.5139 22.0723 37.4941 21.6579C37.4774 21.3124 37.2196 21.0943 36.8814 21.0933C36.5412 21.0922 36.2886 21.3072 36.2583 21.6485C36.2395 21.8552 36.2552 22.0639 36.2562 22.2716H36.2552ZM3.74899 13.1559C3.74899 12.9482 3.76047 12.7394 3.7469 12.5317C3.72499 12.204 3.40874 11.8815 3.12798 11.8805C2.84618 11.8805 2.52159 12.2009 2.50803 12.5286C2.49133 12.9315 2.48924 13.3354 2.50803 13.7372C2.52368 14.0629 2.86497 14.3812 3.14468 14.3687C3.41292 14.3561 3.71977 14.0462 3.74586 13.7393C3.76256 13.5452 3.74899 13.349 3.74899 13.1548V13.1559ZM37.4993 13.159C37.4993 12.9513 37.5097 12.7426 37.4972 12.5349C37.4763 12.2072 37.1632 11.8836 36.8814 11.8805C36.6007 11.8773 36.2719 12.1978 36.2583 12.5255C36.2416 12.9284 36.2406 13.3323 36.2583 13.7341C36.2729 14.0608 36.6111 14.3791 36.8908 14.3697C37.159 14.3603 37.469 14.0503 37.4951 13.7445C37.5118 13.5504 37.4982 13.3542 37.4993 13.1601V13.159ZM3.7469 26.8858C3.7469 26.8858 3.74795 26.8858 3.74899 26.8858C3.74899 26.6781 3.76256 26.4683 3.74586 26.2617C3.71872 25.936 3.38683 25.6177 3.10711 25.6313C2.83888 25.6438 2.52159 25.9538 2.50803 26.2606C2.49028 26.676 2.4882 27.0935 2.51012 27.5089C2.52682 27.8168 2.85767 28.1205 3.12486 28.1205C3.39309 28.1205 3.7135 27.8178 3.74273 27.51C3.76256 27.3033 3.7469 27.0946 3.7469 26.8858ZM36.2531 26.8556C36.2531 27.0507 36.2447 27.2459 36.2552 27.4411C36.274 27.7907 36.5923 28.1268 36.8866 28.1205C37.1695 28.1143 37.4836 27.7907 37.4962 27.4609C37.5108 27.0716 37.5108 26.6802 37.4962 26.2909C37.4836 25.9621 37.1695 25.6386 36.8866 25.6313C36.5923 25.624 36.274 25.9611 36.2552 26.3097C36.2458 26.4913 36.2531 26.6739 36.2531 26.8556Z" fill="#26A6FE"/>
<path d="M0 29.1415C1.17312 28.8816 2.33685 28.5748 3.51937 28.3744C5.1726 28.0936 6.83732 27.8661 8.50203 27.6636C9.70751 27.5164 10.9203 27.4319 12.132 27.3484C13.2175 27.2743 14.305 27.22 15.3926 27.1929C17.0677 27.1501 18.7439 27.0969 20.419 27.124C22.0243 27.1491 23.6295 27.2388 25.2305 27.3588C26.7105 27.4705 28.1926 27.6093 29.66 27.8296C31.6128 28.1228 33.5541 28.4965 35.4964 28.8555C36.1446 28.9755 36.7802 29.1592 37.4221 29.3106C37.875 29.417 38.3165 29.0987 38.3572 28.6384C38.3676 28.5226 38.3603 28.4046 38.3603 28.2867C38.3603 21.9368 38.3603 15.5859 38.3614 9.23595C38.5305 9.18481 38.6985 9.12532 38.8707 9.08357C39.547 8.91866 40 9.28813 40 10.0031C40 13.7521 40 17.5021 40 21.2511C40 24.1672 40 27.0833 40 29.9994C40 30.7279 39.5293 31.089 38.829 30.9388C36.9628 30.539 35.0988 30.1247 33.2222 29.7761C32.0543 29.56 30.8686 29.4327 29.6861 29.3043C28.4858 29.1738 27.2814 29.0726 26.077 28.9912C24.9425 28.915 23.8059 28.866 22.6703 28.8336C21.2039 28.7919 19.7375 28.747 18.2711 28.7595C16.8882 28.771 15.5053 28.8336 14.1245 28.915C12.8929 28.9881 11.6624 29.0914 10.4371 29.2271C7.27776 29.5746 4.14456 30.086 1.06145 30.874C0.542731 31.0066 0.347554 30.9179 0 30.3919C0 29.9754 0 29.559 0 29.1415Z" fill="#0593FC"/>
<path d="M23.3592 0C23.3592 0.0219178 23.3602 0.0438356 23.3623 0.0667971C21.0693 0.0688845 18.7762 0.0699285 16.4822 0.0720159C16.4843 0.0480107 16.4843 0.0240052 16.4843 0H23.3592Z" fill="#E2F7EC"/>
<path d="M16.4822 0.0718692C18.7752 0.0697818 21.0682 0.0687378 23.3623 0.0666504C23.6399 0.153278 23.6775 0.370369 23.6764 0.619814C23.6733 1.52366 23.6671 2.42647 23.6827 3.32927C23.6858 3.49418 23.7829 3.65804 23.8372 3.8219C22.162 5.18498 20.4879 6.54701 18.8128 7.91009C17.29 6.67435 15.7652 5.44069 14.2455 4.20077C14.1579 4.12875 14.1067 4.01186 13.9773 3.82816C14.5837 3.82816 15.0836 3.82921 15.5846 3.82816C16.144 3.82608 16.1868 3.78328 16.1868 3.23429C16.1868 2.37637 16.1691 1.5174 16.2004 0.659474C16.2077 0.460126 16.3841 0.267042 16.4822 0.0718692Z" fill="#6ED5A1"/>
<path d="M18.9944 31.8842C17.9267 31.9594 16.8538 31.9876 15.7934 32.1212C14.5378 32.2798 13.2801 32.4719 12.0454 32.7484C9.46224 33.3266 7.00119 34.2587 4.67164 35.5195C4.07151 35.8441 3.49747 36.2156 2.91613 36.5747C2.53309 36.8105 2.18448 36.7615 1.96739 36.4223C1.77431 36.1206 1.89434 35.7794 2.26277 35.5435C4.54744 34.0771 6.99283 32.9624 9.5854 32.1608C11.368 31.6098 13.1831 31.1954 15.0315 30.9564C16.1294 30.8145 17.2399 30.7737 18.3473 30.7069C19.0967 30.6621 19.8513 30.5994 20.5986 30.636C21.8448 30.6965 23.0889 30.8218 24.3319 30.9366C26.8796 31.1714 29.3386 31.8091 31.7422 32.6597C33.8996 33.4237 35.9369 34.4403 37.8427 35.7146C38.0869 35.8775 38.1401 36.2751 37.97 36.5465C37.803 36.8137 37.4565 36.8857 37.1444 36.6999C36.7802 36.4828 36.4316 36.2386 36.0652 36.0257C34.0478 34.8546 31.9447 33.8736 29.6819 33.2839C28.1414 32.882 26.5894 32.5115 25.026 32.213C24.1211 32.0398 23.1849 32.0293 22.2612 31.9563C21.7988 31.9197 21.3344 31.9093 20.871 31.8874C20.2458 31.8863 19.6206 31.8853 18.9954 31.8842H18.9944Z" fill="#27A7FE"/>
<path d="M20.8605 8.13556C21.0098 8.15852 21.1611 8.21071 21.3072 8.19818C22.1151 8.13138 22.9281 8.0865 23.7286 7.9623C25.1449 7.74417 26.5644 7.52499 27.9619 7.21501C30.5169 6.64828 32.931 5.67972 35.2376 4.45128C35.8617 4.11834 36.4576 3.73008 37.062 3.36061C37.4314 3.13412 37.7717 3.15396 37.9606 3.42949C38.1673 3.73217 38.0733 4.11416 37.7299 4.34691C35.9901 5.5263 34.1302 6.4792 32.1524 7.17639C30.6588 7.70242 29.1413 8.17731 27.606 8.5593C26.4423 8.84945 25.2316 8.95278 24.0438 9.14795C21.995 9.48403 19.9295 9.38592 17.8714 9.36191C16.9779 9.35148 16.0877 9.16465 15.1943 9.07281C13.5995 8.9079 12.035 8.576 10.5059 8.1126C9.23783 7.72851 7.98851 7.27241 6.75068 6.79753C5.18303 6.19531 3.71766 5.38644 2.30553 4.47633C1.90683 4.21958 1.76699 3.9002 1.96425 3.58605C2.18656 3.23223 2.53098 3.1884 2.94011 3.44828C5.1893 4.87502 7.56685 6.03771 10.1385 6.74117C11.774 7.18892 13.4367 7.55422 15.1024 7.8715C16.0198 8.0458 16.9717 8.04684 17.9079 8.12199C18.268 8.15121 18.628 8.17104 18.9881 8.19505C19.6123 8.17522 20.2364 8.15643 20.8605 8.1366V8.13556Z" fill="#27A7FE"/>
<path d="M18.9944 31.8841C19.6195 31.8841 20.2447 31.8862 20.8699 31.8872C22.0357 32.8454 23.2026 33.8035 24.3674 34.7626C24.4258 34.8107 24.4759 34.8691 24.5302 34.9234C24.4081 34.9495 24.287 34.9954 24.1649 34.9975C23.7485 35.0069 23.331 35.0173 22.9156 34.9964C22.5847 34.9797 22.4866 35.1133 22.4929 35.4306C22.5096 36.251 22.4981 37.0713 22.4981 37.8906C22.4981 38.6536 22.4052 38.7486 21.6579 38.7496C19.8356 38.7506 18.0122 38.7527 16.1899 38.7548C16.1889 38.066 16.1722 37.3771 16.1931 36.6893C16.2025 36.3585 16.12 36.2176 15.762 36.2426C15.3351 36.2729 14.9051 36.2614 14.4772 36.2426C14.3415 36.2374 14.2079 36.1539 14.0743 36.1059C14.1537 35.9827 14.2079 35.8303 14.3144 35.7416C15.1838 35.0204 16.0657 34.3159 16.9383 33.5989C17.6282 33.0322 18.3087 32.455 18.9944 31.8831V31.8841Z" fill="#6ED5A1"/>
<path d="M16.191 38.755C18.0133 38.7529 19.8366 38.7519 21.6589 38.7498C22.4052 38.7498 22.4991 38.6538 22.4991 37.8908C22.4991 37.0705 22.5096 36.2501 22.4939 35.4308C22.4876 35.1135 22.5857 34.9799 22.9166 34.9966C23.332 35.0175 23.7495 35.0071 24.1659 34.9977C24.288 34.9946 24.4101 34.9497 24.5312 34.9236C24.8944 35.2106 25.2618 35.4934 25.6167 35.7899C25.6939 35.8546 25.793 36.0122 25.7659 36.056C25.7116 36.1458 25.5801 36.2355 25.4758 36.2407C25.0343 36.2606 24.5897 36.2752 24.1503 36.2428C23.7557 36.2136 23.6639 36.3754 23.6722 36.7375C23.6931 37.6216 23.6816 38.5066 23.6775 39.3917C23.6754 39.8509 23.5898 39.9365 23.1233 39.9375C21.016 39.9396 18.9077 39.9396 16.8005 39.9375C16.264 39.9375 16.1722 39.8415 16.1732 39.2998C16.1732 39.1182 16.1847 38.9366 16.191 38.755Z" fill="#46CC8D"/>
<path d="M20.8606 8.13583C20.2364 8.15566 19.6123 8.17445 18.9882 8.19428C18.9297 8.10035 18.8713 8.00537 18.8128 7.91144C20.488 6.54836 22.1621 5.18632 23.8372 3.82324C24.4728 3.82324 25.1095 3.82324 25.8703 3.82324C25.7451 4.00902 25.694 4.14366 25.5979 4.22194C24.0512 5.48795 22.4981 6.74562 20.9472 8.00746C20.9086 8.03877 20.8887 8.09304 20.8606 8.13583Z" fill="#47CC8E"/>
<path d="M16.8788 19.9693C16.8788 19.0592 16.9101 18.147 16.8663 17.2389C16.8423 16.7505 17.2639 16.4739 17.7336 16.7484C19.2939 17.6595 20.8543 18.5717 22.4324 19.4505C22.9563 19.7428 22.9532 20.2605 22.4146 20.559C20.8355 21.4336 19.2825 22.3573 17.7148 23.2549C17.2149 23.5408 16.883 23.3342 16.8798 22.7382C16.8746 21.8145 16.8788 20.8919 16.8788 19.9682V19.9693Z" fill="#E9F6FF"/>
<path d="M3.74794 17.7452C3.74794 17.9404 3.76046 18.1355 3.74585 18.3297C3.71871 18.6939 3.46613 18.9141 3.10605 18.9089C2.77207 18.9037 2.52262 18.6793 2.50801 18.3286C2.49027 17.9268 2.48714 17.5229 2.50906 17.1211C2.53202 16.7046 2.78251 16.475 3.14676 16.4854C3.49431 16.4959 3.71245 16.7192 3.74585 17.1221C3.76255 17.3288 3.74898 17.5375 3.74898 17.7452H3.74794Z" fill="#0283FC"/>
<path d="M37.4982 17.717C37.4982 17.9122 37.5076 18.1073 37.4962 18.3015C37.4753 18.6761 37.2373 18.9068 36.8835 18.9089C36.5245 18.911 36.2719 18.6887 36.2562 18.3182C36.2395 17.9289 36.2385 17.5385 36.2562 17.1492C36.275 16.7234 36.5046 16.4896 36.8668 16.4854C37.2436 16.4812 37.4722 16.7255 37.4972 17.1711C37.5076 17.3527 37.4993 17.5343 37.4982 17.717Z" fill="#0283FC"/>
<path d="M2.50178 22.2569C2.50178 22.0617 2.4903 21.8666 2.50387 21.6724C2.53101 21.3082 2.78254 21.0869 3.14262 21.0921C3.4766 21.0973 3.72709 21.3217 3.74275 21.6714C3.76049 22.0732 3.76362 22.4771 3.7417 22.879C3.71874 23.2954 3.4693 23.525 3.10504 23.5156C2.75749 23.5062 2.53831 23.2829 2.50491 22.88C2.48821 22.6733 2.50178 22.4646 2.50178 22.2569Z" fill="#0283FC"/>
<path d="M36.2531 22.2719C36.2531 22.0642 36.2374 21.8544 36.2562 21.6488C36.2875 21.3064 36.5401 21.0925 36.8793 21.0935C37.2175 21.0946 37.4763 21.3127 37.492 21.6582C37.5118 22.0725 37.516 22.491 37.4888 22.9043C37.4628 23.303 37.2206 23.5191 36.8699 23.5159C36.5192 23.5139 36.2948 23.2957 36.2562 22.8949C36.2364 22.6893 36.2531 22.4795 36.252 22.2719H36.2531Z" fill="#0283FC"/>
<path d="M3.74688 13.156C3.74688 13.3511 3.76044 13.5473 3.74374 13.7404C3.71765 14.0473 3.4108 14.3573 3.14257 14.3698C2.8639 14.3823 2.52157 14.064 2.50591 13.7383C2.48608 13.3365 2.48921 12.9316 2.50591 12.5297C2.51948 12.202 2.84408 11.8806 3.12588 11.8816C3.40664 11.8816 3.72287 12.2051 3.74479 12.5329C3.75836 12.7395 3.74688 12.9493 3.74688 13.157V13.156Z" fill="#0283FC"/>
<path d="M37.4972 13.1602C37.4972 13.3554 37.5108 13.5516 37.4941 13.7447C37.468 14.0515 37.158 14.3605 36.8898 14.3699C36.6101 14.3803 36.2719 14.0609 36.2573 13.7343C36.2385 13.3324 36.2395 12.9275 36.2573 12.5257C36.2709 12.1979 36.5996 11.8775 36.8804 11.8806C37.1622 11.8838 37.4743 12.2073 37.4962 12.535C37.5097 12.7427 37.4983 12.9515 37.4983 13.1592L37.4972 13.1602Z" fill="#0283FC"/>
<path d="M3.74587 26.8858C3.74587 27.0935 3.76152 27.3032 3.74169 27.5099C3.71247 27.8178 3.39206 28.1205 3.12383 28.1205C2.85559 28.1205 2.52474 27.8167 2.50908 27.5088C2.48716 27.0935 2.48925 26.676 2.50699 26.2606C2.52056 25.9537 2.8368 25.6437 3.10608 25.6312C3.38475 25.6187 3.71769 25.936 3.74483 26.2616C3.76152 26.4683 3.74796 26.677 3.74796 26.8858C3.74796 26.8858 3.74691 26.8858 3.74587 26.8858Z" fill="#0283FC"/>
<path d="M36.2521 26.8555C36.2521 26.6739 36.2437 26.4912 36.2542 26.3096C36.2729 25.96 36.5913 25.6239 36.8856 25.6312C37.1684 25.6375 37.4826 25.961 37.4951 26.2908C37.5097 26.6801 37.5097 27.0715 37.4951 27.4608C37.4826 27.7896 37.1674 28.1132 36.8856 28.1205C36.5913 28.1278 36.2729 27.7906 36.2542 27.441C36.2437 27.2469 36.2521 27.0507 36.2521 26.8555Z" fill="#0283FC"/>
</svg>
