<svg width="40" height="40" viewBox="0 0 40 40" fill="none" xmlns="http://www.w3.org/2000/svg">
<circle cx="20" cy="20" r="20" fill="url(#paint0_linear_2_84)"/>
<path d="M20 10.4758C14.7524 10.4758 10.4762 14.752 10.4762 19.9996C10.4762 25.2473 14.7524 29.5234 20 29.5234C25.2476 29.5234 29.5238 25.2473 29.5238 19.9996C29.5238 14.752 25.2476 10.4758 20 10.4758ZM23.8095 20.7139H20.7143V23.8092C20.7143 24.1996 20.3905 24.5234 20 24.5234C19.6095 24.5234 19.2857 24.1996 19.2857 23.8092V20.7139H16.1905C15.8 20.7139 15.4762 20.3901 15.4762 19.9996C15.4762 19.6092 15.8 19.2854 16.1905 19.2854H19.2857V16.1901C19.2857 15.7996 19.6095 15.4758 20 15.4758C20.3905 15.4758 20.7143 15.7996 20.7143 16.1901V19.2854H23.8095C24.2 19.2854 24.5238 19.6092 24.5238 19.9996C24.5238 20.3901 24.2 20.7139 23.8095 20.7139Z" fill="white"/>
<defs>
<linearGradient id="paint0_linear_2_84" x1="20" y1="0" x2="20" y2="40" gradientUnits="userSpaceOnUse">
<stop stop-color="#E01B1B"/>
<stop offset="1" stop-color="#E12C2C"/>
</linearGradient>
</defs>
</svg>
