<svg width="15" height="15" viewBox="0 0 15 15" fill="none" xmlns="http://www.w3.org/2000/svg">
<path d="M13.6313 2.46256C12.8125 4.50631 10.9438 7.17506 9.16252 8.91881C8.90627 7.30631 7.61877 6.04381 5.99377 5.81881C7.74377 4.03131 10.4313 2.13756 12.4813 1.31256C12.8438 1.17506 13.2063 1.28131 13.4313 1.50631C13.6688 1.74381 13.7813 2.10006 13.6313 2.46256Z" fill="url(#paint0_linear_15_7)"/>
<path d="M8.61251 9.43135C8.48751 9.5376 8.36251 9.64385 8.23751 9.74385L7.11876 10.6376C7.11876 10.6188 7.11251 10.5938 7.11251 10.5688C7.02501 9.9001 6.71251 9.28135 6.20626 8.7751C5.69376 8.2626 5.05626 7.9501 4.35626 7.8626C4.33751 7.8626 4.31251 7.85635 4.29376 7.85635L5.20001 6.7126C5.28751 6.6001 5.38126 6.49385 5.48126 6.38135L5.90626 6.4376C7.25001 6.6251 8.33126 7.68135 8.54376 9.01885L8.61251 9.43135Z" fill="url(#paint1_linear_15_7)"/>
<path d="M6.51872 11.0125C6.51872 11.7 6.25623 12.3563 5.75623 12.85C5.37498 13.2375 4.86248 13.5 4.23748 13.575L2.70622 13.7438C1.86872 13.8375 1.14998 13.1188 1.24373 12.275L1.41247 10.7375C1.56247 9.36876 2.70623 8.49376 3.91873 8.46876C4.03748 8.46251 4.16873 8.46876 4.29373 8.48126C4.82498 8.55001 5.33747 8.79376 5.76872 9.21876C6.18747 9.63751 6.42497 10.1313 6.49372 10.65C6.50623 10.775 6.51872 10.8938 6.51872 11.0125Z" fill="url(#paint2_linear_15_7)"/>
<defs>
<linearGradient id="paint0_linear_15_7" x1="9.84648" y1="1.25122" x2="9.84648" y2="10.4523" gradientUnits="userSpaceOnUse">
<stop stop-color="#E01B1B"/>
<stop offset="1" stop-color="#E12C2C"/>
</linearGradient>
<linearGradient id="paint1_linear_15_7" x1="6.45314" y1="6.38135" x2="6.45314" y2="11.4888" gradientUnits="userSpaceOnUse">
<stop stop-color="#E01B1B"/>
<stop offset="1" stop-color="#E12C2C"/>
</linearGradient>
<linearGradient id="paint2_linear_15_7" x1="3.8771" y1="8.46631" x2="3.8771" y2="14.8092" gradientUnits="userSpaceOnUse">
<stop stop-color="#E01B1B"/>
<stop offset="1" stop-color="#E12C2C"/>
</linearGradient>
</defs>
</svg>
