<svg width="25" height="24" viewBox="0 0 25 24" fill="none" xmlns="http://www.w3.org/2000/svg">
<path d="M18.5 6C17.89 6 17.33 5.65 17.05 5.11L16.33 3.66C15.87 2.75 14.67 2 13.65 2H11.36C10.33 2 9.12998 2.75 8.66998 3.66L7.94998 5.11C7.66998 5.65 7.10998 6 6.49998 6C4.32998 6 2.60998 7.83 2.74998 9.99L3.26998 18.25C3.38998 20.31 4.49998 22 7.25998 22H17.74C20.5 22 21.6 20.31 21.73 18.25L22.25 9.99C22.39 7.83 20.67 6 18.5 6ZM11 7.25H14C14.41 7.25 14.75 7.59 14.75 8C14.75 8.41 14.41 8.75 14 8.75H11C10.59 8.75 10.25 8.41 10.25 8C10.25 7.59 10.59 7.25 11 7.25ZM12.5 18.12C10.64 18.12 9.11998 16.61 9.11998 14.74C9.11998 12.87 10.63 11.36 12.5 11.36C14.37 11.36 15.88 12.87 15.88 14.74C15.88 16.61 14.36 18.12 12.5 18.12Z" fill="black"/>
</svg>
