<svg width="25" height="24" viewBox="0 0 25 24" fill="none" xmlns="http://www.w3.org/2000/svg">
<path d="M16.69 2H8.31C4.67 2 2.5 4.17 2.5 7.81V16.18C2.5 19.83 4.67 22 8.31 22H16.68C20.32 22 22.49 19.83 22.49 16.19V7.81C22.5 4.17 20.33 2 16.69 2ZM11.45 17.51C11.16 17.8 10.61 18.08 10.21 18.14L7.75 18.49C7.66 18.5 7.57 18.51 7.48 18.51C7.07 18.51 6.69 18.37 6.42 18.1C6.09 17.77 5.95 17.29 6.03 16.76L6.38 14.3C6.44 13.89 6.71 13.35 7.01 13.06L11.47 8.6C11.55 8.81 11.63 9.02 11.74 9.26C11.84 9.47 11.95 9.69 12.07 9.89C12.17 10.06 12.28 10.22 12.37 10.34C12.48 10.51 12.61 10.67 12.69 10.76C12.74 10.83 12.78 10.88 12.8 10.9C13.05 11.2 13.34 11.48 13.59 11.69C13.66 11.76 13.7 11.8 13.72 11.81C13.87 11.93 14.02 12.05 14.15 12.14C14.31 12.26 14.47 12.37 14.64 12.46C14.84 12.58 15.06 12.69 15.28 12.8C15.51 12.9 15.72 12.99 15.93 13.06L11.45 17.51ZM17.87 11.09L16.95 12.02C16.89 12.08 16.81 12.11 16.73 12.11C16.7 12.11 16.66 12.11 16.64 12.1C14.61 11.52 12.99 9.9 12.41 7.87C12.38 7.76 12.41 7.64 12.49 7.57L13.42 6.64C14.94 5.12 16.39 5.15 17.88 6.64C18.64 7.4 19.01 8.13 19.01 8.89C19 9.61 18.63 10.33 17.87 11.09Z" fill="black"/>
<path d="M16.69 2H8.31C4.67 2 2.5 4.17 2.5 7.81V16.18C2.5 19.83 4.67 22 8.31 22H16.68C20.32 22 22.49 19.83 22.49 16.19V7.81C22.5 4.17 20.33 2 16.69 2ZM11.45 17.51C11.16 17.8 10.61 18.08 10.21 18.14L7.75 18.49C7.66 18.5 7.57 18.51 7.48 18.51C7.07 18.51 6.69 18.37 6.42 18.1C6.09 17.77 5.95 17.29 6.03 16.76L6.38 14.3C6.44 13.89 6.71 13.35 7.01 13.06L11.47 8.6C11.55 8.81 11.63 9.02 11.74 9.26C11.84 9.47 11.95 9.69 12.07 9.89C12.17 10.06 12.28 10.22 12.37 10.34C12.48 10.51 12.61 10.67 12.69 10.76C12.74 10.83 12.78 10.88 12.8 10.9C13.05 11.2 13.34 11.48 13.59 11.69C13.66 11.76 13.7 11.8 13.72 11.81C13.87 11.93 14.02 12.05 14.15 12.14C14.31 12.26 14.47 12.37 14.64 12.46C14.84 12.58 15.06 12.69 15.28 12.8C15.51 12.9 15.72 12.99 15.93 13.06L11.45 17.51ZM17.87 11.09L16.95 12.02C16.89 12.08 16.81 12.11 16.73 12.11C16.7 12.11 16.66 12.11 16.64 12.1C14.61 11.52 12.99 9.9 12.41 7.87C12.38 7.76 12.41 7.64 12.49 7.57L13.42 6.64C14.94 5.12 16.39 5.15 17.88 6.64C18.64 7.4 19.01 8.13 19.01 8.89C19 9.61 18.63 10.33 17.87 11.09Z" fill="url(#paint0_linear_2_232)"/>
<defs>
<linearGradient id="paint0_linear_2_232" x1="12.495" y1="2" x2="12.495" y2="22" gradientUnits="userSpaceOnUse">
<stop stop-color="#E01B1B"/>
<stop offset="1" stop-color="#E12C2C"/>
</linearGradient>
</defs>
</svg>
