<svg width="178" height="91" viewBox="0 0 178 91" fill="none" xmlns="http://www.w3.org/2000/svg">
<ellipse cx="88.5" cy="49.5" rx="69.5" ry="37.5" fill="#E12222"/>
<mask id="mask0_17_182" style="mask-type:alpha" maskUnits="userSpaceOnUse" x="0" y="0" width="178" height="91">
<ellipse cx="89" cy="45.3859" rx="89" ry="45.3859" fill="#D9D9D9"/>
</mask>
<g mask="url(#mask0_17_182)">
<g filter="url(#filter0_d_17_182)">
<path d="M122.559 72.0704H55.185C46.4051 72.0704 39.2875 64.9528 39.2875 56.1729V-115.489C39.2875 -124.27 46.4051 -131.387 55.185 -131.387H122.559C131.34 -131.387 138.457 -124.27 138.457 -115.489V56.1724C138.457 64.9528 131.34 72.0704 122.559 72.0704Z" fill="#282828"/>
<path d="M122.435 -130.913H55.31C46.7224 -130.913 39.7611 -123.952 39.7611 -115.364V56.0479C39.7611 64.6355 46.7224 71.5968 55.31 71.5968H122.435C131.022 71.5968 137.984 64.6355 137.984 56.0479V-115.364C137.984 -123.952 131.022 -130.913 122.435 -130.913ZM137.51 55.9234C137.51 64.3182 130.705 71.1233 122.31 71.1233H55.4346C47.0397 71.1233 40.2347 64.3182 40.2347 55.9234V-115.24C40.2347 -123.635 47.0402 -130.44 55.4346 -130.44H122.31C130.705 -130.44 137.51 -123.635 137.51 -115.24V55.9234Z" fill="#706F6F"/>
<path d="M122.082 70.5996H55.506C47.4327 70.5996 40.8882 64.0551 40.8882 55.9818V-115.134C40.8882 -123.207 47.4327 -129.752 55.506 -129.752H122.082C130.155 -129.752 136.699 -123.207 136.699 -115.134V55.9813C136.7 64.0546 130.155 70.5996 122.082 70.5996Z" fill="white"/>
</g>
<rect x="46.0674" y="13.3567" width="38.9801" height="23.7152" rx="1.36294" fill="#FCE7E7"/>
<rect x="88.8638" y="17.1731" width="38.9801" height="5.45176" rx="1.36294" fill="#FCE7E7"/>
<rect x="88.8638" y="24.8057" width="24.5329" height="3.27106" rx="1.36294" fill="#FCE7E7"/>
<rect x="88.8638" y="30.2573" width="24.5329" height="3.27106" rx="1.36294" fill="#FCE7E7"/>
<rect x="110.943" y="46.6125" width="11.1761" height="11.1761" rx="5.58806" fill="url(#paint0_linear_17_182)"/>
<path d="M118.298 51.0748C118.219 51.0323 118.053 50.9879 117.827 51.1462L117.543 51.347C117.522 50.7465 117.261 50.511 116.628 50.511H115.469C114.809 50.511 114.552 50.7678 114.552 51.4281V52.9728C114.552 53.4169 114.794 53.8899 115.469 53.8899H116.628C117.261 53.8899 117.522 53.6544 117.543 53.0539L117.827 53.2547C117.947 53.3397 118.051 53.3667 118.134 53.3667C118.205 53.3667 118.261 53.3454 118.298 53.3261C118.377 53.2856 118.51 53.1755 118.51 52.8994V51.5015C118.51 51.2254 118.377 51.1153 118.298 51.0748ZM116.338 52.0808C116.139 52.0808 115.975 51.9186 115.975 51.7178C115.975 51.5169 116.139 51.3548 116.338 51.3548C116.537 51.3548 116.701 51.5169 116.701 51.7178C116.701 51.9186 116.537 52.0808 116.338 52.0808Z" fill="white"/>
<g filter="url(#filter1_d_17_182)">
<path d="M119.475 53.4669C119.278 53.1268 119.082 52.7868 118.886 52.4468C118.887 52.4378 118.888 52.4287 118.89 52.42C118.976 52.3701 119.063 52.3201 119.149 52.2702C119.335 52.5912 119.518 52.9132 119.707 53.2319C119.75 53.3042 119.745 53.3463 119.667 53.3818C119.609 53.4081 119.554 53.4428 119.498 53.4738C119.49 53.4715 119.482 53.4693 119.474 53.467L119.475 53.4669Z" fill="white"/>
<path d="M118.889 52.4203C118.888 52.429 118.886 52.4378 118.885 52.4463C118.88 52.441 118.876 52.4356 118.871 52.4307C118.877 52.4272 118.883 52.4237 118.889 52.4203Z" fill="white"/>
<path d="M121.472 57.7499C120.921 56.7962 120.371 55.8427 119.821 54.8883C119.659 54.6069 119.756 54.2654 120.038 54.1054C120.301 53.9568 120.641 54.0429 120.793 54.3044C121.168 54.9479 121.539 55.5938 121.912 56.2386C121.937 56.2818 121.963 56.3244 121.988 56.3671C122.013 56.4098 122.038 56.4524 122.062 56.4951C122.065 56.4944 122.069 56.4932 122.072 56.4925C122.062 56.4564 122.051 56.4201 122.041 56.3841C122.016 56.0793 122.102 55.8873 122.392 55.7691C122.809 55.5993 123.039 55.858 123.214 56.2041C123.191 55.8805 123.294 55.6265 123.596 55.5248C123.939 55.4092 124.189 55.5611 124.353 55.883C124.351 55.8261 124.345 55.7689 124.35 55.7125C124.371 55.4854 124.518 55.3183 124.735 55.2702C124.951 55.2225 125.161 55.3193 125.283 55.5311C125.655 56.1728 126.026 56.816 126.397 57.4585C126.507 57.6501 126.616 57.8426 126.729 58.0329C126.937 58.3859 127.096 58.7579 127.21 59.1537C127.299 59.4614 127.429 59.7574 127.545 60.0712L124.291 61.9499C124.208 61.8063 124.129 61.6639 124.045 61.5246C123.969 61.3984 123.878 61.2804 123.728 61.2404C123.644 61.2178 123.552 61.2086 123.465 61.2134C123.09 61.2348 122.759 61.1336 122.456 60.9077C122.087 60.6335 121.704 60.3788 121.328 60.1157C121.079 59.9417 121.031 59.6969 121.082 59.4177C121.098 59.3266 121.119 59.2362 121.133 59.1448C121.163 58.9452 121.117 58.7619 120.998 58.5997C120.82 58.3554 120.875 57.9683 121.221 57.8269C121.327 58.0118 121.434 58.197 121.54 58.3819C121.701 58.6594 121.86 58.9371 122.021 59.2138C122.094 59.3388 122.259 59.3701 122.351 59.2726L121.472 57.7502L121.472 57.7499Z" fill="#FCD09F"/>
<path d="M121.472 57.7497L122.351 59.2722C122.259 59.3693 122.094 59.3384 122.021 59.2134C121.86 58.9369 121.701 58.659 121.54 58.3815C121.434 58.1966 121.327 58.0115 121.221 57.8265C121.304 57.801 121.388 57.7753 121.472 57.7499L121.472 57.7497Z" fill="#E2B991"/>
<path d="M120.883 53.2886C120.786 53.2617 120.687 53.2337 120.582 53.2044C120.678 52.8471 120.774 52.4866 120.876 52.1277C120.882 52.1034 120.936 52.0741 120.965 52.0774C121.045 52.0867 121.124 52.1119 121.197 52.1291C121.091 52.5196 120.988 52.8997 120.883 53.2885L120.883 53.2886Z" fill="white"/>
<path d="M118.085 56.1571L117.932 55.8936L118.963 55.2987L119.115 55.5623L118.085 56.1571Z" fill="white"/>
<path d="M118.939 54.1587C118.917 54.2399 118.891 54.3353 118.867 54.424C118.485 54.3196 118.102 54.2149 117.71 54.1074C117.73 54.0262 117.754 53.9304 117.775 53.8462C118.169 53.952 118.55 54.0545 118.939 54.1589L118.939 54.1587Z" fill="white"/>
<path d="M121.708 54.0815L121.561 53.8274L122.593 53.2315C122.642 53.3158 122.691 53.4008 122.74 53.4856C122.737 53.4934 122.735 53.5014 122.733 53.5092C122.399 53.702 122.065 53.8947 121.731 54.0875C121.724 54.0856 121.716 54.0834 121.708 54.0815Z" fill="white"/>
<path d="M122.041 56.3839C122.052 56.4199 122.062 56.4563 122.072 56.4923C122.069 56.493 122.065 56.4942 122.062 56.495C122.038 56.4523 122.013 56.4096 121.988 56.3669C122.006 56.3726 122.024 56.3783 122.041 56.3839Z" fill="#FEF6EC"/>
</g>
</g>
<defs>
<filter id="filter0_d_17_182" x="32.9832" y="-132.478" width="114.523" height="217.087" filterUnits="userSpaceOnUse" color-interpolation-filters="sRGB">
<feFlood flood-opacity="0" result="BackgroundImageFix"/>
<feColorMatrix in="SourceAlpha" type="matrix" values="0 0 0 0 0 0 0 0 0 0 0 0 0 0 0 0 0 0 127 0" result="hardAlpha"/>
<feOffset dx="1.36294" dy="5.72435"/>
<feGaussianBlur stdDeviation="3.40735"/>
<feComposite in2="hardAlpha" operator="out"/>
<feColorMatrix type="matrix" values="0 0 0 0 0 0 0 0 0 0 0 0 0 0 0 0 0 0 0.14 0"/>
<feBlend mode="normal" in2="BackgroundImageFix" result="effect1_dropShadow_17_182"/>
<feBlend mode="normal" in="SourceGraphic" in2="effect1_dropShadow_17_182" result="shape"/>
</filter>
<filter id="filter1_d_17_182" x="116.347" y="52.0771" width="12.5615" height="13.1439" filterUnits="userSpaceOnUse" color-interpolation-filters="sRGB">
<feFlood flood-opacity="0" result="BackgroundImageFix"/>
<feColorMatrix in="SourceAlpha" type="matrix" values="0 0 0 0 0 0 0 0 0 0 0 0 0 0 0 0 0 0 127 0" result="hardAlpha"/>
<feOffset dy="1.90812"/>
<feGaussianBlur stdDeviation="0.68147"/>
<feComposite in2="hardAlpha" operator="out"/>
<feColorMatrix type="matrix" values="0 0 0 0 0 0 0 0 0 0 0 0 0 0 0 0 0 0 0.25 0"/>
<feBlend mode="normal" in2="BackgroundImageFix" result="effect1_dropShadow_17_182"/>
<feBlend mode="normal" in="SourceGraphic" in2="effect1_dropShadow_17_182" result="shape"/>
</filter>
<linearGradient id="paint0_linear_17_182" x1="116.531" y1="46.6125" x2="116.531" y2="57.7887" gradientUnits="userSpaceOnUse">
<stop stop-color="#E01B1B"/>
<stop offset="1" stop-color="#E12C2C"/>
</linearGradient>
</defs>
</svg>
