<svg width="81" height="12" viewBox="0 0 81 12" fill="none" xmlns="http://www.w3.org/2000/svg">
<path d="M1.8252 1.04688H3.56152L6.11816 8.35449L8.6748 1.04688H10.4111L6.81543 11H5.4209L1.8252 1.04688ZM0.888672 1.04688H2.61816L2.93262 8.16992V11H0.888672V1.04688ZM9.61816 1.04688H11.3545V11H9.30371V8.16992L9.61816 1.04688ZM17.3975 1.04688V11H15.3535V1.04688H17.3975ZM20.46 1.04688V2.65332H12.3389V1.04688H20.46ZM24.7461 1.04688H28.458C29.2191 1.04688 29.873 1.16081 30.4199 1.38867C30.9714 1.61654 31.3952 1.95378 31.6914 2.40039C31.9876 2.84701 32.1357 3.39616 32.1357 4.04785C32.1357 4.58105 32.0446 5.03906 31.8623 5.42188C31.6846 5.80013 31.4316 6.11686 31.1035 6.37207C30.7799 6.62272 30.3994 6.82324 29.9619 6.97363L29.3125 7.31543H26.0859L26.0723 5.71582H28.4717C28.8317 5.71582 29.1302 5.65202 29.3672 5.52441C29.6042 5.39681 29.7819 5.21908 29.9004 4.99121C30.0234 4.76335 30.085 4.49902 30.085 4.19824C30.085 3.87923 30.0257 3.60352 29.9072 3.37109C29.7887 3.13867 29.6087 2.96094 29.3672 2.83789C29.1257 2.71484 28.8226 2.65332 28.458 2.65332H26.7969V11H24.7461V1.04688ZM30.3105 11L28.041 6.56348L30.208 6.5498L32.5049 10.9043V11H30.3105ZM36.9961 11.1367C36.4219 11.1367 35.9069 11.0456 35.4512 10.8633C34.9954 10.6764 34.6081 10.4189 34.2891 10.0908C33.9746 9.7627 33.7331 9.38216 33.5645 8.94922C33.3958 8.51172 33.3115 8.04688 33.3115 7.55469V7.28125C33.3115 6.7207 33.3913 6.20801 33.5508 5.74316C33.7103 5.27832 33.9382 4.875 34.2344 4.5332C34.5352 4.19141 34.8997 3.92936 35.3281 3.74707C35.7565 3.56022 36.2396 3.4668 36.7773 3.4668C37.3014 3.4668 37.7663 3.55339 38.1719 3.72656C38.5775 3.89974 38.917 4.14583 39.1904 4.46484C39.4684 4.78385 39.6781 5.16667 39.8193 5.61328C39.9606 6.05534 40.0312 6.54753 40.0312 7.08984V7.91016H34.1523V6.59766H38.0967V6.44727C38.0967 6.17383 38.0465 5.93001 37.9463 5.71582C37.8506 5.49707 37.7048 5.32389 37.5088 5.19629C37.3128 5.06868 37.0622 5.00488 36.7568 5.00488C36.4971 5.00488 36.2738 5.06185 36.0869 5.17578C35.9001 5.28971 35.7474 5.44922 35.6289 5.6543C35.515 5.85938 35.4284 6.10091 35.3691 6.37891C35.3145 6.65234 35.2871 6.95312 35.2871 7.28125V7.55469C35.2871 7.85091 35.3281 8.12435 35.4102 8.375C35.4967 8.62565 35.6175 8.84212 35.7725 9.02441C35.932 9.20671 36.1234 9.34798 36.3467 9.44824C36.5745 9.5485 36.832 9.59863 37.1191 9.59863C37.4746 9.59863 37.805 9.53027 38.1104 9.39355C38.4202 9.25228 38.6868 9.04036 38.9102 8.75781L39.8672 9.79688C39.7122 10.0202 39.5003 10.2344 39.2314 10.4395C38.9671 10.6445 38.6481 10.8132 38.2744 10.9453C37.9007 11.0729 37.4746 11.1367 36.9961 11.1367ZM44.208 9.59863C44.4495 9.59863 44.6637 9.55306 44.8506 9.46191C45.0374 9.36621 45.1833 9.23405 45.2881 9.06543C45.3975 8.89225 45.4544 8.68945 45.459 8.45703H47.3115C47.307 8.97656 47.168 9.43913 46.8945 9.84473C46.6211 10.2458 46.2542 10.5625 45.7939 10.7949C45.3337 11.0228 44.8187 11.1367 44.249 11.1367C43.6748 11.1367 43.1735 11.041 42.7451 10.8496C42.3213 10.6582 41.9681 10.3939 41.6855 10.0566C41.403 9.71484 41.1911 9.31836 41.0498 8.86719C40.9085 8.41146 40.8379 7.92383 40.8379 7.4043V7.20605C40.8379 6.68197 40.9085 6.19434 41.0498 5.74316C41.1911 5.28743 41.403 4.89095 41.6855 4.55371C41.9681 4.21191 42.3213 3.94531 42.7451 3.75391C43.1689 3.5625 43.6657 3.4668 44.2354 3.4668C44.8415 3.4668 45.3724 3.58301 45.8281 3.81543C46.2884 4.04785 46.6484 4.38053 46.9082 4.81348C47.1725 5.24186 47.307 5.75 47.3115 6.33789H45.459C45.4544 6.0918 45.402 5.86849 45.3018 5.66797C45.2061 5.46745 45.0648 5.30794 44.8779 5.18945C44.6956 5.06641 44.4701 5.00488 44.2012 5.00488C43.9141 5.00488 43.6794 5.06641 43.4971 5.18945C43.3148 5.30794 43.1735 5.47201 43.0732 5.68164C42.973 5.88672 42.9023 6.12142 42.8613 6.38574C42.8249 6.64551 42.8066 6.91895 42.8066 7.20605V7.4043C42.8066 7.69141 42.8249 7.96712 42.8613 8.23145C42.8978 8.49577 42.9661 8.73047 43.0664 8.93555C43.1712 9.14062 43.3148 9.30241 43.4971 9.4209C43.6794 9.53939 43.9163 9.59863 44.208 9.59863ZM48.1387 7.37695V7.2334C48.1387 6.69108 48.2161 6.19206 48.3711 5.73633C48.526 5.27604 48.7516 4.87728 49.0479 4.54004C49.3441 4.2028 49.7087 3.94076 50.1416 3.75391C50.5745 3.5625 51.0713 3.4668 51.6318 3.4668C52.1924 3.4668 52.6914 3.5625 53.1289 3.75391C53.5664 3.94076 53.9333 4.2028 54.2295 4.54004C54.5303 4.87728 54.7581 5.27604 54.9131 5.73633C55.068 6.19206 55.1455 6.69108 55.1455 7.2334V7.37695C55.1455 7.91471 55.068 8.41374 54.9131 8.87402C54.7581 9.32975 54.5303 9.72852 54.2295 10.0703C53.9333 10.4076 53.5687 10.6696 53.1357 10.8564C52.7028 11.0433 52.2061 11.1367 51.6455 11.1367C51.085 11.1367 50.5859 11.0433 50.1484 10.8564C49.7155 10.6696 49.3486 10.4076 49.0479 10.0703C48.7516 9.72852 48.526 9.32975 48.3711 8.87402C48.2161 8.41374 48.1387 7.91471 48.1387 7.37695ZM50.1074 7.2334V7.37695C50.1074 7.68685 50.1348 7.97624 50.1895 8.24512C50.2441 8.514 50.3307 8.75098 50.4492 8.95605C50.5723 9.15658 50.7318 9.3138 50.9277 9.42773C51.1237 9.54167 51.363 9.59863 51.6455 9.59863C51.9189 9.59863 52.1536 9.54167 52.3496 9.42773C52.5456 9.3138 52.7028 9.15658 52.8213 8.95605C52.9398 8.75098 53.0264 8.514 53.0811 8.24512C53.1403 7.97624 53.1699 7.68685 53.1699 7.37695V7.2334C53.1699 6.93262 53.1403 6.65007 53.0811 6.38574C53.0264 6.11686 52.9375 5.87988 52.8145 5.6748C52.696 5.46517 52.5387 5.30111 52.3428 5.18262C52.1468 5.06413 51.9098 5.00488 51.6318 5.00488C51.3538 5.00488 51.1169 5.06413 50.9209 5.18262C50.7295 5.30111 50.5723 5.46517 50.4492 5.6748C50.3307 5.87988 50.2441 6.11686 50.1895 6.38574C50.1348 6.65007 50.1074 6.93262 50.1074 7.2334ZM58.3242 5.2168V11H56.3555V3.60352H58.208L58.3242 5.2168ZM60.5527 3.55566L60.5186 5.38086C60.4229 5.36719 60.3066 5.35579 60.1699 5.34668C60.0378 5.33301 59.917 5.32617 59.8076 5.32617C59.5296 5.32617 59.2881 5.36263 59.083 5.43555C58.8825 5.50391 58.7139 5.60645 58.5771 5.74316C58.445 5.87988 58.3447 6.04622 58.2764 6.24219C58.2126 6.43815 58.1761 6.66146 58.167 6.91211L57.7705 6.78906C57.7705 6.31055 57.8184 5.87077 57.9141 5.46973C58.0098 5.06413 58.1488 4.71094 58.3311 4.41016C58.5179 4.10938 58.7458 3.87695 59.0146 3.71289C59.2835 3.54883 59.5911 3.4668 59.9375 3.4668C60.0469 3.4668 60.1585 3.47591 60.2725 3.49414C60.3864 3.50781 60.4798 3.52832 60.5527 3.55566ZM65.7139 9.38672V0.5H67.6963V11H65.9121L65.7139 9.38672ZM61.0381 7.39062V7.24707C61.0381 6.68197 61.1019 6.16927 61.2295 5.70898C61.3571 5.24414 61.5439 4.84538 61.79 4.5127C62.0361 4.18001 62.3392 3.92253 62.6992 3.74023C63.0592 3.55794 63.4694 3.4668 63.9297 3.4668C64.3626 3.4668 64.7409 3.55794 65.0645 3.74023C65.3926 3.92253 65.6706 4.18229 65.8984 4.51953C66.1309 4.85221 66.3177 5.24642 66.459 5.70215C66.6003 6.15332 66.7028 6.64779 66.7666 7.18555V7.5C66.7028 8.01497 66.6003 8.49349 66.459 8.93555C66.3177 9.3776 66.1309 9.76497 65.8984 10.0977C65.6706 10.4258 65.3926 10.681 65.0645 10.8633C64.7363 11.0456 64.3535 11.1367 63.916 11.1367C63.4557 11.1367 63.0456 11.0433 62.6855 10.8564C62.3301 10.6696 62.0293 10.4076 61.7832 10.0703C61.5417 9.73307 61.3571 9.33659 61.2295 8.88086C61.1019 8.42513 61.0381 7.92839 61.0381 7.39062ZM63.0068 7.24707V7.39062C63.0068 7.69596 63.0296 7.98079 63.0752 8.24512C63.1253 8.50944 63.2051 8.74414 63.3145 8.94922C63.4284 9.14974 63.5742 9.30697 63.752 9.4209C63.9342 9.53027 64.1553 9.58496 64.415 9.58496C64.7523 9.58496 65.0303 9.50977 65.249 9.35938C65.4678 9.20443 65.6341 8.99251 65.748 8.72363C65.8665 8.45475 65.9349 8.14486 65.9531 7.79395V6.89844C65.9395 6.61133 65.8984 6.35384 65.8301 6.12598C65.7663 5.89355 65.6706 5.69531 65.543 5.53125C65.4199 5.36719 65.265 5.23958 65.0781 5.14844C64.8958 5.05729 64.6794 5.01172 64.4287 5.01172C64.1735 5.01172 63.9548 5.07096 63.7725 5.18945C63.5902 5.30339 63.4421 5.46061 63.3281 5.66113C63.2188 5.86165 63.1367 6.09863 63.082 6.37207C63.0319 6.64095 63.0068 6.93262 63.0068 7.24707ZM72.6387 11.1367C72.0645 11.1367 71.5495 11.0456 71.0938 10.8633C70.638 10.6764 70.2507 10.4189 69.9316 10.0908C69.6172 9.7627 69.3757 9.38216 69.207 8.94922C69.0384 8.51172 68.9541 8.04688 68.9541 7.55469V7.28125C68.9541 6.7207 69.0339 6.20801 69.1934 5.74316C69.3529 5.27832 69.5807 4.875 69.877 4.5332C70.1777 4.19141 70.5423 3.92936 70.9707 3.74707C71.3991 3.56022 71.8822 3.4668 72.4199 3.4668C72.944 3.4668 73.4089 3.55339 73.8145 3.72656C74.2201 3.89974 74.5596 4.14583 74.833 4.46484C75.111 4.78385 75.3206 5.16667 75.4619 5.61328C75.6032 6.05534 75.6738 6.54753 75.6738 7.08984V7.91016H69.7949V6.59766H73.7393V6.44727C73.7393 6.17383 73.6891 5.93001 73.5889 5.71582C73.4932 5.49707 73.3473 5.32389 73.1514 5.19629C72.9554 5.06868 72.7048 5.00488 72.3994 5.00488C72.1396 5.00488 71.9163 5.06185 71.7295 5.17578C71.5426 5.28971 71.39 5.44922 71.2715 5.6543C71.1576 5.85938 71.071 6.10091 71.0117 6.37891C70.957 6.65234 70.9297 6.95312 70.9297 7.28125V7.55469C70.9297 7.85091 70.9707 8.12435 71.0527 8.375C71.1393 8.62565 71.2601 8.84212 71.415 9.02441C71.5745 9.20671 71.766 9.34798 71.9893 9.44824C72.2171 9.5485 72.4746 9.59863 72.7617 9.59863C73.1172 9.59863 73.4476 9.53027 73.7529 9.39355C74.0628 9.25228 74.3294 9.04036 74.5527 8.75781L75.5098 9.79688C75.3548 10.0202 75.1429 10.2344 74.874 10.4395C74.6097 10.6445 74.2907 10.8132 73.917 10.9453C73.5433 11.0729 73.1172 11.1367 72.6387 11.1367ZM78.7637 5.2168V11H76.7949V3.60352H78.6475L78.7637 5.2168ZM80.9922 3.55566L80.958 5.38086C80.8623 5.36719 80.7461 5.35579 80.6094 5.34668C80.4772 5.33301 80.3564 5.32617 80.2471 5.32617C79.9691 5.32617 79.7275 5.36263 79.5225 5.43555C79.3219 5.50391 79.1533 5.60645 79.0166 5.74316C78.8844 5.87988 78.7842 6.04622 78.7158 6.24219C78.652 6.43815 78.6156 6.66146 78.6064 6.91211L78.21 6.78906C78.21 6.31055 78.2578 5.87077 78.3535 5.46973C78.4492 5.06413 78.5882 4.71094 78.7705 4.41016C78.9574 4.10938 79.1852 3.87695 79.4541 3.71289C79.723 3.54883 80.0306 3.4668 80.377 3.4668C80.4863 3.4668 80.598 3.47591 80.7119 3.49414C80.8258 3.50781 80.9193 3.52832 80.9922 3.55566Z" fill="url(#paint0_linear_2_86)"/>
<defs>
<linearGradient id="paint0_linear_2_86" x1="41" y1="-2" x2="41" y2="14" gradientUnits="userSpaceOnUse">
<stop stop-color="#E01B1B"/>
<stop offset="1" stop-color="#E12C2C"/>
</linearGradient>
</defs>
</svg>
