<svg width="17" height="17" viewBox="0 0 17 17" fill="none" xmlns="http://www.w3.org/2000/svg">
<path d="M14.9813 4.37058C14.6909 4.21475 14.0817 4.05183 13.253 4.63266L12.2117 5.36933C12.1338 3.16641 11.1775 2.30225 8.85421 2.30225H4.60421C2.18171 2.30225 1.23962 3.24433 1.23962 5.66683V11.3335C1.23962 12.9627 2.12504 14.6981 4.60421 14.6981H8.85421C11.1775 14.6981 12.1338 13.8339 12.2117 11.631L13.253 12.3677C13.6921 12.6793 14.0746 12.7785 14.3792 12.7785C14.6413 12.7785 14.8467 12.7006 14.9813 12.6297C15.2717 12.481 15.7605 12.0772 15.7605 11.0643V5.936C15.7605 4.92308 15.2717 4.51933 14.9813 4.37058ZM7.79171 8.061C7.06212 8.061 6.46004 7.466 6.46004 6.72933C6.46004 5.99266 7.06212 5.39766 7.79171 5.39766C8.52129 5.39766 9.12337 5.99266 9.12337 6.72933C9.12337 7.466 8.52129 8.061 7.79171 8.061Z" fill="white"/>
</svg>
