<svg width="16" height="16" viewBox="0 0 16 16" fill="none" xmlns="http://www.w3.org/2000/svg">
<path d="M10.34 7.99995C10.34 9.29007 9.29007 10.34 7.99995 10.34C6.70983 10.34 5.65995 9.29007 5.65995 7.99995C5.65995 6.70983 6.70983 5.65995 7.99995 5.65995C9.29007 5.65995 10.34 6.70983 10.34 7.99995ZM15.8 7.99995C15.8 12.3009 12.3009 15.8 7.99995 15.8C3.69903 15.8 0.199951 12.3009 0.199951 7.99995C0.199951 3.69903 3.69903 0.199951 7.99995 0.199951C12.3009 0.199951 15.8 3.69903 15.8 7.99995ZM11.9 7.99995C11.9 5.84949 10.1504 4.09995 7.99995 4.09995C5.84949 4.09995 4.09995 5.84949 4.09995 7.99995C4.09995 10.1504 5.84949 11.9 7.99995 11.9C10.1504 11.9 11.9 10.1504 11.9 7.99995Z" fill="url(#paint0_linear_2_128)"/>
<defs>
<linearGradient id="paint0_linear_2_128" x1="7.99995" y1="0.199951" x2="7.99995" y2="18.92" gradientUnits="userSpaceOnUse">
<stop stop-color="#E01B1B"/>
<stop offset="1" stop-color="#E12C2C"/>
</linearGradient>
</defs>
</svg>
