<svg width="16" height="16" viewBox="0 0 16 16" fill="none" xmlns="http://www.w3.org/2000/svg">
<path d="M11.8999 4.10049C11.5034 4.10049 11.1394 3.87299 10.9574 3.52199L10.4894 2.57949C10.1904 1.98799 9.41041 1.50049 8.74741 1.50049H7.25891C6.58941 1.50049 5.80941 1.98799 5.51041 2.57949L5.04241 3.52199C4.86041 3.87299 4.49641 4.10049 4.09991 4.10049C2.68941 4.10049 1.57141 5.28999 1.66241 6.69399L2.00041 12.063C2.07841 13.402 2.79991 14.5005 4.59391 14.5005H11.4059C13.1999 14.5005 13.9149 13.402 13.9994 12.063L14.3374 6.69399C14.4284 5.28999 13.3104 4.10049 11.8999 4.10049ZM7.02491 4.91299H8.97491C9.24141 4.91299 9.46241 5.13399 9.46241 5.40049C9.46241 5.66699 9.24141 5.88799 8.97491 5.88799H7.02491C6.75841 5.88799 6.53741 5.66699 6.53741 5.40049C6.53741 5.13399 6.75841 4.91299 7.02491 4.91299ZM7.99991 11.9785C6.79091 11.9785 5.80291 10.997 5.80291 9.78149C5.80291 8.56599 6.78441 7.58449 7.99991 7.58449C9.21541 7.58449 10.1969 8.56599 10.1969 9.78149C10.1969 10.997 9.20891 11.9785 7.99991 11.9785Z" fill="url(#paint0_linear_2_135)"/>
<defs>
<linearGradient id="paint0_linear_2_135" x1="7.99991" y1="1.50049" x2="7.99991" y2="17.1005" gradientUnits="userSpaceOnUse">
<stop stop-color="#E01B1B"/>
<stop offset="1" stop-color="#E12C2C"/>
</linearGradient>
</defs>
</svg>
