<svg width="25" height="24" viewBox="0 0 25 24" fill="none" xmlns="http://www.w3.org/2000/svg">
<path d="M19.44 5.41994L14.27 2.42994C13.28 1.85994 11.73 1.85994 10.74 2.42994L5.52002 5.43994C3.45002 6.83994 3.33002 7.04994 3.33002 9.27994V14.7099C3.33002 16.9399 3.45002 17.1599 5.56002 18.5799L10.73 21.5699C11.23 21.8599 11.87 21.9999 12.5 21.9999C13.13 21.9999 13.77 21.8599 14.26 21.5699L19.48 18.5599C21.55 17.1599 21.67 16.9499 21.67 14.7199V9.27994C21.67 7.04994 21.55 6.83994 19.44 5.41994ZM12.5 15.2499C10.71 15.2499 9.25002 13.7899 9.25002 11.9999C9.25002 10.2099 10.71 8.74994 12.5 8.74994C14.29 8.74994 15.75 10.2099 15.75 11.9999C15.75 13.7899 14.29 15.2499 12.5 15.2499Z" fill="black"/>
</svg>
