<svg width="15" height="17" viewBox="0 0 15 17" fill="none" xmlns="http://www.w3.org/2000/svg">
<path d="M9.50015 7.19995C9.50015 8.35775 8.55795 9.29995 7.40015 9.29995C6.24235 9.29995 5.30015 8.35775 5.30015 7.19995C5.30015 6.04215 6.24235 5.09995 7.40015 5.09995C8.55795 5.09995 9.50015 6.04215 9.50015 7.19995ZM14.4001 7.19995C14.4001 11.0598 11.2599 14.2 7.40015 14.2C3.54035 14.2 0.400146 11.0598 0.400146 7.19995C0.400146 3.34015 3.54035 0.199951 7.40015 0.199951C11.2599 0.199951 14.4001 3.34015 14.4001 7.19995ZM10.9001 7.19995C10.9001 5.27005 9.33005 3.69995 7.40015 3.69995C5.47025 3.69995 3.90015 5.27005 3.90015 7.19995C3.90015 9.12985 5.47025 10.7 7.40015 10.7C9.33005 10.7 10.9001 9.12985 10.9001 7.19995ZM11.9004 14.2896C10.5984 15.1191 9.05425 15.6 7.40015 15.6C5.74605 15.6 4.20045 15.1184 2.89845 14.2889C2.83195 14.389 2.76895 14.4905 2.70945 14.5955C2.42455 15.0995 2.42875 15.7001 2.72135 16.2006C3.01325 16.7011 3.53265 17 4.11155 17H10.6873C11.2655 17 11.7856 16.7011 12.0789 16.2006C12.3701 15.7029 12.3757 15.1065 12.0936 14.606C12.0327 14.4982 11.9683 14.3918 11.9004 14.2896Z" fill="url(#paint0_linear_2_115)"/>
<defs>
<linearGradient id="paint0_linear_2_115" x1="7.40015" y1="0.199951" x2="7.40015" y2="17" gradientUnits="userSpaceOnUse">
<stop stop-color="#E01B1B"/>
<stop offset="1" stop-color="#E12C2C"/>
</linearGradient>
</defs>
</svg>
